%TF.GenerationSoftware,KiCad,Pcbnew,8.0.8*%
%TF.CreationDate,2025-01-22T13:02:24+01:00*%
%TF.ProjectId,Peerhof-Uni-CC1101 Light,50656572-686f-4662-9d55-6e692d434331,rev?*%
%TF.SameCoordinates,Original*%
%TF.FileFunction,Legend,Top*%
%TF.FilePolarity,Positive*%
%FSLAX46Y46*%
G04 Gerber Fmt 4.6, Leading zero omitted, Abs format (unit mm)*
G04 Created by KiCad (PCBNEW 8.0.8) date 2025-01-22 13:02:24*
%MOMM*%
%LPD*%
G01*
G04 APERTURE LIST*
%ADD10C,0.150000*%
%ADD11C,0.120000*%
G04 APERTURE END LIST*
D10*
X124186305Y-94629566D02*
X124757733Y-94629566D01*
X124472019Y-95629566D02*
X124472019Y-94629566D01*
X124995829Y-95629566D02*
X125519638Y-94962899D01*
X124995829Y-94962899D02*
X125519638Y-95629566D01*
X129471483Y-94629566D02*
X130090530Y-94629566D01*
X130090530Y-94629566D02*
X129757197Y-95010518D01*
X129757197Y-95010518D02*
X129900054Y-95010518D01*
X129900054Y-95010518D02*
X129995292Y-95058137D01*
X129995292Y-95058137D02*
X130042911Y-95105756D01*
X130042911Y-95105756D02*
X130090530Y-95200994D01*
X130090530Y-95200994D02*
X130090530Y-95439089D01*
X130090530Y-95439089D02*
X130042911Y-95534327D01*
X130042911Y-95534327D02*
X129995292Y-95581947D01*
X129995292Y-95581947D02*
X129900054Y-95629566D01*
X129900054Y-95629566D02*
X129614340Y-95629566D01*
X129614340Y-95629566D02*
X129519102Y-95581947D01*
X129519102Y-95581947D02*
X129471483Y-95534327D01*
X130566721Y-95581947D02*
X130566721Y-95629566D01*
X130566721Y-95629566D02*
X130519102Y-95724804D01*
X130519102Y-95724804D02*
X130471483Y-95772423D01*
X130900054Y-94629566D02*
X131519101Y-94629566D01*
X131519101Y-94629566D02*
X131185768Y-95010518D01*
X131185768Y-95010518D02*
X131328625Y-95010518D01*
X131328625Y-95010518D02*
X131423863Y-95058137D01*
X131423863Y-95058137D02*
X131471482Y-95105756D01*
X131471482Y-95105756D02*
X131519101Y-95200994D01*
X131519101Y-95200994D02*
X131519101Y-95439089D01*
X131519101Y-95439089D02*
X131471482Y-95534327D01*
X131471482Y-95534327D02*
X131423863Y-95581947D01*
X131423863Y-95581947D02*
X131328625Y-95629566D01*
X131328625Y-95629566D02*
X131042911Y-95629566D01*
X131042911Y-95629566D02*
X130947673Y-95581947D01*
X130947673Y-95581947D02*
X130900054Y-95534327D01*
X131804816Y-94629566D02*
X132138149Y-95629566D01*
X132138149Y-95629566D02*
X132471482Y-94629566D01*
X127238095Y-80502438D02*
X127142857Y-80454819D01*
X127142857Y-80454819D02*
X127000000Y-80454819D01*
X127000000Y-80454819D02*
X126857143Y-80502438D01*
X126857143Y-80502438D02*
X126761905Y-80597676D01*
X126761905Y-80597676D02*
X126714286Y-80692914D01*
X126714286Y-80692914D02*
X126666667Y-80883390D01*
X126666667Y-80883390D02*
X126666667Y-81026247D01*
X126666667Y-81026247D02*
X126714286Y-81216723D01*
X126714286Y-81216723D02*
X126761905Y-81311961D01*
X126761905Y-81311961D02*
X126857143Y-81407200D01*
X126857143Y-81407200D02*
X127000000Y-81454819D01*
X127000000Y-81454819D02*
X127095238Y-81454819D01*
X127095238Y-81454819D02*
X127238095Y-81407200D01*
X127238095Y-81407200D02*
X127285714Y-81359580D01*
X127285714Y-81359580D02*
X127285714Y-81026247D01*
X127285714Y-81026247D02*
X127095238Y-81026247D01*
X127714286Y-81454819D02*
X127714286Y-80454819D01*
X127714286Y-80454819D02*
X128285714Y-81454819D01*
X128285714Y-81454819D02*
X128285714Y-80454819D01*
X128761905Y-81454819D02*
X128761905Y-80454819D01*
X128761905Y-80454819D02*
X129000000Y-80454819D01*
X129000000Y-80454819D02*
X129142857Y-80502438D01*
X129142857Y-80502438D02*
X129238095Y-80597676D01*
X129238095Y-80597676D02*
X129285714Y-80692914D01*
X129285714Y-80692914D02*
X129333333Y-80883390D01*
X129333333Y-80883390D02*
X129333333Y-81026247D01*
X129333333Y-81026247D02*
X129285714Y-81216723D01*
X129285714Y-81216723D02*
X129238095Y-81311961D01*
X129238095Y-81311961D02*
X129142857Y-81407200D01*
X129142857Y-81407200D02*
X129000000Y-81454819D01*
X129000000Y-81454819D02*
X128761905Y-81454819D01*
X127238095Y-87463951D02*
X127142857Y-87416332D01*
X127142857Y-87416332D02*
X127000000Y-87416332D01*
X127000000Y-87416332D02*
X126857143Y-87463951D01*
X126857143Y-87463951D02*
X126761905Y-87559189D01*
X126761905Y-87559189D02*
X126714286Y-87654427D01*
X126714286Y-87654427D02*
X126666667Y-87844903D01*
X126666667Y-87844903D02*
X126666667Y-87987760D01*
X126666667Y-87987760D02*
X126714286Y-88178236D01*
X126714286Y-88178236D02*
X126761905Y-88273474D01*
X126761905Y-88273474D02*
X126857143Y-88368713D01*
X126857143Y-88368713D02*
X127000000Y-88416332D01*
X127000000Y-88416332D02*
X127095238Y-88416332D01*
X127095238Y-88416332D02*
X127238095Y-88368713D01*
X127238095Y-88368713D02*
X127285714Y-88321093D01*
X127285714Y-88321093D02*
X127285714Y-87987760D01*
X127285714Y-87987760D02*
X127095238Y-87987760D01*
X127714286Y-88416332D02*
X127714286Y-87416332D01*
X127714286Y-87416332D02*
X128285714Y-88416332D01*
X128285714Y-88416332D02*
X128285714Y-87416332D01*
X128761905Y-88416332D02*
X128761905Y-87416332D01*
X128761905Y-87416332D02*
X129000000Y-87416332D01*
X129000000Y-87416332D02*
X129142857Y-87463951D01*
X129142857Y-87463951D02*
X129238095Y-87559189D01*
X129238095Y-87559189D02*
X129285714Y-87654427D01*
X129285714Y-87654427D02*
X129333333Y-87844903D01*
X129333333Y-87844903D02*
X129333333Y-87987760D01*
X129333333Y-87987760D02*
X129285714Y-88178236D01*
X129285714Y-88178236D02*
X129238095Y-88273474D01*
X129238095Y-88273474D02*
X129142857Y-88368713D01*
X129142857Y-88368713D02*
X129000000Y-88416332D01*
X129000000Y-88416332D02*
X128761905Y-88416332D01*
X124710479Y-88416332D02*
X124710479Y-87416332D01*
X124710479Y-87416332D02*
X124948574Y-87416332D01*
X124948574Y-87416332D02*
X125091431Y-87463951D01*
X125091431Y-87463951D02*
X125186669Y-87559189D01*
X125186669Y-87559189D02*
X125234288Y-87654427D01*
X125234288Y-87654427D02*
X125281907Y-87844903D01*
X125281907Y-87844903D02*
X125281907Y-87987760D01*
X125281907Y-87987760D02*
X125234288Y-88178236D01*
X125234288Y-88178236D02*
X125186669Y-88273474D01*
X125186669Y-88273474D02*
X125091431Y-88368713D01*
X125091431Y-88368713D02*
X124948574Y-88416332D01*
X124948574Y-88416332D02*
X124710479Y-88416332D01*
X126234288Y-88416332D02*
X125662860Y-88416332D01*
X125948574Y-88416332D02*
X125948574Y-87416332D01*
X125948574Y-87416332D02*
X125853336Y-87559189D01*
X125853336Y-87559189D02*
X125758098Y-87654427D01*
X125758098Y-87654427D02*
X125662860Y-87702046D01*
X130809523Y-80454819D02*
X130333333Y-80454819D01*
X130333333Y-80454819D02*
X130285714Y-80931009D01*
X130285714Y-80931009D02*
X130333333Y-80883390D01*
X130333333Y-80883390D02*
X130428571Y-80835771D01*
X130428571Y-80835771D02*
X130666666Y-80835771D01*
X130666666Y-80835771D02*
X130761904Y-80883390D01*
X130761904Y-80883390D02*
X130809523Y-80931009D01*
X130809523Y-80931009D02*
X130857142Y-81026247D01*
X130857142Y-81026247D02*
X130857142Y-81264342D01*
X130857142Y-81264342D02*
X130809523Y-81359580D01*
X130809523Y-81359580D02*
X130761904Y-81407200D01*
X130761904Y-81407200D02*
X130666666Y-81454819D01*
X130666666Y-81454819D02*
X130428571Y-81454819D01*
X130428571Y-81454819D02*
X130333333Y-81407200D01*
X130333333Y-81407200D02*
X130285714Y-81359580D01*
X131142857Y-80454819D02*
X131476190Y-81454819D01*
X131476190Y-81454819D02*
X131809523Y-80454819D01*
X122261905Y-81454819D02*
X122261905Y-80454819D01*
X122261905Y-80454819D02*
X122500000Y-80454819D01*
X122500000Y-80454819D02*
X122642857Y-80502438D01*
X122642857Y-80502438D02*
X122738095Y-80597676D01*
X122738095Y-80597676D02*
X122785714Y-80692914D01*
X122785714Y-80692914D02*
X122833333Y-80883390D01*
X122833333Y-80883390D02*
X122833333Y-81026247D01*
X122833333Y-81026247D02*
X122785714Y-81216723D01*
X122785714Y-81216723D02*
X122738095Y-81311961D01*
X122738095Y-81311961D02*
X122642857Y-81407200D01*
X122642857Y-81407200D02*
X122500000Y-81454819D01*
X122500000Y-81454819D02*
X122261905Y-81454819D01*
X123690476Y-80788152D02*
X123690476Y-81454819D01*
X123452381Y-80407200D02*
X123214286Y-81121485D01*
X123214286Y-81121485D02*
X123833333Y-81121485D01*
X122480095Y-95629566D02*
X122146762Y-95153375D01*
X121908667Y-95629566D02*
X121908667Y-94629566D01*
X121908667Y-94629566D02*
X122289619Y-94629566D01*
X122289619Y-94629566D02*
X122384857Y-94677185D01*
X122384857Y-94677185D02*
X122432476Y-94724804D01*
X122432476Y-94724804D02*
X122480095Y-94820042D01*
X122480095Y-94820042D02*
X122480095Y-94962899D01*
X122480095Y-94962899D02*
X122432476Y-95058137D01*
X122432476Y-95058137D02*
X122384857Y-95105756D01*
X122384857Y-95105756D02*
X122289619Y-95153375D01*
X122289619Y-95153375D02*
X121908667Y-95153375D01*
X122813429Y-95629566D02*
X123337238Y-94962899D01*
X122813429Y-94962899D02*
X123337238Y-95629566D01*
X130442997Y-87416332D02*
X129966807Y-87416332D01*
X129966807Y-87416332D02*
X129919188Y-87892522D01*
X129919188Y-87892522D02*
X129966807Y-87844903D01*
X129966807Y-87844903D02*
X130062045Y-87797284D01*
X130062045Y-87797284D02*
X130300140Y-87797284D01*
X130300140Y-87797284D02*
X130395378Y-87844903D01*
X130395378Y-87844903D02*
X130442997Y-87892522D01*
X130442997Y-87892522D02*
X130490616Y-87987760D01*
X130490616Y-87987760D02*
X130490616Y-88225855D01*
X130490616Y-88225855D02*
X130442997Y-88321093D01*
X130442997Y-88321093D02*
X130395378Y-88368713D01*
X130395378Y-88368713D02*
X130300140Y-88416332D01*
X130300140Y-88416332D02*
X130062045Y-88416332D01*
X130062045Y-88416332D02*
X129966807Y-88368713D01*
X129966807Y-88368713D02*
X129919188Y-88321093D01*
X130776331Y-87416332D02*
X131109664Y-88416332D01*
X131109664Y-88416332D02*
X131442997Y-87416332D01*
X126870832Y-94677185D02*
X126775594Y-94629566D01*
X126775594Y-94629566D02*
X126632737Y-94629566D01*
X126632737Y-94629566D02*
X126489880Y-94677185D01*
X126489880Y-94677185D02*
X126394642Y-94772423D01*
X126394642Y-94772423D02*
X126347023Y-94867661D01*
X126347023Y-94867661D02*
X126299404Y-95058137D01*
X126299404Y-95058137D02*
X126299404Y-95200994D01*
X126299404Y-95200994D02*
X126347023Y-95391470D01*
X126347023Y-95391470D02*
X126394642Y-95486708D01*
X126394642Y-95486708D02*
X126489880Y-95581947D01*
X126489880Y-95581947D02*
X126632737Y-95629566D01*
X126632737Y-95629566D02*
X126727975Y-95629566D01*
X126727975Y-95629566D02*
X126870832Y-95581947D01*
X126870832Y-95581947D02*
X126918451Y-95534327D01*
X126918451Y-95534327D02*
X126918451Y-95200994D01*
X126918451Y-95200994D02*
X126727975Y-95200994D01*
X127347023Y-95629566D02*
X127347023Y-94629566D01*
X127347023Y-94629566D02*
X127918451Y-95629566D01*
X127918451Y-95629566D02*
X127918451Y-94629566D01*
X128394642Y-95629566D02*
X128394642Y-94629566D01*
X128394642Y-94629566D02*
X128632737Y-94629566D01*
X128632737Y-94629566D02*
X128775594Y-94677185D01*
X128775594Y-94677185D02*
X128870832Y-94772423D01*
X128870832Y-94772423D02*
X128918451Y-94867661D01*
X128918451Y-94867661D02*
X128966070Y-95058137D01*
X128966070Y-95058137D02*
X128966070Y-95200994D01*
X128966070Y-95200994D02*
X128918451Y-95391470D01*
X128918451Y-95391470D02*
X128870832Y-95486708D01*
X128870832Y-95486708D02*
X128775594Y-95581947D01*
X128775594Y-95581947D02*
X128632737Y-95629566D01*
X128632737Y-95629566D02*
X128394642Y-95629566D01*
X122188860Y-88416332D02*
X122188860Y-87416332D01*
X122188860Y-87416332D02*
X122426955Y-87416332D01*
X122426955Y-87416332D02*
X122569812Y-87463951D01*
X122569812Y-87463951D02*
X122665050Y-87559189D01*
X122665050Y-87559189D02*
X122712669Y-87654427D01*
X122712669Y-87654427D02*
X122760288Y-87844903D01*
X122760288Y-87844903D02*
X122760288Y-87987760D01*
X122760288Y-87987760D02*
X122712669Y-88178236D01*
X122712669Y-88178236D02*
X122665050Y-88273474D01*
X122665050Y-88273474D02*
X122569812Y-88368713D01*
X122569812Y-88368713D02*
X122426955Y-88416332D01*
X122426955Y-88416332D02*
X122188860Y-88416332D01*
X123093622Y-87416332D02*
X123712669Y-87416332D01*
X123712669Y-87416332D02*
X123379336Y-87797284D01*
X123379336Y-87797284D02*
X123522193Y-87797284D01*
X123522193Y-87797284D02*
X123617431Y-87844903D01*
X123617431Y-87844903D02*
X123665050Y-87892522D01*
X123665050Y-87892522D02*
X123712669Y-87987760D01*
X123712669Y-87987760D02*
X123712669Y-88225855D01*
X123712669Y-88225855D02*
X123665050Y-88321093D01*
X123665050Y-88321093D02*
X123617431Y-88368713D01*
X123617431Y-88368713D02*
X123522193Y-88416332D01*
X123522193Y-88416332D02*
X123236479Y-88416332D01*
X123236479Y-88416332D02*
X123141241Y-88368713D01*
X123141241Y-88368713D02*
X123093622Y-88321093D01*
X125373333Y-100959104D02*
X125849523Y-100959104D01*
X125278095Y-101244819D02*
X125611428Y-100244819D01*
X125611428Y-100244819D02*
X125944761Y-101244819D01*
X126278095Y-100721009D02*
X126611428Y-100721009D01*
X126754285Y-101244819D02*
X126278095Y-101244819D01*
X126278095Y-101244819D02*
X126278095Y-100244819D01*
X126278095Y-100244819D02*
X126754285Y-100244819D01*
X127706666Y-101244819D02*
X127135238Y-101244819D01*
X127420952Y-101244819D02*
X127420952Y-100244819D01*
X127420952Y-100244819D02*
X127325714Y-100387676D01*
X127325714Y-100387676D02*
X127230476Y-100482914D01*
X127230476Y-100482914D02*
X127135238Y-100530533D01*
X151954819Y-101761904D02*
X152764342Y-101761904D01*
X152764342Y-101761904D02*
X152859580Y-101714285D01*
X152859580Y-101714285D02*
X152907200Y-101666666D01*
X152907200Y-101666666D02*
X152954819Y-101571428D01*
X152954819Y-101571428D02*
X152954819Y-101380952D01*
X152954819Y-101380952D02*
X152907200Y-101285714D01*
X152907200Y-101285714D02*
X152859580Y-101238095D01*
X152859580Y-101238095D02*
X152764342Y-101190476D01*
X152764342Y-101190476D02*
X151954819Y-101190476D01*
X152050057Y-100761904D02*
X152002438Y-100714285D01*
X152002438Y-100714285D02*
X151954819Y-100619047D01*
X151954819Y-100619047D02*
X151954819Y-100380952D01*
X151954819Y-100380952D02*
X152002438Y-100285714D01*
X152002438Y-100285714D02*
X152050057Y-100238095D01*
X152050057Y-100238095D02*
X152145295Y-100190476D01*
X152145295Y-100190476D02*
X152240533Y-100190476D01*
X152240533Y-100190476D02*
X152383390Y-100238095D01*
X152383390Y-100238095D02*
X152954819Y-100809523D01*
X152954819Y-100809523D02*
X152954819Y-100190476D01*
X146630180Y-103146303D02*
X145630180Y-103479636D01*
X145630180Y-103479636D02*
X146630180Y-103812969D01*
X145630180Y-105432017D02*
X145630180Y-104860589D01*
X145630180Y-105146303D02*
X146630180Y-105146303D01*
X146630180Y-105146303D02*
X146487323Y-105051065D01*
X146487323Y-105051065D02*
X146392085Y-104955827D01*
X146392085Y-104955827D02*
X146344466Y-104860589D01*
X145725419Y-105860589D02*
X145677800Y-105908208D01*
X145677800Y-105908208D02*
X145630180Y-105860589D01*
X145630180Y-105860589D02*
X145677800Y-105812970D01*
X145677800Y-105812970D02*
X145725419Y-105860589D01*
X145725419Y-105860589D02*
X145630180Y-105860589D01*
X146630180Y-106527255D02*
X146630180Y-106622493D01*
X146630180Y-106622493D02*
X146582561Y-106717731D01*
X146582561Y-106717731D02*
X146534942Y-106765350D01*
X146534942Y-106765350D02*
X146439704Y-106812969D01*
X146439704Y-106812969D02*
X146249228Y-106860588D01*
X146249228Y-106860588D02*
X146011133Y-106860588D01*
X146011133Y-106860588D02*
X145820657Y-106812969D01*
X145820657Y-106812969D02*
X145725419Y-106765350D01*
X145725419Y-106765350D02*
X145677800Y-106717731D01*
X145677800Y-106717731D02*
X145630180Y-106622493D01*
X145630180Y-106622493D02*
X145630180Y-106527255D01*
X145630180Y-106527255D02*
X145677800Y-106432017D01*
X145677800Y-106432017D02*
X145725419Y-106384398D01*
X145725419Y-106384398D02*
X145820657Y-106336779D01*
X145820657Y-106336779D02*
X146011133Y-106289160D01*
X146011133Y-106289160D02*
X146249228Y-106289160D01*
X146249228Y-106289160D02*
X146439704Y-106336779D01*
X146439704Y-106336779D02*
X146534942Y-106384398D01*
X146534942Y-106384398D02*
X146582561Y-106432017D01*
X146582561Y-106432017D02*
X146630180Y-106527255D01*
X147725419Y-102955826D02*
X147677800Y-102908207D01*
X147677800Y-102908207D02*
X147630180Y-102765350D01*
X147630180Y-102765350D02*
X147630180Y-102670112D01*
X147630180Y-102670112D02*
X147677800Y-102527255D01*
X147677800Y-102527255D02*
X147773038Y-102432017D01*
X147773038Y-102432017D02*
X147868276Y-102384398D01*
X147868276Y-102384398D02*
X148058752Y-102336779D01*
X148058752Y-102336779D02*
X148201609Y-102336779D01*
X148201609Y-102336779D02*
X148392085Y-102384398D01*
X148392085Y-102384398D02*
X148487323Y-102432017D01*
X148487323Y-102432017D02*
X148582561Y-102527255D01*
X148582561Y-102527255D02*
X148630180Y-102670112D01*
X148630180Y-102670112D02*
X148630180Y-102765350D01*
X148630180Y-102765350D02*
X148582561Y-102908207D01*
X148582561Y-102908207D02*
X148534942Y-102955826D01*
X147725419Y-103955826D02*
X147677800Y-103908207D01*
X147677800Y-103908207D02*
X147630180Y-103765350D01*
X147630180Y-103765350D02*
X147630180Y-103670112D01*
X147630180Y-103670112D02*
X147677800Y-103527255D01*
X147677800Y-103527255D02*
X147773038Y-103432017D01*
X147773038Y-103432017D02*
X147868276Y-103384398D01*
X147868276Y-103384398D02*
X148058752Y-103336779D01*
X148058752Y-103336779D02*
X148201609Y-103336779D01*
X148201609Y-103336779D02*
X148392085Y-103384398D01*
X148392085Y-103384398D02*
X148487323Y-103432017D01*
X148487323Y-103432017D02*
X148582561Y-103527255D01*
X148582561Y-103527255D02*
X148630180Y-103670112D01*
X148630180Y-103670112D02*
X148630180Y-103765350D01*
X148630180Y-103765350D02*
X148582561Y-103908207D01*
X148582561Y-103908207D02*
X148534942Y-103955826D01*
X147630180Y-104908207D02*
X147630180Y-104336779D01*
X147630180Y-104622493D02*
X148630180Y-104622493D01*
X148630180Y-104622493D02*
X148487323Y-104527255D01*
X148487323Y-104527255D02*
X148392085Y-104432017D01*
X148392085Y-104432017D02*
X148344466Y-104336779D01*
X147630180Y-105860588D02*
X147630180Y-105289160D01*
X147630180Y-105574874D02*
X148630180Y-105574874D01*
X148630180Y-105574874D02*
X148487323Y-105479636D01*
X148487323Y-105479636D02*
X148392085Y-105384398D01*
X148392085Y-105384398D02*
X148344466Y-105289160D01*
X148630180Y-106479636D02*
X148630180Y-106574874D01*
X148630180Y-106574874D02*
X148582561Y-106670112D01*
X148582561Y-106670112D02*
X148534942Y-106717731D01*
X148534942Y-106717731D02*
X148439704Y-106765350D01*
X148439704Y-106765350D02*
X148249228Y-106812969D01*
X148249228Y-106812969D02*
X148011133Y-106812969D01*
X148011133Y-106812969D02*
X147820657Y-106765350D01*
X147820657Y-106765350D02*
X147725419Y-106717731D01*
X147725419Y-106717731D02*
X147677800Y-106670112D01*
X147677800Y-106670112D02*
X147630180Y-106574874D01*
X147630180Y-106574874D02*
X147630180Y-106479636D01*
X147630180Y-106479636D02*
X147677800Y-106384398D01*
X147677800Y-106384398D02*
X147725419Y-106336779D01*
X147725419Y-106336779D02*
X147820657Y-106289160D01*
X147820657Y-106289160D02*
X148011133Y-106241541D01*
X148011133Y-106241541D02*
X148249228Y-106241541D01*
X148249228Y-106241541D02*
X148439704Y-106289160D01*
X148439704Y-106289160D02*
X148534942Y-106336779D01*
X148534942Y-106336779D02*
X148582561Y-106384398D01*
X148582561Y-106384398D02*
X148630180Y-106479636D01*
X147630180Y-107765350D02*
X147630180Y-107193922D01*
X147630180Y-107479636D02*
X148630180Y-107479636D01*
X148630180Y-107479636D02*
X148487323Y-107384398D01*
X148487323Y-107384398D02*
X148392085Y-107289160D01*
X148392085Y-107289160D02*
X148344466Y-107193922D01*
X145668095Y-72344819D02*
X145668095Y-73154342D01*
X145668095Y-73154342D02*
X145715714Y-73249580D01*
X145715714Y-73249580D02*
X145763333Y-73297200D01*
X145763333Y-73297200D02*
X145858571Y-73344819D01*
X145858571Y-73344819D02*
X146049047Y-73344819D01*
X146049047Y-73344819D02*
X146144285Y-73297200D01*
X146144285Y-73297200D02*
X146191904Y-73249580D01*
X146191904Y-73249580D02*
X146239523Y-73154342D01*
X146239523Y-73154342D02*
X146239523Y-72344819D01*
X146620476Y-72344819D02*
X147239523Y-72344819D01*
X147239523Y-72344819D02*
X146906190Y-72725771D01*
X146906190Y-72725771D02*
X147049047Y-72725771D01*
X147049047Y-72725771D02*
X147144285Y-72773390D01*
X147144285Y-72773390D02*
X147191904Y-72821009D01*
X147191904Y-72821009D02*
X147239523Y-72916247D01*
X147239523Y-72916247D02*
X147239523Y-73154342D01*
X147239523Y-73154342D02*
X147191904Y-73249580D01*
X147191904Y-73249580D02*
X147144285Y-73297200D01*
X147144285Y-73297200D02*
X147049047Y-73344819D01*
X147049047Y-73344819D02*
X146763333Y-73344819D01*
X146763333Y-73344819D02*
X146668095Y-73297200D01*
X146668095Y-73297200D02*
X146620476Y-73249580D01*
X142454819Y-78166666D02*
X141978628Y-78499999D01*
X142454819Y-78738094D02*
X141454819Y-78738094D01*
X141454819Y-78738094D02*
X141454819Y-78357142D01*
X141454819Y-78357142D02*
X141502438Y-78261904D01*
X141502438Y-78261904D02*
X141550057Y-78214285D01*
X141550057Y-78214285D02*
X141645295Y-78166666D01*
X141645295Y-78166666D02*
X141788152Y-78166666D01*
X141788152Y-78166666D02*
X141883390Y-78214285D01*
X141883390Y-78214285D02*
X141931009Y-78261904D01*
X141931009Y-78261904D02*
X141978628Y-78357142D01*
X141978628Y-78357142D02*
X141978628Y-78738094D01*
X142454819Y-77214285D02*
X142454819Y-77785713D01*
X142454819Y-77499999D02*
X141454819Y-77499999D01*
X141454819Y-77499999D02*
X141597676Y-77595237D01*
X141597676Y-77595237D02*
X141692914Y-77690475D01*
X141692914Y-77690475D02*
X141740533Y-77785713D01*
X125454819Y-83333333D02*
X126169104Y-83333333D01*
X126169104Y-83333333D02*
X126311961Y-83380952D01*
X126311961Y-83380952D02*
X126407200Y-83476190D01*
X126407200Y-83476190D02*
X126454819Y-83619047D01*
X126454819Y-83619047D02*
X126454819Y-83714285D01*
X125550057Y-82904761D02*
X125502438Y-82857142D01*
X125502438Y-82857142D02*
X125454819Y-82761904D01*
X125454819Y-82761904D02*
X125454819Y-82523809D01*
X125454819Y-82523809D02*
X125502438Y-82428571D01*
X125502438Y-82428571D02*
X125550057Y-82380952D01*
X125550057Y-82380952D02*
X125645295Y-82333333D01*
X125645295Y-82333333D02*
X125740533Y-82333333D01*
X125740533Y-82333333D02*
X125883390Y-82380952D01*
X125883390Y-82380952D02*
X126454819Y-82952380D01*
X126454819Y-82952380D02*
X126454819Y-82333333D01*
X125454819Y-77333333D02*
X126169104Y-77333333D01*
X126169104Y-77333333D02*
X126311961Y-77380952D01*
X126311961Y-77380952D02*
X126407200Y-77476190D01*
X126407200Y-77476190D02*
X126454819Y-77619047D01*
X126454819Y-77619047D02*
X126454819Y-77714285D01*
X125454819Y-76952380D02*
X125454819Y-76285714D01*
X125454819Y-76285714D02*
X126454819Y-76714285D01*
X124454819Y-91333333D02*
X125169104Y-91333333D01*
X125169104Y-91333333D02*
X125311961Y-91380952D01*
X125311961Y-91380952D02*
X125407200Y-91476190D01*
X125407200Y-91476190D02*
X125454819Y-91619047D01*
X125454819Y-91619047D02*
X125454819Y-91714285D01*
X124788152Y-90428571D02*
X125454819Y-90428571D01*
X124407200Y-90666666D02*
X125121485Y-90904761D01*
X125121485Y-90904761D02*
X125121485Y-90285714D01*
X139261905Y-71454819D02*
X139261905Y-70454819D01*
X139261905Y-70454819D02*
X139500000Y-70454819D01*
X139500000Y-70454819D02*
X139642857Y-70502438D01*
X139642857Y-70502438D02*
X139738095Y-70597676D01*
X139738095Y-70597676D02*
X139785714Y-70692914D01*
X139785714Y-70692914D02*
X139833333Y-70883390D01*
X139833333Y-70883390D02*
X139833333Y-71026247D01*
X139833333Y-71026247D02*
X139785714Y-71216723D01*
X139785714Y-71216723D02*
X139738095Y-71311961D01*
X139738095Y-71311961D02*
X139642857Y-71407200D01*
X139642857Y-71407200D02*
X139500000Y-71454819D01*
X139500000Y-71454819D02*
X139261905Y-71454819D01*
X140785714Y-71454819D02*
X140214286Y-71454819D01*
X140500000Y-71454819D02*
X140500000Y-70454819D01*
X140500000Y-70454819D02*
X140404762Y-70597676D01*
X140404762Y-70597676D02*
X140309524Y-70692914D01*
X140309524Y-70692914D02*
X140214286Y-70740533D01*
D11*
%TO.C,AE1*%
X122860000Y-103740000D02*
X122860000Y-107340000D01*
X124740000Y-101860000D02*
X128340000Y-101860000D01*
X124740000Y-109220000D02*
X128340000Y-109220000D01*
X130220000Y-103740000D02*
X130220000Y-107340000D01*
D10*
%TO.C,U2*%
X154500000Y-116000000D02*
X137500000Y-116000000D01*
X154500000Y-96000000D02*
X154500000Y-116000000D01*
X154500000Y-96000000D02*
X154000000Y-96000000D01*
X137500000Y-116000000D02*
X137500000Y-96000000D01*
X137500000Y-96000000D02*
X138000000Y-96000000D01*
%TO.C,U3*%
X133100000Y-67590000D02*
X133100000Y-100670000D01*
X135100000Y-102670000D02*
X157760000Y-102670000D01*
X141530000Y-67590000D02*
X133100001Y-67590000D01*
X141530000Y-68590000D02*
X141530000Y-67590000D01*
X149750000Y-67590000D02*
X149750000Y-68590000D01*
X149750000Y-68590000D02*
X141530000Y-68590000D01*
X157610000Y-67590000D02*
X149750000Y-67590000D01*
X157610000Y-67590000D02*
X157610000Y-73590000D01*
X158600000Y-74590000D02*
X159760000Y-74590000D01*
X159760000Y-74590000D02*
X159760000Y-74590000D01*
X159760000Y-100670000D02*
X159760000Y-74590000D01*
X135100000Y-102670000D02*
G75*
G02*
X133100000Y-100670000I0J2000000D01*
G01*
X158610000Y-74590000D02*
G75*
G02*
X157610000Y-73590000I-1J999999D01*
G01*
X159760000Y-100670000D02*
G75*
G02*
X157760000Y-102670000I-2000000J0D01*
G01*
D11*
%TO.C,R1*%
X141080000Y-76620000D02*
X141080000Y-80460000D01*
X142920000Y-76620000D02*
X142920000Y-80460000D01*
%TO.C,J2*%
X121670000Y-84670000D02*
X121670000Y-87330000D01*
X129350000Y-84670000D02*
X121670000Y-84670000D01*
X129350000Y-84670000D02*
X129350000Y-87330000D01*
X129350000Y-87330000D02*
X121670000Y-87330000D01*
X130620000Y-84670000D02*
X131950000Y-84670000D01*
X131950000Y-84670000D02*
X131950000Y-86000000D01*
%TO.C,J7*%
X121670000Y-77670000D02*
X121670000Y-80330000D01*
X129350000Y-77670000D02*
X121670000Y-77670000D01*
X129350000Y-77670000D02*
X129350000Y-80330000D01*
X129350000Y-80330000D02*
X121670000Y-80330000D01*
X130620000Y-77670000D02*
X131950000Y-77670000D01*
X131950000Y-77670000D02*
X131950000Y-79000000D01*
%TO.C,J4*%
X121670000Y-91670000D02*
X121670000Y-94330000D01*
X129350000Y-91670000D02*
X121670000Y-91670000D01*
X129350000Y-91670000D02*
X129350000Y-94330000D01*
X129350000Y-94330000D02*
X121670000Y-94330000D01*
X130620000Y-91670000D02*
X131950000Y-91670000D01*
X131950000Y-91670000D02*
X131950000Y-93000000D01*
%TD*%
M02*
