M48
; DRILL file {KiCad 8.0.8} date 2025-01-22T13:02:28+0100
; FORMAT={-:-/ absolute / inch / decimal}
; #@! TF.CreationDate,2025-01-22T13:02:28+01:00
; #@! TF.GenerationSoftware,Kicad,Pcbnew,8.0.8
; #@! TF.FileFunction,MixedPlating,1,2
FMAT,2
INCH
; #@! TA.AperFunction,Plated,PTH,ComponentDrill
T1C0.0276
; #@! TA.AperFunction,Plated,PTH,ComponentDrill
T2C0.0300
; #@! TA.AperFunction,Plated,PTH,ComponentDrill
T3C0.0315
; #@! TA.AperFunction,Plated,PTH,ComponentDrill
T4C0.0354
; #@! TA.AperFunction,Plated,PTH,ComponentDrill
T5C0.0394
; #@! TA.AperFunction,Plated,PTH,ComponentDrill
T6C0.0400
; #@! TA.AperFunction,Plated,PTH,ComponentDrill
T7C0.0591
; #@! TA.AperFunction,Plated,PTH,ComponentDrill
T8C0.0669
; #@! TA.AperFunction,NonPlated,NPTH,ComponentDrill
T9C0.1260
%
G90
G05
T1
X5.5906Y-2.9921
X5.5906Y-3.1921
T2
X5.6102Y-4.5276
X5.7087Y-4.5276
X5.8071Y-4.5276
T3
X5.4724Y-3.8189
X5.5512Y-3.8189
X5.6299Y-3.8189
X5.7087Y-3.8189
X5.7874Y-3.8189
X5.8661Y-3.8189
X5.9449Y-3.8189
X6.0236Y-3.8189
T4
X5.4724Y-2.874
X5.5724Y-2.874
T5
X4.8425Y-3.1102
X4.8425Y-3.3858
X4.8425Y-3.6614
X4.9425Y-3.1102
X4.9425Y-3.3858
X4.9425Y-3.6614
X5.0425Y-3.1102
X5.0425Y-3.3858
X5.0425Y-3.6614
X5.1425Y-3.1102
X5.1425Y-3.3858
X5.1425Y-3.6614
T6
X5.315Y-3.0315
X5.315Y-3.1315
X5.315Y-3.2315
X5.315Y-3.3315
X5.315Y-3.4315
X5.315Y-3.5315
X5.315Y-3.6315
X5.315Y-3.7315
X6.215Y-3.0315
X6.215Y-3.1315
X6.215Y-3.2315
X6.215Y-3.3315
X6.215Y-3.4315
X6.215Y-3.5315
X6.215Y-3.6315
X6.215Y-3.7315
T7
X4.9819Y-4.1551
T8
X4.8819Y-4.0551
X4.8819Y-4.2551
X5.0819Y-4.0551
X5.0819Y-4.2551
T9
X4.8819Y-2.7362
X4.8819Y-4.5079
X6.2402Y-2.7362
X6.2402Y-4.5079
M30
