%TF.GenerationSoftware,KiCad,Pcbnew,8.0.8*%
%TF.CreationDate,2025-01-22T13:02:24+01:00*%
%TF.ProjectId,Peerhof-Uni-CC1101 Light,50656572-686f-4662-9d55-6e692d434331,rev?*%
%TF.SameCoordinates,Original*%
%TF.FileFunction,Copper,L1,Top*%
%TF.FilePolarity,Positive*%
%FSLAX46Y46*%
G04 Gerber Fmt 4.6, Leading zero omitted, Abs format (unit mm)*
G04 Created by KiCad (PCBNEW 8.0.8) date 2025-01-22 13:02:24*
%MOMM*%
%LPD*%
G01*
G04 APERTURE LIST*
%TA.AperFunction,ComponentPad*%
%ADD10C,2.050000*%
%TD*%
%TA.AperFunction,ComponentPad*%
%ADD11C,2.250000*%
%TD*%
%TA.AperFunction,ConnectorPad*%
%ADD12R,1.350000X1.800000*%
%TD*%
%TA.AperFunction,ComponentPad*%
%ADD13C,1.524000*%
%TD*%
%TA.AperFunction,ComponentPad*%
%ADD14C,1.350000*%
%TD*%
%TA.AperFunction,ComponentPad*%
%ADD15C,1.800000*%
%TD*%
%TA.AperFunction,ComponentPad*%
%ADD16C,1.400000*%
%TD*%
%TA.AperFunction,ComponentPad*%
%ADD17O,1.400000X1.400000*%
%TD*%
%TA.AperFunction,ComponentPad*%
%ADD18R,1.700000X1.700000*%
%TD*%
%TA.AperFunction,ComponentPad*%
%ADD19O,1.700000X1.700000*%
%TD*%
%TA.AperFunction,ComponentPad*%
%ADD20R,1.800000X1.800000*%
%TD*%
%TA.AperFunction,Conductor*%
%ADD21C,0.250000*%
%TD*%
%TA.AperFunction,Conductor*%
%ADD22C,0.500000*%
%TD*%
%TA.AperFunction,Conductor*%
%ADD23C,1.500000*%
%TD*%
G04 APERTURE END LIST*
D10*
%TO.P,AE1,1,A*%
%TO.N,Net-(AE1-A)*%
X126540000Y-105540000D03*
D11*
%TO.P,AE1,2,Shield*%
%TO.N,GND*%
X124000000Y-103000000D03*
X124000000Y-108080000D03*
X129080000Y-103000000D03*
X129080000Y-108080000D03*
%TD*%
D12*
%TO.P,U2,11,GND*%
%TO.N,GND*%
X142500000Y-115762000D03*
D13*
X142500000Y-115000000D03*
D12*
%TO.P,U2,10,Antenna*%
%TO.N,Net-(AE1-A)*%
X145000000Y-115762000D03*
D13*
X145000000Y-115000000D03*
D12*
%TO.P,U2,9,GND*%
%TO.N,GND*%
X147500000Y-115762000D03*
D13*
X147500000Y-115000000D03*
D14*
%TO.P,U2,8,CSN*%
%TO.N,D8*%
X139000000Y-97000000D03*
D12*
X139000000Y-96000000D03*
D14*
%TO.P,U2,7,GDO0*%
%TO.N,D2*%
X141000000Y-97000000D03*
D12*
X141000000Y-96000000D03*
D14*
%TO.P,U2,6,GDO2*%
%TO.N,unconnected-(U2-GDO2-Pad6)_0*%
X143000000Y-97000000D03*
D12*
%TO.N,unconnected-(U2-GDO2-Pad6)*%
X143000000Y-96000000D03*
D14*
%TO.P,U2,5,MISO*%
%TO.N,D6*%
X145000000Y-97000000D03*
D12*
X145000000Y-96000000D03*
D14*
%TO.P,U2,4,SCLK*%
%TO.N,D5*%
X147000000Y-97000000D03*
D12*
X147000000Y-96000000D03*
D14*
%TO.P,U2,3,MOSI*%
%TO.N,D7*%
X149000000Y-97000000D03*
D12*
X149000000Y-96000000D03*
D14*
%TO.P,U2,2,GND*%
%TO.N,GND*%
X151000000Y-97000000D03*
D12*
X151000000Y-96000000D03*
D14*
%TO.P,U2,1,VCC*%
%TO.N,+3.3V*%
X153000000Y-97000000D03*
D12*
X153000000Y-96000000D03*
%TD*%
D15*
%TO.P,U3,1,Rst*%
%TO.N,RST*%
X157860000Y-94780000D03*
%TO.P,U3,2,A0*%
%TO.N,A0*%
X157860000Y-92240000D03*
%TO.P,U3,3,D0*%
%TO.N,D0*%
X157860000Y-89700000D03*
%TO.P,U3,4,D5*%
%TO.N,D5*%
X157860000Y-87160000D03*
%TO.P,U3,5,D6*%
%TO.N,D6*%
X157860000Y-84620000D03*
%TO.P,U3,6,D7*%
%TO.N,D7*%
X157860000Y-82080000D03*
%TO.P,U3,7,D8*%
%TO.N,D8*%
X157860000Y-79540000D03*
%TO.P,U3,8,3.3V*%
%TO.N,+3.3V*%
X157860000Y-77000000D03*
%TO.P,U3,9,5V*%
%TO.N,+5V*%
X135000000Y-77000000D03*
%TO.P,U3,10,GND*%
%TO.N,GND*%
X135000000Y-79540000D03*
%TO.P,U3,11,D4*%
%TO.N,D4*%
X135000000Y-82080000D03*
%TO.P,U3,12,D3*%
%TO.N,D3*%
X135000000Y-84620000D03*
%TO.P,U3,13,D2*%
%TO.N,D2*%
X135000000Y-87160000D03*
%TO.P,U3,14,D1*%
%TO.N,D1*%
X135000000Y-89700000D03*
%TO.P,U3,15,Rx*%
%TO.N,Rx*%
X135000000Y-92240000D03*
%TO.P,U3,16,Tx*%
%TO.N,Tx*%
X135000000Y-94780000D03*
%TD*%
D16*
%TO.P,R1,1*%
%TO.N,Net-(D1-A)*%
X142000000Y-76000000D03*
D17*
%TO.P,R1,2*%
%TO.N,D4*%
X142000000Y-81080000D03*
%TD*%
D18*
%TO.P,J2,1,Pin_1*%
%TO.N,+5V*%
X130620000Y-86000000D03*
D19*
%TO.P,J2,2,Pin_2*%
%TO.N,GND*%
X128080000Y-86000000D03*
%TO.P,J2,3,Pin_3*%
%TO.N,D1*%
X125540000Y-86000000D03*
%TO.P,J2,4,Pin_4*%
%TO.N,D3*%
X123000000Y-86000000D03*
%TD*%
D18*
%TO.P,J7,1,Pin_1*%
%TO.N,+5V*%
X130620000Y-79000000D03*
D19*
%TO.P,J7,2,Pin_2*%
%TO.N,GND*%
X128080000Y-79000000D03*
%TO.P,J7,3,Pin_3*%
%TO.N,unconnected-(J7-Pin_3-Pad3)*%
X125540000Y-79000000D03*
%TO.P,J7,4,Pin_4*%
%TO.N,D4*%
X123000000Y-79000000D03*
%TD*%
D18*
%TO.P,J4,1,Pin_1*%
%TO.N,+3.3V*%
X130620000Y-93000000D03*
D19*
%TO.P,J4,2,Pin_2*%
%TO.N,GND*%
X128080000Y-93000000D03*
%TO.P,J4,3,Pin_3*%
%TO.N,Tx*%
X125540000Y-93000000D03*
%TO.P,J4,4,Pin_4*%
%TO.N,Rx*%
X123000000Y-93000000D03*
%TD*%
D20*
%TO.P,D1,1,K*%
%TO.N,GND*%
X139000000Y-73000000D03*
D15*
%TO.P,D1,2,A*%
%TO.N,Net-(D1-A)*%
X141540000Y-73000000D03*
%TD*%
D21*
%TO.N,D1*%
X121601742Y-87756632D02*
X122845110Y-89000000D01*
X134300000Y-89000000D02*
X135000000Y-89700000D01*
X122845110Y-89000000D02*
X134300000Y-89000000D01*
X125540000Y-84540000D02*
X125000000Y-84000000D01*
X121601742Y-84611693D02*
X121601742Y-87756632D01*
X122213435Y-84000000D02*
X121601742Y-84611693D01*
X125000000Y-84000000D02*
X122213435Y-84000000D01*
X125540000Y-86000000D02*
X125540000Y-84540000D01*
%TO.N,D3*%
X133000000Y-86620000D02*
X135000000Y-84620000D01*
X125000000Y-88000000D02*
X132000000Y-88000000D01*
X133000000Y-87000000D02*
X133000000Y-86620000D01*
X123000000Y-86000000D02*
X125000000Y-88000000D01*
X132000000Y-88000000D02*
X133000000Y-87000000D01*
%TO.N,D4*%
X125080000Y-82080000D02*
X135000000Y-82080000D01*
X135000000Y-82080000D02*
X141000000Y-82080000D01*
X123000000Y-80000000D02*
X125080000Y-82080000D01*
X123000000Y-79000000D02*
X123000000Y-80000000D01*
X141000000Y-82080000D02*
X142000000Y-81080000D01*
%TO.N,D6*%
X145000000Y-88000000D02*
X145000000Y-96000000D01*
X157860000Y-84620000D02*
X148380000Y-84620000D01*
X148380000Y-84620000D02*
X145000000Y-88000000D01*
D22*
%TO.N,+3.3V*%
X132000000Y-99000000D02*
X130620000Y-97620000D01*
X130620000Y-97620000D02*
X130620000Y-93000000D01*
X158860000Y-77340000D02*
X160353696Y-78833696D01*
X160353696Y-96646304D02*
X159000000Y-98000000D01*
X153000000Y-98000000D02*
X152000000Y-99000000D01*
X160353696Y-78833696D02*
X160353696Y-96646304D01*
X159000000Y-98000000D02*
X154000000Y-98000000D01*
X153000000Y-97000000D02*
X153000000Y-98000000D01*
X152000000Y-99000000D02*
X132000000Y-99000000D01*
X154000000Y-98000000D02*
X153000000Y-97000000D01*
D21*
%TO.N,Tx*%
X126000000Y-91000000D02*
X132000000Y-91000000D01*
X132000000Y-91780000D02*
X135000000Y-94780000D01*
X132000000Y-91000000D02*
X132000000Y-91780000D01*
X125540000Y-91460000D02*
X126000000Y-91000000D01*
X125540000Y-93000000D02*
X125540000Y-91460000D01*
%TO.N,D8*%
X139000000Y-92000000D02*
X148000000Y-83000000D01*
X139000000Y-96000000D02*
X139000000Y-92000000D01*
X148000000Y-83000000D02*
X152000000Y-83000000D01*
X155460000Y-79540000D02*
X157860000Y-79540000D01*
X152000000Y-83000000D02*
X155460000Y-79540000D01*
%TO.N,Rx*%
X123000000Y-93000000D02*
X123000000Y-91000000D01*
X132760000Y-90000000D02*
X135000000Y-92240000D01*
X123000000Y-91000000D02*
X124000000Y-90000000D01*
X124000000Y-90000000D02*
X132760000Y-90000000D01*
D23*
%TO.N,Net-(AE1-A)*%
X142540000Y-105540000D02*
X126540000Y-105540000D01*
X145000000Y-108000000D02*
X142540000Y-105540000D01*
X145000000Y-115762000D02*
X145000000Y-108000000D01*
D21*
%TO.N,D5*%
X147000000Y-88497927D02*
X147000000Y-96000000D01*
X148337927Y-87160000D02*
X147000000Y-88497927D01*
X157860000Y-87160000D02*
X148337927Y-87160000D01*
%TD*%
M02*
