%TF.GenerationSoftware,KiCad,Pcbnew,8.0.8*%
%TF.CreationDate,2025-01-22T13:02:25+01:00*%
%TF.ProjectId,Peerhof-Uni-CC1101 Light,50656572-686f-4662-9d55-6e692d434331,rev?*%
%TF.SameCoordinates,Original*%
%TF.FileFunction,Soldermask,Bot*%
%TF.FilePolarity,Negative*%
%FSLAX46Y46*%
G04 Gerber Fmt 4.6, Leading zero omitted, Abs format (unit mm)*
G04 Created by KiCad (PCBNEW 8.0.8) date 2025-01-22 13:02:25*
%MOMM*%
%LPD*%
G01*
G04 APERTURE LIST*
%ADD10C,2.050000*%
%ADD11C,2.250000*%
%ADD12C,1.524000*%
%ADD13C,1.350000*%
%ADD14C,1.800000*%
%ADD15C,3.200000*%
%ADD16C,1.400000*%
%ADD17O,1.400000X1.400000*%
%ADD18R,1.700000X1.700000*%
%ADD19O,1.700000X1.700000*%
%ADD20R,1.800000X1.800000*%
G04 APERTURE END LIST*
D10*
%TO.C,AE1*%
X126540000Y-105540000D03*
D11*
X124000000Y-103000000D03*
X124000000Y-108080000D03*
X129080000Y-103000000D03*
X129080000Y-108080000D03*
%TD*%
D12*
%TO.C,U2*%
X142500000Y-115000000D03*
X145000000Y-115000000D03*
X147500000Y-115000000D03*
D13*
X139000000Y-97000000D03*
X141000000Y-97000000D03*
X143000000Y-97000000D03*
X145000000Y-97000000D03*
X147000000Y-97000000D03*
X149000000Y-97000000D03*
X151000000Y-97000000D03*
X153000000Y-97000000D03*
%TD*%
D14*
%TO.C,U3*%
X157860000Y-94780000D03*
X157860000Y-92240000D03*
X157860000Y-89700000D03*
X157860000Y-87160000D03*
X157860000Y-84620000D03*
X157860000Y-82080000D03*
X157860000Y-79540000D03*
X157860000Y-77000000D03*
X135000000Y-77000000D03*
X135000000Y-79540000D03*
X135000000Y-82080000D03*
X135000000Y-84620000D03*
X135000000Y-87160000D03*
X135000000Y-89700000D03*
X135000000Y-92240000D03*
X135000000Y-94780000D03*
%TD*%
D15*
%TO.C,REF\u002A\u002A*%
X124000000Y-114500000D03*
%TD*%
D16*
%TO.C,R1*%
X142000000Y-76000000D03*
D17*
X142000000Y-81080000D03*
%TD*%
D15*
%TO.C,REF\u002A\u002A*%
X158500000Y-114500000D03*
%TD*%
D18*
%TO.C,J2*%
X130620000Y-86000000D03*
D19*
X128080000Y-86000000D03*
X125540000Y-86000000D03*
X123000000Y-86000000D03*
%TD*%
D15*
%TO.C,REF\u002A\u002A*%
X158500000Y-69500000D03*
%TD*%
%TO.C,REF\u002A\u002A*%
X124000000Y-69500000D03*
%TD*%
D18*
%TO.C,J7*%
X130620000Y-79000000D03*
D19*
X128080000Y-79000000D03*
X125540000Y-79000000D03*
X123000000Y-79000000D03*
%TD*%
D18*
%TO.C,J4*%
X130620000Y-93000000D03*
D19*
X128080000Y-93000000D03*
X125540000Y-93000000D03*
X123000000Y-93000000D03*
%TD*%
D20*
%TO.C,D1*%
X139000000Y-73000000D03*
D14*
X141540000Y-73000000D03*
%TD*%
M02*
