%TF.GenerationSoftware,KiCad,Pcbnew,8.0.8*%
%TF.CreationDate,2025-01-22T13:02:32+01:00*%
%TF.ProjectId,Peerhof-Uni-CC1101 Light,50656572-686f-4662-9d55-6e692d434331,rev?*%
%TF.SameCoordinates,Original*%
%TF.FileFunction,Drillmap*%
%TF.FilePolarity,Positive*%
%FSLAX45Y45*%
G04 Gerber Fmt 4.5, Leading zero omitted, Abs format (unit mm)*
G04 Created by KiCad (PCBNEW 8.0.8) date 2025-01-22 13:02:32*
%MOMM*%
%LPD*%
G01*
G04 APERTURE LIST*
%ADD10C,0.100000*%
%ADD11C,0.200000*%
%ADD12C,0.101600*%
%ADD13C,0.150000*%
%ADD14C,0.170000*%
%ADD15C,0.320000*%
G04 APERTURE END LIST*
D10*
X12100000Y-6700000D02*
X16100000Y-6700000D01*
X16100000Y-11700000D01*
X12100000Y-11700000D01*
X12100000Y-6700000D01*
D11*
D10*
X14165000Y-7565000D02*
X14235000Y-7635000D01*
X14235000Y-7565000D02*
X14165000Y-7635000D01*
X14165000Y-8073000D02*
X14235000Y-8143000D01*
X14235000Y-8073000D02*
X14165000Y-8143000D01*
X14288100Y-11500000D02*
G75*
G02*
X14211900Y-11500000I-38100J0D01*
G01*
X14211900Y-11500000D02*
G75*
G02*
X14288100Y-11500000I38100J0D01*
G01*
X14538100Y-11500000D02*
G75*
G02*
X14461900Y-11500000I-38100J0D01*
G01*
X14461900Y-11500000D02*
G75*
G02*
X14538100Y-11500000I38100J0D01*
G01*
X14788100Y-11500000D02*
G75*
G02*
X14711900Y-11500000I-38100J0D01*
G01*
X14711900Y-11500000D02*
G75*
G02*
X14788100Y-11500000I38100J0D01*
G01*
X13900000Y-9660000D02*
X13900000Y-9740000D01*
X13860000Y-9700000D02*
X13940000Y-9700000D01*
X14100000Y-9660000D02*
X14100000Y-9740000D01*
X14060000Y-9700000D02*
X14140000Y-9700000D01*
X14300000Y-9660000D02*
X14300000Y-9740000D01*
X14260000Y-9700000D02*
X14340000Y-9700000D01*
X14500000Y-9660000D02*
X14500000Y-9740000D01*
X14460000Y-9700000D02*
X14540000Y-9700000D01*
X14700000Y-9660000D02*
X14700000Y-9740000D01*
X14660000Y-9700000D02*
X14740000Y-9700000D01*
X14900000Y-9660000D02*
X14900000Y-9740000D01*
X14860000Y-9700000D02*
X14940000Y-9700000D01*
X15100000Y-9660000D02*
X15100000Y-9740000D01*
X15060000Y-9700000D02*
X15140000Y-9700000D01*
X15300000Y-9660000D02*
X15300000Y-9740000D01*
X15260000Y-9700000D02*
X15340000Y-9700000D01*
X13931820Y-7331820D02*
X13931820Y-7268180D01*
X13868180Y-7268180D01*
X13868180Y-7331820D01*
X13931820Y-7331820D01*
X14185820Y-7331820D02*
X14185820Y-7268180D01*
X14122180Y-7268180D01*
X14122180Y-7331820D01*
X14185820Y-7331820D01*
X12300000Y-7950000D02*
X12350000Y-7900000D01*
X12300000Y-7850000D01*
X12250000Y-7900000D01*
X12300000Y-7950000D01*
X12300000Y-8650000D02*
X12350000Y-8600000D01*
X12300000Y-8550000D01*
X12250000Y-8600000D01*
X12300000Y-8650000D01*
X12300000Y-9350000D02*
X12350000Y-9300000D01*
X12300000Y-9250000D01*
X12250000Y-9300000D01*
X12300000Y-9350000D01*
X12554000Y-7950000D02*
X12604000Y-7900000D01*
X12554000Y-7850000D01*
X12504000Y-7900000D01*
X12554000Y-7950000D01*
X12554000Y-8650000D02*
X12604000Y-8600000D01*
X12554000Y-8550000D01*
X12504000Y-8600000D01*
X12554000Y-8650000D01*
X12554000Y-9350000D02*
X12604000Y-9300000D01*
X12554000Y-9250000D01*
X12504000Y-9300000D01*
X12554000Y-9350000D01*
X12808000Y-7950000D02*
X12858000Y-7900000D01*
X12808000Y-7850000D01*
X12758000Y-7900000D01*
X12808000Y-7950000D01*
X12808000Y-8650000D02*
X12858000Y-8600000D01*
X12808000Y-8550000D01*
X12758000Y-8600000D01*
X12808000Y-8650000D01*
X12808000Y-9350000D02*
X12858000Y-9300000D01*
X12808000Y-9250000D01*
X12758000Y-9300000D01*
X12808000Y-9350000D01*
X13062000Y-7950000D02*
X13112000Y-7900000D01*
X13062000Y-7850000D01*
X13012000Y-7900000D01*
X13062000Y-7950000D01*
X13062000Y-8650000D02*
X13112000Y-8600000D01*
X13062000Y-8550000D01*
X13012000Y-8600000D01*
X13062000Y-8650000D01*
X13062000Y-9350000D02*
X13112000Y-9300000D01*
X13062000Y-9250000D01*
X13012000Y-9300000D01*
X13062000Y-9350000D01*
D12*
X13449200Y-7649200D02*
X13550800Y-7750800D01*
X13550800Y-7649200D02*
X13449200Y-7750800D01*
X13550800Y-7700000D02*
G75*
G02*
X13449200Y-7700000I-50800J0D01*
G01*
X13449200Y-7700000D02*
G75*
G02*
X13550800Y-7700000I50800J0D01*
G01*
X13449200Y-7903200D02*
X13550800Y-8004800D01*
X13550800Y-7903200D02*
X13449200Y-8004800D01*
X13550800Y-7954000D02*
G75*
G02*
X13449200Y-7954000I-50800J0D01*
G01*
X13449200Y-7954000D02*
G75*
G02*
X13550800Y-7954000I50800J0D01*
G01*
X13449200Y-8157200D02*
X13550800Y-8258800D01*
X13550800Y-8157200D02*
X13449200Y-8258800D01*
X13550800Y-8208000D02*
G75*
G02*
X13449200Y-8208000I-50800J0D01*
G01*
X13449200Y-8208000D02*
G75*
G02*
X13550800Y-8208000I50800J0D01*
G01*
X13449200Y-8411200D02*
X13550800Y-8512800D01*
X13550800Y-8411200D02*
X13449200Y-8512800D01*
X13550800Y-8462000D02*
G75*
G02*
X13449200Y-8462000I-50800J0D01*
G01*
X13449200Y-8462000D02*
G75*
G02*
X13550800Y-8462000I50800J0D01*
G01*
X13449200Y-8665200D02*
X13550800Y-8766800D01*
X13550800Y-8665200D02*
X13449200Y-8766800D01*
X13550800Y-8716000D02*
G75*
G02*
X13449200Y-8716000I-50800J0D01*
G01*
X13449200Y-8716000D02*
G75*
G02*
X13550800Y-8716000I50800J0D01*
G01*
X13449200Y-8919200D02*
X13550800Y-9020800D01*
X13550800Y-8919200D02*
X13449200Y-9020800D01*
X13550800Y-8970000D02*
G75*
G02*
X13449200Y-8970000I-50800J0D01*
G01*
X13449200Y-8970000D02*
G75*
G02*
X13550800Y-8970000I50800J0D01*
G01*
X13449200Y-9173200D02*
X13550800Y-9274800D01*
X13550800Y-9173200D02*
X13449200Y-9274800D01*
X13550800Y-9224000D02*
G75*
G02*
X13449200Y-9224000I-50800J0D01*
G01*
X13449200Y-9224000D02*
G75*
G02*
X13550800Y-9224000I50800J0D01*
G01*
X13449200Y-9427200D02*
X13550800Y-9528800D01*
X13550800Y-9427200D02*
X13449200Y-9528800D01*
X13550800Y-9478000D02*
G75*
G02*
X13449200Y-9478000I-50800J0D01*
G01*
X13449200Y-9478000D02*
G75*
G02*
X13550800Y-9478000I50800J0D01*
G01*
X15735200Y-7649200D02*
X15836800Y-7750800D01*
X15836800Y-7649200D02*
X15735200Y-7750800D01*
X15836800Y-7700000D02*
G75*
G02*
X15735200Y-7700000I-50800J0D01*
G01*
X15735200Y-7700000D02*
G75*
G02*
X15836800Y-7700000I50800J0D01*
G01*
X15735200Y-7903200D02*
X15836800Y-8004800D01*
X15836800Y-7903200D02*
X15735200Y-8004800D01*
X15836800Y-7954000D02*
G75*
G02*
X15735200Y-7954000I-50800J0D01*
G01*
X15735200Y-7954000D02*
G75*
G02*
X15836800Y-7954000I50800J0D01*
G01*
X15735200Y-8157200D02*
X15836800Y-8258800D01*
X15836800Y-8157200D02*
X15735200Y-8258800D01*
X15836800Y-8208000D02*
G75*
G02*
X15735200Y-8208000I-50800J0D01*
G01*
X15735200Y-8208000D02*
G75*
G02*
X15836800Y-8208000I50800J0D01*
G01*
X15735200Y-8411200D02*
X15836800Y-8512800D01*
X15836800Y-8411200D02*
X15735200Y-8512800D01*
X15836800Y-8462000D02*
G75*
G02*
X15735200Y-8462000I-50800J0D01*
G01*
X15735200Y-8462000D02*
G75*
G02*
X15836800Y-8462000I50800J0D01*
G01*
X15735200Y-8665200D02*
X15836800Y-8766800D01*
X15836800Y-8665200D02*
X15735200Y-8766800D01*
X15836800Y-8716000D02*
G75*
G02*
X15735200Y-8716000I-50800J0D01*
G01*
X15735200Y-8716000D02*
G75*
G02*
X15836800Y-8716000I50800J0D01*
G01*
X15735200Y-8919200D02*
X15836800Y-9020800D01*
X15836800Y-8919200D02*
X15735200Y-9020800D01*
X15836800Y-8970000D02*
G75*
G02*
X15735200Y-8970000I-50800J0D01*
G01*
X15735200Y-8970000D02*
G75*
G02*
X15836800Y-8970000I50800J0D01*
G01*
X15735200Y-9173200D02*
X15836800Y-9274800D01*
X15836800Y-9173200D02*
X15735200Y-9274800D01*
X15836800Y-9224000D02*
G75*
G02*
X15735200Y-9224000I-50800J0D01*
G01*
X15735200Y-9224000D02*
G75*
G02*
X15836800Y-9224000I50800J0D01*
G01*
X15735200Y-9427200D02*
X15836800Y-9528800D01*
X15836800Y-9427200D02*
X15735200Y-9528800D01*
X15836800Y-9478000D02*
G75*
G02*
X15735200Y-9478000I-50800J0D01*
G01*
X15735200Y-9478000D02*
G75*
G02*
X15836800Y-9478000I50800J0D01*
G01*
D13*
X12579000Y-10479000D02*
X12729000Y-10629000D01*
X12729000Y-10479000D02*
X12579000Y-10629000D01*
X12654000Y-10479000D02*
X12654000Y-10629000D01*
X12579000Y-10554000D02*
X12729000Y-10554000D01*
D14*
X12315000Y-10215000D02*
X12485000Y-10385000D01*
X12485000Y-10215000D02*
X12315000Y-10385000D01*
X12460105Y-10360105D02*
X12460105Y-10239895D01*
X12339895Y-10239895D01*
X12339895Y-10360105D01*
X12460105Y-10360105D01*
X12315000Y-10723000D02*
X12485000Y-10893000D01*
X12485000Y-10723000D02*
X12315000Y-10893000D01*
X12460105Y-10868105D02*
X12460105Y-10747895D01*
X12339895Y-10747895D01*
X12339895Y-10868105D01*
X12460105Y-10868105D01*
X12823000Y-10215000D02*
X12993000Y-10385000D01*
X12993000Y-10215000D02*
X12823000Y-10385000D01*
X12968105Y-10360105D02*
X12968105Y-10239895D01*
X12847895Y-10239895D01*
X12847895Y-10360105D01*
X12968105Y-10360105D01*
X12823000Y-10723000D02*
X12993000Y-10893000D01*
X12993000Y-10723000D02*
X12823000Y-10893000D01*
X12968105Y-10868105D02*
X12968105Y-10747895D01*
X12847895Y-10747895D01*
X12847895Y-10868105D01*
X12968105Y-10868105D01*
D15*
X12240000Y-6790000D02*
X12560000Y-7110000D01*
X12560000Y-6790000D02*
X12240000Y-7110000D01*
X12400000Y-7110000D02*
X12560000Y-6950000D01*
X12400000Y-6790000D01*
X12240000Y-6950000D01*
X12400000Y-7110000D01*
X12240000Y-11290000D02*
X12560000Y-11610000D01*
X12560000Y-11290000D02*
X12240000Y-11610000D01*
X12400000Y-11610000D02*
X12560000Y-11450000D01*
X12400000Y-11290000D01*
X12240000Y-11450000D01*
X12400000Y-11610000D01*
X15690000Y-6790000D02*
X16010000Y-7110000D01*
X16010000Y-6790000D02*
X15690000Y-7110000D01*
X15850000Y-7110000D02*
X16010000Y-6950000D01*
X15850000Y-6790000D01*
X15690000Y-6950000D01*
X15850000Y-7110000D01*
X15690000Y-11290000D02*
X16010000Y-11610000D01*
X16010000Y-11290000D02*
X15690000Y-11610000D01*
X15850000Y-11610000D02*
X16010000Y-11450000D01*
X15850000Y-11290000D01*
X15690000Y-11450000D01*
X15850000Y-11610000D01*
D11*
X12355777Y-12016484D02*
X12355777Y-11816484D01*
X12355777Y-11816484D02*
X12403396Y-11816484D01*
X12403396Y-11816484D02*
X12431967Y-11826008D01*
X12431967Y-11826008D02*
X12451015Y-11845055D01*
X12451015Y-11845055D02*
X12460539Y-11864103D01*
X12460539Y-11864103D02*
X12470062Y-11902198D01*
X12470062Y-11902198D02*
X12470062Y-11930769D01*
X12470062Y-11930769D02*
X12460539Y-11968865D01*
X12460539Y-11968865D02*
X12451015Y-11987912D01*
X12451015Y-11987912D02*
X12431967Y-12006960D01*
X12431967Y-12006960D02*
X12403396Y-12016484D01*
X12403396Y-12016484D02*
X12355777Y-12016484D01*
X12555777Y-12016484D02*
X12555777Y-11883150D01*
X12555777Y-11921246D02*
X12565301Y-11902198D01*
X12565301Y-11902198D02*
X12574824Y-11892674D01*
X12574824Y-11892674D02*
X12593872Y-11883150D01*
X12593872Y-11883150D02*
X12612920Y-11883150D01*
X12679586Y-12016484D02*
X12679586Y-11883150D01*
X12679586Y-11816484D02*
X12670062Y-11826008D01*
X12670062Y-11826008D02*
X12679586Y-11835531D01*
X12679586Y-11835531D02*
X12689110Y-11826008D01*
X12689110Y-11826008D02*
X12679586Y-11816484D01*
X12679586Y-11816484D02*
X12679586Y-11835531D01*
X12803396Y-12016484D02*
X12784348Y-12006960D01*
X12784348Y-12006960D02*
X12774824Y-11987912D01*
X12774824Y-11987912D02*
X12774824Y-11816484D01*
X12908158Y-12016484D02*
X12889110Y-12006960D01*
X12889110Y-12006960D02*
X12879586Y-11987912D01*
X12879586Y-11987912D02*
X12879586Y-11816484D01*
X13136729Y-12016484D02*
X13136729Y-11816484D01*
X13136729Y-11816484D02*
X13203396Y-11959341D01*
X13203396Y-11959341D02*
X13270062Y-11816484D01*
X13270062Y-11816484D02*
X13270062Y-12016484D01*
X13451015Y-12016484D02*
X13451015Y-11911722D01*
X13451015Y-11911722D02*
X13441491Y-11892674D01*
X13441491Y-11892674D02*
X13422443Y-11883150D01*
X13422443Y-11883150D02*
X13384348Y-11883150D01*
X13384348Y-11883150D02*
X13365301Y-11892674D01*
X13451015Y-12006960D02*
X13431967Y-12016484D01*
X13431967Y-12016484D02*
X13384348Y-12016484D01*
X13384348Y-12016484D02*
X13365301Y-12006960D01*
X13365301Y-12006960D02*
X13355777Y-11987912D01*
X13355777Y-11987912D02*
X13355777Y-11968865D01*
X13355777Y-11968865D02*
X13365301Y-11949817D01*
X13365301Y-11949817D02*
X13384348Y-11940293D01*
X13384348Y-11940293D02*
X13431967Y-11940293D01*
X13431967Y-11940293D02*
X13451015Y-11930769D01*
X13546253Y-11883150D02*
X13546253Y-12083150D01*
X13546253Y-11892674D02*
X13565301Y-11883150D01*
X13565301Y-11883150D02*
X13603396Y-11883150D01*
X13603396Y-11883150D02*
X13622443Y-11892674D01*
X13622443Y-11892674D02*
X13631967Y-11902198D01*
X13631967Y-11902198D02*
X13641491Y-11921246D01*
X13641491Y-11921246D02*
X13641491Y-11978388D01*
X13641491Y-11978388D02*
X13631967Y-11997436D01*
X13631967Y-11997436D02*
X13622443Y-12006960D01*
X13622443Y-12006960D02*
X13603396Y-12016484D01*
X13603396Y-12016484D02*
X13565301Y-12016484D01*
X13565301Y-12016484D02*
X13546253Y-12006960D01*
X13727205Y-11997436D02*
X13736729Y-12006960D01*
X13736729Y-12006960D02*
X13727205Y-12016484D01*
X13727205Y-12016484D02*
X13717682Y-12006960D01*
X13717682Y-12006960D02*
X13727205Y-11997436D01*
X13727205Y-11997436D02*
X13727205Y-12016484D01*
X13727205Y-11892674D02*
X13736729Y-11902198D01*
X13736729Y-11902198D02*
X13727205Y-11911722D01*
X13727205Y-11911722D02*
X13717682Y-11902198D01*
X13717682Y-11902198D02*
X13727205Y-11892674D01*
X13727205Y-11892674D02*
X13727205Y-11911722D01*
D10*
X12025000Y-12310000D02*
X12095000Y-12380000D01*
X12095000Y-12310000D02*
X12025000Y-12380000D01*
D11*
X12393872Y-12236484D02*
X12412920Y-12236484D01*
X12412920Y-12236484D02*
X12431967Y-12246008D01*
X12431967Y-12246008D02*
X12441491Y-12255531D01*
X12441491Y-12255531D02*
X12451015Y-12274579D01*
X12451015Y-12274579D02*
X12460539Y-12312674D01*
X12460539Y-12312674D02*
X12460539Y-12360293D01*
X12460539Y-12360293D02*
X12451015Y-12398388D01*
X12451015Y-12398388D02*
X12441491Y-12417436D01*
X12441491Y-12417436D02*
X12431967Y-12426960D01*
X12431967Y-12426960D02*
X12412920Y-12436484D01*
X12412920Y-12436484D02*
X12393872Y-12436484D01*
X12393872Y-12436484D02*
X12374824Y-12426960D01*
X12374824Y-12426960D02*
X12365301Y-12417436D01*
X12365301Y-12417436D02*
X12355777Y-12398388D01*
X12355777Y-12398388D02*
X12346253Y-12360293D01*
X12346253Y-12360293D02*
X12346253Y-12312674D01*
X12346253Y-12312674D02*
X12355777Y-12274579D01*
X12355777Y-12274579D02*
X12365301Y-12255531D01*
X12365301Y-12255531D02*
X12374824Y-12246008D01*
X12374824Y-12246008D02*
X12393872Y-12236484D01*
X12546253Y-12417436D02*
X12555777Y-12426960D01*
X12555777Y-12426960D02*
X12546253Y-12436484D01*
X12546253Y-12436484D02*
X12536729Y-12426960D01*
X12536729Y-12426960D02*
X12546253Y-12417436D01*
X12546253Y-12417436D02*
X12546253Y-12436484D01*
X12622443Y-12236484D02*
X12755777Y-12236484D01*
X12755777Y-12236484D02*
X12670062Y-12436484D01*
X12870062Y-12236484D02*
X12889110Y-12236484D01*
X12889110Y-12236484D02*
X12908158Y-12246008D01*
X12908158Y-12246008D02*
X12917682Y-12255531D01*
X12917682Y-12255531D02*
X12927205Y-12274579D01*
X12927205Y-12274579D02*
X12936729Y-12312674D01*
X12936729Y-12312674D02*
X12936729Y-12360293D01*
X12936729Y-12360293D02*
X12927205Y-12398388D01*
X12927205Y-12398388D02*
X12917682Y-12417436D01*
X12917682Y-12417436D02*
X12908158Y-12426960D01*
X12908158Y-12426960D02*
X12889110Y-12436484D01*
X12889110Y-12436484D02*
X12870062Y-12436484D01*
X12870062Y-12436484D02*
X12851015Y-12426960D01*
X12851015Y-12426960D02*
X12841491Y-12417436D01*
X12841491Y-12417436D02*
X12831967Y-12398388D01*
X12831967Y-12398388D02*
X12822443Y-12360293D01*
X12822443Y-12360293D02*
X12822443Y-12312674D01*
X12822443Y-12312674D02*
X12831967Y-12274579D01*
X12831967Y-12274579D02*
X12841491Y-12255531D01*
X12841491Y-12255531D02*
X12851015Y-12246008D01*
X12851015Y-12246008D02*
X12870062Y-12236484D01*
X13060539Y-12236484D02*
X13079586Y-12236484D01*
X13079586Y-12236484D02*
X13098634Y-12246008D01*
X13098634Y-12246008D02*
X13108158Y-12255531D01*
X13108158Y-12255531D02*
X13117682Y-12274579D01*
X13117682Y-12274579D02*
X13127205Y-12312674D01*
X13127205Y-12312674D02*
X13127205Y-12360293D01*
X13127205Y-12360293D02*
X13117682Y-12398388D01*
X13117682Y-12398388D02*
X13108158Y-12417436D01*
X13108158Y-12417436D02*
X13098634Y-12426960D01*
X13098634Y-12426960D02*
X13079586Y-12436484D01*
X13079586Y-12436484D02*
X13060539Y-12436484D01*
X13060539Y-12436484D02*
X13041491Y-12426960D01*
X13041491Y-12426960D02*
X13031967Y-12417436D01*
X13031967Y-12417436D02*
X13022443Y-12398388D01*
X13022443Y-12398388D02*
X13012920Y-12360293D01*
X13012920Y-12360293D02*
X13012920Y-12312674D01*
X13012920Y-12312674D02*
X13022443Y-12274579D01*
X13022443Y-12274579D02*
X13031967Y-12255531D01*
X13031967Y-12255531D02*
X13041491Y-12246008D01*
X13041491Y-12246008D02*
X13060539Y-12236484D01*
X13212920Y-12436484D02*
X13212920Y-12303150D01*
X13212920Y-12322198D02*
X13222443Y-12312674D01*
X13222443Y-12312674D02*
X13241491Y-12303150D01*
X13241491Y-12303150D02*
X13270063Y-12303150D01*
X13270063Y-12303150D02*
X13289110Y-12312674D01*
X13289110Y-12312674D02*
X13298634Y-12331722D01*
X13298634Y-12331722D02*
X13298634Y-12436484D01*
X13298634Y-12331722D02*
X13308158Y-12312674D01*
X13308158Y-12312674D02*
X13327205Y-12303150D01*
X13327205Y-12303150D02*
X13355777Y-12303150D01*
X13355777Y-12303150D02*
X13374824Y-12312674D01*
X13374824Y-12312674D02*
X13384348Y-12331722D01*
X13384348Y-12331722D02*
X13384348Y-12436484D01*
X13479586Y-12436484D02*
X13479586Y-12303150D01*
X13479586Y-12322198D02*
X13489110Y-12312674D01*
X13489110Y-12312674D02*
X13508158Y-12303150D01*
X13508158Y-12303150D02*
X13536729Y-12303150D01*
X13536729Y-12303150D02*
X13555777Y-12312674D01*
X13555777Y-12312674D02*
X13565301Y-12331722D01*
X13565301Y-12331722D02*
X13565301Y-12436484D01*
X13565301Y-12331722D02*
X13574824Y-12312674D01*
X13574824Y-12312674D02*
X13593872Y-12303150D01*
X13593872Y-12303150D02*
X13622443Y-12303150D01*
X13622443Y-12303150D02*
X13641491Y-12312674D01*
X13641491Y-12312674D02*
X13651015Y-12331722D01*
X13651015Y-12331722D02*
X13651015Y-12436484D01*
X14041491Y-12226960D02*
X13870063Y-12484103D01*
X14298634Y-12236484D02*
X14317682Y-12236484D01*
X14317682Y-12236484D02*
X14336729Y-12246008D01*
X14336729Y-12246008D02*
X14346253Y-12255531D01*
X14346253Y-12255531D02*
X14355777Y-12274579D01*
X14355777Y-12274579D02*
X14365301Y-12312674D01*
X14365301Y-12312674D02*
X14365301Y-12360293D01*
X14365301Y-12360293D02*
X14355777Y-12398388D01*
X14355777Y-12398388D02*
X14346253Y-12417436D01*
X14346253Y-12417436D02*
X14336729Y-12426960D01*
X14336729Y-12426960D02*
X14317682Y-12436484D01*
X14317682Y-12436484D02*
X14298634Y-12436484D01*
X14298634Y-12436484D02*
X14279586Y-12426960D01*
X14279586Y-12426960D02*
X14270063Y-12417436D01*
X14270063Y-12417436D02*
X14260539Y-12398388D01*
X14260539Y-12398388D02*
X14251015Y-12360293D01*
X14251015Y-12360293D02*
X14251015Y-12312674D01*
X14251015Y-12312674D02*
X14260539Y-12274579D01*
X14260539Y-12274579D02*
X14270063Y-12255531D01*
X14270063Y-12255531D02*
X14279586Y-12246008D01*
X14279586Y-12246008D02*
X14298634Y-12236484D01*
X14451015Y-12417436D02*
X14460539Y-12426960D01*
X14460539Y-12426960D02*
X14451015Y-12436484D01*
X14451015Y-12436484D02*
X14441491Y-12426960D01*
X14441491Y-12426960D02*
X14451015Y-12417436D01*
X14451015Y-12417436D02*
X14451015Y-12436484D01*
X14584348Y-12236484D02*
X14603396Y-12236484D01*
X14603396Y-12236484D02*
X14622444Y-12246008D01*
X14622444Y-12246008D02*
X14631967Y-12255531D01*
X14631967Y-12255531D02*
X14641491Y-12274579D01*
X14641491Y-12274579D02*
X14651015Y-12312674D01*
X14651015Y-12312674D02*
X14651015Y-12360293D01*
X14651015Y-12360293D02*
X14641491Y-12398388D01*
X14641491Y-12398388D02*
X14631967Y-12417436D01*
X14631967Y-12417436D02*
X14622444Y-12426960D01*
X14622444Y-12426960D02*
X14603396Y-12436484D01*
X14603396Y-12436484D02*
X14584348Y-12436484D01*
X14584348Y-12436484D02*
X14565301Y-12426960D01*
X14565301Y-12426960D02*
X14555777Y-12417436D01*
X14555777Y-12417436D02*
X14546253Y-12398388D01*
X14546253Y-12398388D02*
X14536729Y-12360293D01*
X14536729Y-12360293D02*
X14536729Y-12312674D01*
X14536729Y-12312674D02*
X14546253Y-12274579D01*
X14546253Y-12274579D02*
X14555777Y-12255531D01*
X14555777Y-12255531D02*
X14565301Y-12246008D01*
X14565301Y-12246008D02*
X14584348Y-12236484D01*
X14727206Y-12255531D02*
X14736729Y-12246008D01*
X14736729Y-12246008D02*
X14755777Y-12236484D01*
X14755777Y-12236484D02*
X14803396Y-12236484D01*
X14803396Y-12236484D02*
X14822444Y-12246008D01*
X14822444Y-12246008D02*
X14831967Y-12255531D01*
X14831967Y-12255531D02*
X14841491Y-12274579D01*
X14841491Y-12274579D02*
X14841491Y-12293627D01*
X14841491Y-12293627D02*
X14831967Y-12322198D01*
X14831967Y-12322198D02*
X14717682Y-12436484D01*
X14717682Y-12436484D02*
X14841491Y-12436484D01*
X14908158Y-12236484D02*
X15041491Y-12236484D01*
X15041491Y-12236484D02*
X14955777Y-12436484D01*
X15203396Y-12236484D02*
X15165301Y-12236484D01*
X15165301Y-12236484D02*
X15146253Y-12246008D01*
X15146253Y-12246008D02*
X15136729Y-12255531D01*
X15136729Y-12255531D02*
X15117682Y-12284103D01*
X15117682Y-12284103D02*
X15108158Y-12322198D01*
X15108158Y-12322198D02*
X15108158Y-12398388D01*
X15108158Y-12398388D02*
X15117682Y-12417436D01*
X15117682Y-12417436D02*
X15127206Y-12426960D01*
X15127206Y-12426960D02*
X15146253Y-12436484D01*
X15146253Y-12436484D02*
X15184348Y-12436484D01*
X15184348Y-12436484D02*
X15203396Y-12426960D01*
X15203396Y-12426960D02*
X15212920Y-12417436D01*
X15212920Y-12417436D02*
X15222444Y-12398388D01*
X15222444Y-12398388D02*
X15222444Y-12350769D01*
X15222444Y-12350769D02*
X15212920Y-12331722D01*
X15212920Y-12331722D02*
X15203396Y-12322198D01*
X15203396Y-12322198D02*
X15184348Y-12312674D01*
X15184348Y-12312674D02*
X15146253Y-12312674D01*
X15146253Y-12312674D02*
X15127206Y-12322198D01*
X15127206Y-12322198D02*
X15117682Y-12331722D01*
X15117682Y-12331722D02*
X15108158Y-12350769D01*
X15298634Y-12236484D02*
X15298634Y-12274579D01*
X15374825Y-12236484D02*
X15374825Y-12274579D01*
X15670063Y-12512674D02*
X15660539Y-12503150D01*
X15660539Y-12503150D02*
X15641491Y-12474579D01*
X15641491Y-12474579D02*
X15631968Y-12455531D01*
X15631968Y-12455531D02*
X15622444Y-12426960D01*
X15622444Y-12426960D02*
X15612920Y-12379341D01*
X15612920Y-12379341D02*
X15612920Y-12341246D01*
X15612920Y-12341246D02*
X15622444Y-12293627D01*
X15622444Y-12293627D02*
X15631968Y-12265055D01*
X15631968Y-12265055D02*
X15641491Y-12246008D01*
X15641491Y-12246008D02*
X15660539Y-12217436D01*
X15660539Y-12217436D02*
X15670063Y-12207912D01*
X15736729Y-12255531D02*
X15746253Y-12246008D01*
X15746253Y-12246008D02*
X15765301Y-12236484D01*
X15765301Y-12236484D02*
X15812920Y-12236484D01*
X15812920Y-12236484D02*
X15831968Y-12246008D01*
X15831968Y-12246008D02*
X15841491Y-12255531D01*
X15841491Y-12255531D02*
X15851015Y-12274579D01*
X15851015Y-12274579D02*
X15851015Y-12293627D01*
X15851015Y-12293627D02*
X15841491Y-12322198D01*
X15841491Y-12322198D02*
X15727206Y-12436484D01*
X15727206Y-12436484D02*
X15851015Y-12436484D01*
X16089110Y-12436484D02*
X16089110Y-12236484D01*
X16174825Y-12436484D02*
X16174825Y-12331722D01*
X16174825Y-12331722D02*
X16165301Y-12312674D01*
X16165301Y-12312674D02*
X16146253Y-12303150D01*
X16146253Y-12303150D02*
X16117682Y-12303150D01*
X16117682Y-12303150D02*
X16098634Y-12312674D01*
X16098634Y-12312674D02*
X16089110Y-12322198D01*
X16298634Y-12436484D02*
X16279587Y-12426960D01*
X16279587Y-12426960D02*
X16270063Y-12417436D01*
X16270063Y-12417436D02*
X16260539Y-12398388D01*
X16260539Y-12398388D02*
X16260539Y-12341246D01*
X16260539Y-12341246D02*
X16270063Y-12322198D01*
X16270063Y-12322198D02*
X16279587Y-12312674D01*
X16279587Y-12312674D02*
X16298634Y-12303150D01*
X16298634Y-12303150D02*
X16327206Y-12303150D01*
X16327206Y-12303150D02*
X16346253Y-12312674D01*
X16346253Y-12312674D02*
X16355777Y-12322198D01*
X16355777Y-12322198D02*
X16365301Y-12341246D01*
X16365301Y-12341246D02*
X16365301Y-12398388D01*
X16365301Y-12398388D02*
X16355777Y-12417436D01*
X16355777Y-12417436D02*
X16346253Y-12426960D01*
X16346253Y-12426960D02*
X16327206Y-12436484D01*
X16327206Y-12436484D02*
X16298634Y-12436484D01*
X16479587Y-12436484D02*
X16460539Y-12426960D01*
X16460539Y-12426960D02*
X16451015Y-12407912D01*
X16451015Y-12407912D02*
X16451015Y-12236484D01*
X16631968Y-12426960D02*
X16612920Y-12436484D01*
X16612920Y-12436484D02*
X16574825Y-12436484D01*
X16574825Y-12436484D02*
X16555777Y-12426960D01*
X16555777Y-12426960D02*
X16546253Y-12407912D01*
X16546253Y-12407912D02*
X16546253Y-12331722D01*
X16546253Y-12331722D02*
X16555777Y-12312674D01*
X16555777Y-12312674D02*
X16574825Y-12303150D01*
X16574825Y-12303150D02*
X16612920Y-12303150D01*
X16612920Y-12303150D02*
X16631968Y-12312674D01*
X16631968Y-12312674D02*
X16641491Y-12331722D01*
X16641491Y-12331722D02*
X16641491Y-12350769D01*
X16641491Y-12350769D02*
X16546253Y-12369817D01*
X16717682Y-12426960D02*
X16736730Y-12436484D01*
X16736730Y-12436484D02*
X16774825Y-12436484D01*
X16774825Y-12436484D02*
X16793873Y-12426960D01*
X16793873Y-12426960D02*
X16803396Y-12407912D01*
X16803396Y-12407912D02*
X16803396Y-12398388D01*
X16803396Y-12398388D02*
X16793873Y-12379341D01*
X16793873Y-12379341D02*
X16774825Y-12369817D01*
X16774825Y-12369817D02*
X16746253Y-12369817D01*
X16746253Y-12369817D02*
X16727206Y-12360293D01*
X16727206Y-12360293D02*
X16717682Y-12341246D01*
X16717682Y-12341246D02*
X16717682Y-12331722D01*
X16717682Y-12331722D02*
X16727206Y-12312674D01*
X16727206Y-12312674D02*
X16746253Y-12303150D01*
X16746253Y-12303150D02*
X16774825Y-12303150D01*
X16774825Y-12303150D02*
X16793873Y-12312674D01*
X16870063Y-12512674D02*
X16879587Y-12503150D01*
X16879587Y-12503150D02*
X16898634Y-12474579D01*
X16898634Y-12474579D02*
X16908158Y-12455531D01*
X16908158Y-12455531D02*
X16917682Y-12426960D01*
X16917682Y-12426960D02*
X16927206Y-12379341D01*
X16927206Y-12379341D02*
X16927206Y-12341246D01*
X16927206Y-12341246D02*
X16917682Y-12293627D01*
X16917682Y-12293627D02*
X16908158Y-12265055D01*
X16908158Y-12265055D02*
X16898634Y-12246008D01*
X16898634Y-12246008D02*
X16879587Y-12217436D01*
X16879587Y-12217436D02*
X16870063Y-12207912D01*
D10*
X12095000Y-12609000D02*
G75*
G02*
X12018800Y-12609000I-38100J0D01*
G01*
X12018800Y-12609000D02*
G75*
G02*
X12095000Y-12609000I38100J0D01*
G01*
D11*
X12393872Y-12500484D02*
X12412920Y-12500484D01*
X12412920Y-12500484D02*
X12431967Y-12510008D01*
X12431967Y-12510008D02*
X12441491Y-12519531D01*
X12441491Y-12519531D02*
X12451015Y-12538579D01*
X12451015Y-12538579D02*
X12460539Y-12576674D01*
X12460539Y-12576674D02*
X12460539Y-12624293D01*
X12460539Y-12624293D02*
X12451015Y-12662388D01*
X12451015Y-12662388D02*
X12441491Y-12681436D01*
X12441491Y-12681436D02*
X12431967Y-12690960D01*
X12431967Y-12690960D02*
X12412920Y-12700484D01*
X12412920Y-12700484D02*
X12393872Y-12700484D01*
X12393872Y-12700484D02*
X12374824Y-12690960D01*
X12374824Y-12690960D02*
X12365301Y-12681436D01*
X12365301Y-12681436D02*
X12355777Y-12662388D01*
X12355777Y-12662388D02*
X12346253Y-12624293D01*
X12346253Y-12624293D02*
X12346253Y-12576674D01*
X12346253Y-12576674D02*
X12355777Y-12538579D01*
X12355777Y-12538579D02*
X12365301Y-12519531D01*
X12365301Y-12519531D02*
X12374824Y-12510008D01*
X12374824Y-12510008D02*
X12393872Y-12500484D01*
X12546253Y-12681436D02*
X12555777Y-12690960D01*
X12555777Y-12690960D02*
X12546253Y-12700484D01*
X12546253Y-12700484D02*
X12536729Y-12690960D01*
X12536729Y-12690960D02*
X12546253Y-12681436D01*
X12546253Y-12681436D02*
X12546253Y-12700484D01*
X12622443Y-12500484D02*
X12755777Y-12500484D01*
X12755777Y-12500484D02*
X12670062Y-12700484D01*
X12917682Y-12500484D02*
X12879586Y-12500484D01*
X12879586Y-12500484D02*
X12860539Y-12510008D01*
X12860539Y-12510008D02*
X12851015Y-12519531D01*
X12851015Y-12519531D02*
X12831967Y-12548103D01*
X12831967Y-12548103D02*
X12822443Y-12586198D01*
X12822443Y-12586198D02*
X12822443Y-12662388D01*
X12822443Y-12662388D02*
X12831967Y-12681436D01*
X12831967Y-12681436D02*
X12841491Y-12690960D01*
X12841491Y-12690960D02*
X12860539Y-12700484D01*
X12860539Y-12700484D02*
X12898634Y-12700484D01*
X12898634Y-12700484D02*
X12917682Y-12690960D01*
X12917682Y-12690960D02*
X12927205Y-12681436D01*
X12927205Y-12681436D02*
X12936729Y-12662388D01*
X12936729Y-12662388D02*
X12936729Y-12614769D01*
X12936729Y-12614769D02*
X12927205Y-12595722D01*
X12927205Y-12595722D02*
X12917682Y-12586198D01*
X12917682Y-12586198D02*
X12898634Y-12576674D01*
X12898634Y-12576674D02*
X12860539Y-12576674D01*
X12860539Y-12576674D02*
X12841491Y-12586198D01*
X12841491Y-12586198D02*
X12831967Y-12595722D01*
X12831967Y-12595722D02*
X12822443Y-12614769D01*
X13012920Y-12519531D02*
X13022443Y-12510008D01*
X13022443Y-12510008D02*
X13041491Y-12500484D01*
X13041491Y-12500484D02*
X13089110Y-12500484D01*
X13089110Y-12500484D02*
X13108158Y-12510008D01*
X13108158Y-12510008D02*
X13117682Y-12519531D01*
X13117682Y-12519531D02*
X13127205Y-12538579D01*
X13127205Y-12538579D02*
X13127205Y-12557627D01*
X13127205Y-12557627D02*
X13117682Y-12586198D01*
X13117682Y-12586198D02*
X13003396Y-12700484D01*
X13003396Y-12700484D02*
X13127205Y-12700484D01*
X13212920Y-12700484D02*
X13212920Y-12567150D01*
X13212920Y-12586198D02*
X13222443Y-12576674D01*
X13222443Y-12576674D02*
X13241491Y-12567150D01*
X13241491Y-12567150D02*
X13270063Y-12567150D01*
X13270063Y-12567150D02*
X13289110Y-12576674D01*
X13289110Y-12576674D02*
X13298634Y-12595722D01*
X13298634Y-12595722D02*
X13298634Y-12700484D01*
X13298634Y-12595722D02*
X13308158Y-12576674D01*
X13308158Y-12576674D02*
X13327205Y-12567150D01*
X13327205Y-12567150D02*
X13355777Y-12567150D01*
X13355777Y-12567150D02*
X13374824Y-12576674D01*
X13374824Y-12576674D02*
X13384348Y-12595722D01*
X13384348Y-12595722D02*
X13384348Y-12700484D01*
X13479586Y-12700484D02*
X13479586Y-12567150D01*
X13479586Y-12586198D02*
X13489110Y-12576674D01*
X13489110Y-12576674D02*
X13508158Y-12567150D01*
X13508158Y-12567150D02*
X13536729Y-12567150D01*
X13536729Y-12567150D02*
X13555777Y-12576674D01*
X13555777Y-12576674D02*
X13565301Y-12595722D01*
X13565301Y-12595722D02*
X13565301Y-12700484D01*
X13565301Y-12595722D02*
X13574824Y-12576674D01*
X13574824Y-12576674D02*
X13593872Y-12567150D01*
X13593872Y-12567150D02*
X13622443Y-12567150D01*
X13622443Y-12567150D02*
X13641491Y-12576674D01*
X13641491Y-12576674D02*
X13651015Y-12595722D01*
X13651015Y-12595722D02*
X13651015Y-12700484D01*
X14041491Y-12490960D02*
X13870063Y-12748103D01*
X14298634Y-12500484D02*
X14317682Y-12500484D01*
X14317682Y-12500484D02*
X14336729Y-12510008D01*
X14336729Y-12510008D02*
X14346253Y-12519531D01*
X14346253Y-12519531D02*
X14355777Y-12538579D01*
X14355777Y-12538579D02*
X14365301Y-12576674D01*
X14365301Y-12576674D02*
X14365301Y-12624293D01*
X14365301Y-12624293D02*
X14355777Y-12662388D01*
X14355777Y-12662388D02*
X14346253Y-12681436D01*
X14346253Y-12681436D02*
X14336729Y-12690960D01*
X14336729Y-12690960D02*
X14317682Y-12700484D01*
X14317682Y-12700484D02*
X14298634Y-12700484D01*
X14298634Y-12700484D02*
X14279586Y-12690960D01*
X14279586Y-12690960D02*
X14270063Y-12681436D01*
X14270063Y-12681436D02*
X14260539Y-12662388D01*
X14260539Y-12662388D02*
X14251015Y-12624293D01*
X14251015Y-12624293D02*
X14251015Y-12576674D01*
X14251015Y-12576674D02*
X14260539Y-12538579D01*
X14260539Y-12538579D02*
X14270063Y-12519531D01*
X14270063Y-12519531D02*
X14279586Y-12510008D01*
X14279586Y-12510008D02*
X14298634Y-12500484D01*
X14451015Y-12681436D02*
X14460539Y-12690960D01*
X14460539Y-12690960D02*
X14451015Y-12700484D01*
X14451015Y-12700484D02*
X14441491Y-12690960D01*
X14441491Y-12690960D02*
X14451015Y-12681436D01*
X14451015Y-12681436D02*
X14451015Y-12700484D01*
X14584348Y-12500484D02*
X14603396Y-12500484D01*
X14603396Y-12500484D02*
X14622444Y-12510008D01*
X14622444Y-12510008D02*
X14631967Y-12519531D01*
X14631967Y-12519531D02*
X14641491Y-12538579D01*
X14641491Y-12538579D02*
X14651015Y-12576674D01*
X14651015Y-12576674D02*
X14651015Y-12624293D01*
X14651015Y-12624293D02*
X14641491Y-12662388D01*
X14641491Y-12662388D02*
X14631967Y-12681436D01*
X14631967Y-12681436D02*
X14622444Y-12690960D01*
X14622444Y-12690960D02*
X14603396Y-12700484D01*
X14603396Y-12700484D02*
X14584348Y-12700484D01*
X14584348Y-12700484D02*
X14565301Y-12690960D01*
X14565301Y-12690960D02*
X14555777Y-12681436D01*
X14555777Y-12681436D02*
X14546253Y-12662388D01*
X14546253Y-12662388D02*
X14536729Y-12624293D01*
X14536729Y-12624293D02*
X14536729Y-12576674D01*
X14536729Y-12576674D02*
X14546253Y-12538579D01*
X14546253Y-12538579D02*
X14555777Y-12519531D01*
X14555777Y-12519531D02*
X14565301Y-12510008D01*
X14565301Y-12510008D02*
X14584348Y-12500484D01*
X14717682Y-12500484D02*
X14841491Y-12500484D01*
X14841491Y-12500484D02*
X14774825Y-12576674D01*
X14774825Y-12576674D02*
X14803396Y-12576674D01*
X14803396Y-12576674D02*
X14822444Y-12586198D01*
X14822444Y-12586198D02*
X14831967Y-12595722D01*
X14831967Y-12595722D02*
X14841491Y-12614769D01*
X14841491Y-12614769D02*
X14841491Y-12662388D01*
X14841491Y-12662388D02*
X14831967Y-12681436D01*
X14831967Y-12681436D02*
X14822444Y-12690960D01*
X14822444Y-12690960D02*
X14803396Y-12700484D01*
X14803396Y-12700484D02*
X14746253Y-12700484D01*
X14746253Y-12700484D02*
X14727206Y-12690960D01*
X14727206Y-12690960D02*
X14717682Y-12681436D01*
X14965301Y-12500484D02*
X14984348Y-12500484D01*
X14984348Y-12500484D02*
X15003396Y-12510008D01*
X15003396Y-12510008D02*
X15012920Y-12519531D01*
X15012920Y-12519531D02*
X15022444Y-12538579D01*
X15022444Y-12538579D02*
X15031967Y-12576674D01*
X15031967Y-12576674D02*
X15031967Y-12624293D01*
X15031967Y-12624293D02*
X15022444Y-12662388D01*
X15022444Y-12662388D02*
X15012920Y-12681436D01*
X15012920Y-12681436D02*
X15003396Y-12690960D01*
X15003396Y-12690960D02*
X14984348Y-12700484D01*
X14984348Y-12700484D02*
X14965301Y-12700484D01*
X14965301Y-12700484D02*
X14946253Y-12690960D01*
X14946253Y-12690960D02*
X14936729Y-12681436D01*
X14936729Y-12681436D02*
X14927206Y-12662388D01*
X14927206Y-12662388D02*
X14917682Y-12624293D01*
X14917682Y-12624293D02*
X14917682Y-12576674D01*
X14917682Y-12576674D02*
X14927206Y-12538579D01*
X14927206Y-12538579D02*
X14936729Y-12519531D01*
X14936729Y-12519531D02*
X14946253Y-12510008D01*
X14946253Y-12510008D02*
X14965301Y-12500484D01*
X15155777Y-12500484D02*
X15174825Y-12500484D01*
X15174825Y-12500484D02*
X15193872Y-12510008D01*
X15193872Y-12510008D02*
X15203396Y-12519531D01*
X15203396Y-12519531D02*
X15212920Y-12538579D01*
X15212920Y-12538579D02*
X15222444Y-12576674D01*
X15222444Y-12576674D02*
X15222444Y-12624293D01*
X15222444Y-12624293D02*
X15212920Y-12662388D01*
X15212920Y-12662388D02*
X15203396Y-12681436D01*
X15203396Y-12681436D02*
X15193872Y-12690960D01*
X15193872Y-12690960D02*
X15174825Y-12700484D01*
X15174825Y-12700484D02*
X15155777Y-12700484D01*
X15155777Y-12700484D02*
X15136729Y-12690960D01*
X15136729Y-12690960D02*
X15127206Y-12681436D01*
X15127206Y-12681436D02*
X15117682Y-12662388D01*
X15117682Y-12662388D02*
X15108158Y-12624293D01*
X15108158Y-12624293D02*
X15108158Y-12576674D01*
X15108158Y-12576674D02*
X15117682Y-12538579D01*
X15117682Y-12538579D02*
X15127206Y-12519531D01*
X15127206Y-12519531D02*
X15136729Y-12510008D01*
X15136729Y-12510008D02*
X15155777Y-12500484D01*
X15298634Y-12500484D02*
X15298634Y-12538579D01*
X15374825Y-12500484D02*
X15374825Y-12538579D01*
X15670063Y-12776674D02*
X15660539Y-12767150D01*
X15660539Y-12767150D02*
X15641491Y-12738579D01*
X15641491Y-12738579D02*
X15631968Y-12719531D01*
X15631968Y-12719531D02*
X15622444Y-12690960D01*
X15622444Y-12690960D02*
X15612920Y-12643341D01*
X15612920Y-12643341D02*
X15612920Y-12605246D01*
X15612920Y-12605246D02*
X15622444Y-12557627D01*
X15622444Y-12557627D02*
X15631968Y-12529055D01*
X15631968Y-12529055D02*
X15641491Y-12510008D01*
X15641491Y-12510008D02*
X15660539Y-12481436D01*
X15660539Y-12481436D02*
X15670063Y-12471912D01*
X15727206Y-12500484D02*
X15851015Y-12500484D01*
X15851015Y-12500484D02*
X15784348Y-12576674D01*
X15784348Y-12576674D02*
X15812920Y-12576674D01*
X15812920Y-12576674D02*
X15831968Y-12586198D01*
X15831968Y-12586198D02*
X15841491Y-12595722D01*
X15841491Y-12595722D02*
X15851015Y-12614769D01*
X15851015Y-12614769D02*
X15851015Y-12662388D01*
X15851015Y-12662388D02*
X15841491Y-12681436D01*
X15841491Y-12681436D02*
X15831968Y-12690960D01*
X15831968Y-12690960D02*
X15812920Y-12700484D01*
X15812920Y-12700484D02*
X15755777Y-12700484D01*
X15755777Y-12700484D02*
X15736729Y-12690960D01*
X15736729Y-12690960D02*
X15727206Y-12681436D01*
X16089110Y-12700484D02*
X16089110Y-12500484D01*
X16174825Y-12700484D02*
X16174825Y-12595722D01*
X16174825Y-12595722D02*
X16165301Y-12576674D01*
X16165301Y-12576674D02*
X16146253Y-12567150D01*
X16146253Y-12567150D02*
X16117682Y-12567150D01*
X16117682Y-12567150D02*
X16098634Y-12576674D01*
X16098634Y-12576674D02*
X16089110Y-12586198D01*
X16298634Y-12700484D02*
X16279587Y-12690960D01*
X16279587Y-12690960D02*
X16270063Y-12681436D01*
X16270063Y-12681436D02*
X16260539Y-12662388D01*
X16260539Y-12662388D02*
X16260539Y-12605246D01*
X16260539Y-12605246D02*
X16270063Y-12586198D01*
X16270063Y-12586198D02*
X16279587Y-12576674D01*
X16279587Y-12576674D02*
X16298634Y-12567150D01*
X16298634Y-12567150D02*
X16327206Y-12567150D01*
X16327206Y-12567150D02*
X16346253Y-12576674D01*
X16346253Y-12576674D02*
X16355777Y-12586198D01*
X16355777Y-12586198D02*
X16365301Y-12605246D01*
X16365301Y-12605246D02*
X16365301Y-12662388D01*
X16365301Y-12662388D02*
X16355777Y-12681436D01*
X16355777Y-12681436D02*
X16346253Y-12690960D01*
X16346253Y-12690960D02*
X16327206Y-12700484D01*
X16327206Y-12700484D02*
X16298634Y-12700484D01*
X16479587Y-12700484D02*
X16460539Y-12690960D01*
X16460539Y-12690960D02*
X16451015Y-12671912D01*
X16451015Y-12671912D02*
X16451015Y-12500484D01*
X16631968Y-12690960D02*
X16612920Y-12700484D01*
X16612920Y-12700484D02*
X16574825Y-12700484D01*
X16574825Y-12700484D02*
X16555777Y-12690960D01*
X16555777Y-12690960D02*
X16546253Y-12671912D01*
X16546253Y-12671912D02*
X16546253Y-12595722D01*
X16546253Y-12595722D02*
X16555777Y-12576674D01*
X16555777Y-12576674D02*
X16574825Y-12567150D01*
X16574825Y-12567150D02*
X16612920Y-12567150D01*
X16612920Y-12567150D02*
X16631968Y-12576674D01*
X16631968Y-12576674D02*
X16641491Y-12595722D01*
X16641491Y-12595722D02*
X16641491Y-12614769D01*
X16641491Y-12614769D02*
X16546253Y-12633817D01*
X16717682Y-12690960D02*
X16736730Y-12700484D01*
X16736730Y-12700484D02*
X16774825Y-12700484D01*
X16774825Y-12700484D02*
X16793873Y-12690960D01*
X16793873Y-12690960D02*
X16803396Y-12671912D01*
X16803396Y-12671912D02*
X16803396Y-12662388D01*
X16803396Y-12662388D02*
X16793873Y-12643341D01*
X16793873Y-12643341D02*
X16774825Y-12633817D01*
X16774825Y-12633817D02*
X16746253Y-12633817D01*
X16746253Y-12633817D02*
X16727206Y-12624293D01*
X16727206Y-12624293D02*
X16717682Y-12605246D01*
X16717682Y-12605246D02*
X16717682Y-12595722D01*
X16717682Y-12595722D02*
X16727206Y-12576674D01*
X16727206Y-12576674D02*
X16746253Y-12567150D01*
X16746253Y-12567150D02*
X16774825Y-12567150D01*
X16774825Y-12567150D02*
X16793873Y-12576674D01*
X16870063Y-12776674D02*
X16879587Y-12767150D01*
X16879587Y-12767150D02*
X16898634Y-12738579D01*
X16898634Y-12738579D02*
X16908158Y-12719531D01*
X16908158Y-12719531D02*
X16917682Y-12690960D01*
X16917682Y-12690960D02*
X16927206Y-12643341D01*
X16927206Y-12643341D02*
X16927206Y-12605246D01*
X16927206Y-12605246D02*
X16917682Y-12557627D01*
X16917682Y-12557627D02*
X16908158Y-12529055D01*
X16908158Y-12529055D02*
X16898634Y-12510008D01*
X16898634Y-12510008D02*
X16879587Y-12481436D01*
X16879587Y-12481436D02*
X16870063Y-12471912D01*
D10*
X12055000Y-12833000D02*
X12055000Y-12913000D01*
X12015000Y-12873000D02*
X12095000Y-12873000D01*
D11*
X12393872Y-12764484D02*
X12412920Y-12764484D01*
X12412920Y-12764484D02*
X12431967Y-12774008D01*
X12431967Y-12774008D02*
X12441491Y-12783531D01*
X12441491Y-12783531D02*
X12451015Y-12802579D01*
X12451015Y-12802579D02*
X12460539Y-12840674D01*
X12460539Y-12840674D02*
X12460539Y-12888293D01*
X12460539Y-12888293D02*
X12451015Y-12926388D01*
X12451015Y-12926388D02*
X12441491Y-12945436D01*
X12441491Y-12945436D02*
X12431967Y-12954960D01*
X12431967Y-12954960D02*
X12412920Y-12964484D01*
X12412920Y-12964484D02*
X12393872Y-12964484D01*
X12393872Y-12964484D02*
X12374824Y-12954960D01*
X12374824Y-12954960D02*
X12365301Y-12945436D01*
X12365301Y-12945436D02*
X12355777Y-12926388D01*
X12355777Y-12926388D02*
X12346253Y-12888293D01*
X12346253Y-12888293D02*
X12346253Y-12840674D01*
X12346253Y-12840674D02*
X12355777Y-12802579D01*
X12355777Y-12802579D02*
X12365301Y-12783531D01*
X12365301Y-12783531D02*
X12374824Y-12774008D01*
X12374824Y-12774008D02*
X12393872Y-12764484D01*
X12546253Y-12945436D02*
X12555777Y-12954960D01*
X12555777Y-12954960D02*
X12546253Y-12964484D01*
X12546253Y-12964484D02*
X12536729Y-12954960D01*
X12536729Y-12954960D02*
X12546253Y-12945436D01*
X12546253Y-12945436D02*
X12546253Y-12964484D01*
X12670062Y-12850198D02*
X12651015Y-12840674D01*
X12651015Y-12840674D02*
X12641491Y-12831150D01*
X12641491Y-12831150D02*
X12631967Y-12812103D01*
X12631967Y-12812103D02*
X12631967Y-12802579D01*
X12631967Y-12802579D02*
X12641491Y-12783531D01*
X12641491Y-12783531D02*
X12651015Y-12774008D01*
X12651015Y-12774008D02*
X12670062Y-12764484D01*
X12670062Y-12764484D02*
X12708158Y-12764484D01*
X12708158Y-12764484D02*
X12727205Y-12774008D01*
X12727205Y-12774008D02*
X12736729Y-12783531D01*
X12736729Y-12783531D02*
X12746253Y-12802579D01*
X12746253Y-12802579D02*
X12746253Y-12812103D01*
X12746253Y-12812103D02*
X12736729Y-12831150D01*
X12736729Y-12831150D02*
X12727205Y-12840674D01*
X12727205Y-12840674D02*
X12708158Y-12850198D01*
X12708158Y-12850198D02*
X12670062Y-12850198D01*
X12670062Y-12850198D02*
X12651015Y-12859722D01*
X12651015Y-12859722D02*
X12641491Y-12869246D01*
X12641491Y-12869246D02*
X12631967Y-12888293D01*
X12631967Y-12888293D02*
X12631967Y-12926388D01*
X12631967Y-12926388D02*
X12641491Y-12945436D01*
X12641491Y-12945436D02*
X12651015Y-12954960D01*
X12651015Y-12954960D02*
X12670062Y-12964484D01*
X12670062Y-12964484D02*
X12708158Y-12964484D01*
X12708158Y-12964484D02*
X12727205Y-12954960D01*
X12727205Y-12954960D02*
X12736729Y-12945436D01*
X12736729Y-12945436D02*
X12746253Y-12926388D01*
X12746253Y-12926388D02*
X12746253Y-12888293D01*
X12746253Y-12888293D02*
X12736729Y-12869246D01*
X12736729Y-12869246D02*
X12727205Y-12859722D01*
X12727205Y-12859722D02*
X12708158Y-12850198D01*
X12870062Y-12764484D02*
X12889110Y-12764484D01*
X12889110Y-12764484D02*
X12908158Y-12774008D01*
X12908158Y-12774008D02*
X12917682Y-12783531D01*
X12917682Y-12783531D02*
X12927205Y-12802579D01*
X12927205Y-12802579D02*
X12936729Y-12840674D01*
X12936729Y-12840674D02*
X12936729Y-12888293D01*
X12936729Y-12888293D02*
X12927205Y-12926388D01*
X12927205Y-12926388D02*
X12917682Y-12945436D01*
X12917682Y-12945436D02*
X12908158Y-12954960D01*
X12908158Y-12954960D02*
X12889110Y-12964484D01*
X12889110Y-12964484D02*
X12870062Y-12964484D01*
X12870062Y-12964484D02*
X12851015Y-12954960D01*
X12851015Y-12954960D02*
X12841491Y-12945436D01*
X12841491Y-12945436D02*
X12831967Y-12926388D01*
X12831967Y-12926388D02*
X12822443Y-12888293D01*
X12822443Y-12888293D02*
X12822443Y-12840674D01*
X12822443Y-12840674D02*
X12831967Y-12802579D01*
X12831967Y-12802579D02*
X12841491Y-12783531D01*
X12841491Y-12783531D02*
X12851015Y-12774008D01*
X12851015Y-12774008D02*
X12870062Y-12764484D01*
X13060539Y-12764484D02*
X13079586Y-12764484D01*
X13079586Y-12764484D02*
X13098634Y-12774008D01*
X13098634Y-12774008D02*
X13108158Y-12783531D01*
X13108158Y-12783531D02*
X13117682Y-12802579D01*
X13117682Y-12802579D02*
X13127205Y-12840674D01*
X13127205Y-12840674D02*
X13127205Y-12888293D01*
X13127205Y-12888293D02*
X13117682Y-12926388D01*
X13117682Y-12926388D02*
X13108158Y-12945436D01*
X13108158Y-12945436D02*
X13098634Y-12954960D01*
X13098634Y-12954960D02*
X13079586Y-12964484D01*
X13079586Y-12964484D02*
X13060539Y-12964484D01*
X13060539Y-12964484D02*
X13041491Y-12954960D01*
X13041491Y-12954960D02*
X13031967Y-12945436D01*
X13031967Y-12945436D02*
X13022443Y-12926388D01*
X13022443Y-12926388D02*
X13012920Y-12888293D01*
X13012920Y-12888293D02*
X13012920Y-12840674D01*
X13012920Y-12840674D02*
X13022443Y-12802579D01*
X13022443Y-12802579D02*
X13031967Y-12783531D01*
X13031967Y-12783531D02*
X13041491Y-12774008D01*
X13041491Y-12774008D02*
X13060539Y-12764484D01*
X13212920Y-12964484D02*
X13212920Y-12831150D01*
X13212920Y-12850198D02*
X13222443Y-12840674D01*
X13222443Y-12840674D02*
X13241491Y-12831150D01*
X13241491Y-12831150D02*
X13270063Y-12831150D01*
X13270063Y-12831150D02*
X13289110Y-12840674D01*
X13289110Y-12840674D02*
X13298634Y-12859722D01*
X13298634Y-12859722D02*
X13298634Y-12964484D01*
X13298634Y-12859722D02*
X13308158Y-12840674D01*
X13308158Y-12840674D02*
X13327205Y-12831150D01*
X13327205Y-12831150D02*
X13355777Y-12831150D01*
X13355777Y-12831150D02*
X13374824Y-12840674D01*
X13374824Y-12840674D02*
X13384348Y-12859722D01*
X13384348Y-12859722D02*
X13384348Y-12964484D01*
X13479586Y-12964484D02*
X13479586Y-12831150D01*
X13479586Y-12850198D02*
X13489110Y-12840674D01*
X13489110Y-12840674D02*
X13508158Y-12831150D01*
X13508158Y-12831150D02*
X13536729Y-12831150D01*
X13536729Y-12831150D02*
X13555777Y-12840674D01*
X13555777Y-12840674D02*
X13565301Y-12859722D01*
X13565301Y-12859722D02*
X13565301Y-12964484D01*
X13565301Y-12859722D02*
X13574824Y-12840674D01*
X13574824Y-12840674D02*
X13593872Y-12831150D01*
X13593872Y-12831150D02*
X13622443Y-12831150D01*
X13622443Y-12831150D02*
X13641491Y-12840674D01*
X13641491Y-12840674D02*
X13651015Y-12859722D01*
X13651015Y-12859722D02*
X13651015Y-12964484D01*
X14041491Y-12754960D02*
X13870063Y-13012103D01*
X14298634Y-12764484D02*
X14317682Y-12764484D01*
X14317682Y-12764484D02*
X14336729Y-12774008D01*
X14336729Y-12774008D02*
X14346253Y-12783531D01*
X14346253Y-12783531D02*
X14355777Y-12802579D01*
X14355777Y-12802579D02*
X14365301Y-12840674D01*
X14365301Y-12840674D02*
X14365301Y-12888293D01*
X14365301Y-12888293D02*
X14355777Y-12926388D01*
X14355777Y-12926388D02*
X14346253Y-12945436D01*
X14346253Y-12945436D02*
X14336729Y-12954960D01*
X14336729Y-12954960D02*
X14317682Y-12964484D01*
X14317682Y-12964484D02*
X14298634Y-12964484D01*
X14298634Y-12964484D02*
X14279586Y-12954960D01*
X14279586Y-12954960D02*
X14270063Y-12945436D01*
X14270063Y-12945436D02*
X14260539Y-12926388D01*
X14260539Y-12926388D02*
X14251015Y-12888293D01*
X14251015Y-12888293D02*
X14251015Y-12840674D01*
X14251015Y-12840674D02*
X14260539Y-12802579D01*
X14260539Y-12802579D02*
X14270063Y-12783531D01*
X14270063Y-12783531D02*
X14279586Y-12774008D01*
X14279586Y-12774008D02*
X14298634Y-12764484D01*
X14451015Y-12945436D02*
X14460539Y-12954960D01*
X14460539Y-12954960D02*
X14451015Y-12964484D01*
X14451015Y-12964484D02*
X14441491Y-12954960D01*
X14441491Y-12954960D02*
X14451015Y-12945436D01*
X14451015Y-12945436D02*
X14451015Y-12964484D01*
X14584348Y-12764484D02*
X14603396Y-12764484D01*
X14603396Y-12764484D02*
X14622444Y-12774008D01*
X14622444Y-12774008D02*
X14631967Y-12783531D01*
X14631967Y-12783531D02*
X14641491Y-12802579D01*
X14641491Y-12802579D02*
X14651015Y-12840674D01*
X14651015Y-12840674D02*
X14651015Y-12888293D01*
X14651015Y-12888293D02*
X14641491Y-12926388D01*
X14641491Y-12926388D02*
X14631967Y-12945436D01*
X14631967Y-12945436D02*
X14622444Y-12954960D01*
X14622444Y-12954960D02*
X14603396Y-12964484D01*
X14603396Y-12964484D02*
X14584348Y-12964484D01*
X14584348Y-12964484D02*
X14565301Y-12954960D01*
X14565301Y-12954960D02*
X14555777Y-12945436D01*
X14555777Y-12945436D02*
X14546253Y-12926388D01*
X14546253Y-12926388D02*
X14536729Y-12888293D01*
X14536729Y-12888293D02*
X14536729Y-12840674D01*
X14536729Y-12840674D02*
X14546253Y-12802579D01*
X14546253Y-12802579D02*
X14555777Y-12783531D01*
X14555777Y-12783531D02*
X14565301Y-12774008D01*
X14565301Y-12774008D02*
X14584348Y-12764484D01*
X14717682Y-12764484D02*
X14841491Y-12764484D01*
X14841491Y-12764484D02*
X14774825Y-12840674D01*
X14774825Y-12840674D02*
X14803396Y-12840674D01*
X14803396Y-12840674D02*
X14822444Y-12850198D01*
X14822444Y-12850198D02*
X14831967Y-12859722D01*
X14831967Y-12859722D02*
X14841491Y-12878769D01*
X14841491Y-12878769D02*
X14841491Y-12926388D01*
X14841491Y-12926388D02*
X14831967Y-12945436D01*
X14831967Y-12945436D02*
X14822444Y-12954960D01*
X14822444Y-12954960D02*
X14803396Y-12964484D01*
X14803396Y-12964484D02*
X14746253Y-12964484D01*
X14746253Y-12964484D02*
X14727206Y-12954960D01*
X14727206Y-12954960D02*
X14717682Y-12945436D01*
X15031967Y-12964484D02*
X14917682Y-12964484D01*
X14974825Y-12964484D02*
X14974825Y-12764484D01*
X14974825Y-12764484D02*
X14955777Y-12793055D01*
X14955777Y-12793055D02*
X14936729Y-12812103D01*
X14936729Y-12812103D02*
X14917682Y-12821627D01*
X15212920Y-12764484D02*
X15117682Y-12764484D01*
X15117682Y-12764484D02*
X15108158Y-12859722D01*
X15108158Y-12859722D02*
X15117682Y-12850198D01*
X15117682Y-12850198D02*
X15136729Y-12840674D01*
X15136729Y-12840674D02*
X15184348Y-12840674D01*
X15184348Y-12840674D02*
X15203396Y-12850198D01*
X15203396Y-12850198D02*
X15212920Y-12859722D01*
X15212920Y-12859722D02*
X15222444Y-12878769D01*
X15222444Y-12878769D02*
X15222444Y-12926388D01*
X15222444Y-12926388D02*
X15212920Y-12945436D01*
X15212920Y-12945436D02*
X15203396Y-12954960D01*
X15203396Y-12954960D02*
X15184348Y-12964484D01*
X15184348Y-12964484D02*
X15136729Y-12964484D01*
X15136729Y-12964484D02*
X15117682Y-12954960D01*
X15117682Y-12954960D02*
X15108158Y-12945436D01*
X15298634Y-12764484D02*
X15298634Y-12802579D01*
X15374825Y-12764484D02*
X15374825Y-12802579D01*
X15670063Y-13040674D02*
X15660539Y-13031150D01*
X15660539Y-13031150D02*
X15641491Y-13002579D01*
X15641491Y-13002579D02*
X15631968Y-12983531D01*
X15631968Y-12983531D02*
X15622444Y-12954960D01*
X15622444Y-12954960D02*
X15612920Y-12907341D01*
X15612920Y-12907341D02*
X15612920Y-12869246D01*
X15612920Y-12869246D02*
X15622444Y-12821627D01*
X15622444Y-12821627D02*
X15631968Y-12793055D01*
X15631968Y-12793055D02*
X15641491Y-12774008D01*
X15641491Y-12774008D02*
X15660539Y-12745436D01*
X15660539Y-12745436D02*
X15670063Y-12735912D01*
X15774825Y-12850198D02*
X15755777Y-12840674D01*
X15755777Y-12840674D02*
X15746253Y-12831150D01*
X15746253Y-12831150D02*
X15736729Y-12812103D01*
X15736729Y-12812103D02*
X15736729Y-12802579D01*
X15736729Y-12802579D02*
X15746253Y-12783531D01*
X15746253Y-12783531D02*
X15755777Y-12774008D01*
X15755777Y-12774008D02*
X15774825Y-12764484D01*
X15774825Y-12764484D02*
X15812920Y-12764484D01*
X15812920Y-12764484D02*
X15831968Y-12774008D01*
X15831968Y-12774008D02*
X15841491Y-12783531D01*
X15841491Y-12783531D02*
X15851015Y-12802579D01*
X15851015Y-12802579D02*
X15851015Y-12812103D01*
X15851015Y-12812103D02*
X15841491Y-12831150D01*
X15841491Y-12831150D02*
X15831968Y-12840674D01*
X15831968Y-12840674D02*
X15812920Y-12850198D01*
X15812920Y-12850198D02*
X15774825Y-12850198D01*
X15774825Y-12850198D02*
X15755777Y-12859722D01*
X15755777Y-12859722D02*
X15746253Y-12869246D01*
X15746253Y-12869246D02*
X15736729Y-12888293D01*
X15736729Y-12888293D02*
X15736729Y-12926388D01*
X15736729Y-12926388D02*
X15746253Y-12945436D01*
X15746253Y-12945436D02*
X15755777Y-12954960D01*
X15755777Y-12954960D02*
X15774825Y-12964484D01*
X15774825Y-12964484D02*
X15812920Y-12964484D01*
X15812920Y-12964484D02*
X15831968Y-12954960D01*
X15831968Y-12954960D02*
X15841491Y-12945436D01*
X15841491Y-12945436D02*
X15851015Y-12926388D01*
X15851015Y-12926388D02*
X15851015Y-12888293D01*
X15851015Y-12888293D02*
X15841491Y-12869246D01*
X15841491Y-12869246D02*
X15831968Y-12859722D01*
X15831968Y-12859722D02*
X15812920Y-12850198D01*
X16089110Y-12964484D02*
X16089110Y-12764484D01*
X16174825Y-12964484D02*
X16174825Y-12859722D01*
X16174825Y-12859722D02*
X16165301Y-12840674D01*
X16165301Y-12840674D02*
X16146253Y-12831150D01*
X16146253Y-12831150D02*
X16117682Y-12831150D01*
X16117682Y-12831150D02*
X16098634Y-12840674D01*
X16098634Y-12840674D02*
X16089110Y-12850198D01*
X16298634Y-12964484D02*
X16279587Y-12954960D01*
X16279587Y-12954960D02*
X16270063Y-12945436D01*
X16270063Y-12945436D02*
X16260539Y-12926388D01*
X16260539Y-12926388D02*
X16260539Y-12869246D01*
X16260539Y-12869246D02*
X16270063Y-12850198D01*
X16270063Y-12850198D02*
X16279587Y-12840674D01*
X16279587Y-12840674D02*
X16298634Y-12831150D01*
X16298634Y-12831150D02*
X16327206Y-12831150D01*
X16327206Y-12831150D02*
X16346253Y-12840674D01*
X16346253Y-12840674D02*
X16355777Y-12850198D01*
X16355777Y-12850198D02*
X16365301Y-12869246D01*
X16365301Y-12869246D02*
X16365301Y-12926388D01*
X16365301Y-12926388D02*
X16355777Y-12945436D01*
X16355777Y-12945436D02*
X16346253Y-12954960D01*
X16346253Y-12954960D02*
X16327206Y-12964484D01*
X16327206Y-12964484D02*
X16298634Y-12964484D01*
X16479587Y-12964484D02*
X16460539Y-12954960D01*
X16460539Y-12954960D02*
X16451015Y-12935912D01*
X16451015Y-12935912D02*
X16451015Y-12764484D01*
X16631968Y-12954960D02*
X16612920Y-12964484D01*
X16612920Y-12964484D02*
X16574825Y-12964484D01*
X16574825Y-12964484D02*
X16555777Y-12954960D01*
X16555777Y-12954960D02*
X16546253Y-12935912D01*
X16546253Y-12935912D02*
X16546253Y-12859722D01*
X16546253Y-12859722D02*
X16555777Y-12840674D01*
X16555777Y-12840674D02*
X16574825Y-12831150D01*
X16574825Y-12831150D02*
X16612920Y-12831150D01*
X16612920Y-12831150D02*
X16631968Y-12840674D01*
X16631968Y-12840674D02*
X16641491Y-12859722D01*
X16641491Y-12859722D02*
X16641491Y-12878769D01*
X16641491Y-12878769D02*
X16546253Y-12897817D01*
X16717682Y-12954960D02*
X16736730Y-12964484D01*
X16736730Y-12964484D02*
X16774825Y-12964484D01*
X16774825Y-12964484D02*
X16793873Y-12954960D01*
X16793873Y-12954960D02*
X16803396Y-12935912D01*
X16803396Y-12935912D02*
X16803396Y-12926388D01*
X16803396Y-12926388D02*
X16793873Y-12907341D01*
X16793873Y-12907341D02*
X16774825Y-12897817D01*
X16774825Y-12897817D02*
X16746253Y-12897817D01*
X16746253Y-12897817D02*
X16727206Y-12888293D01*
X16727206Y-12888293D02*
X16717682Y-12869246D01*
X16717682Y-12869246D02*
X16717682Y-12859722D01*
X16717682Y-12859722D02*
X16727206Y-12840674D01*
X16727206Y-12840674D02*
X16746253Y-12831150D01*
X16746253Y-12831150D02*
X16774825Y-12831150D01*
X16774825Y-12831150D02*
X16793873Y-12840674D01*
X16870063Y-13040674D02*
X16879587Y-13031150D01*
X16879587Y-13031150D02*
X16898634Y-13002579D01*
X16898634Y-13002579D02*
X16908158Y-12983531D01*
X16908158Y-12983531D02*
X16917682Y-12954960D01*
X16917682Y-12954960D02*
X16927206Y-12907341D01*
X16927206Y-12907341D02*
X16927206Y-12869246D01*
X16927206Y-12869246D02*
X16917682Y-12821627D01*
X16917682Y-12821627D02*
X16908158Y-12793055D01*
X16908158Y-12793055D02*
X16898634Y-12774008D01*
X16898634Y-12774008D02*
X16879587Y-12745436D01*
X16879587Y-12745436D02*
X16870063Y-12735912D01*
D10*
X12081820Y-13168820D02*
X12081820Y-13105180D01*
X12018180Y-13105180D01*
X12018180Y-13168820D01*
X12081820Y-13168820D01*
D11*
X12393872Y-13028484D02*
X12412920Y-13028484D01*
X12412920Y-13028484D02*
X12431967Y-13038008D01*
X12431967Y-13038008D02*
X12441491Y-13047531D01*
X12441491Y-13047531D02*
X12451015Y-13066579D01*
X12451015Y-13066579D02*
X12460539Y-13104674D01*
X12460539Y-13104674D02*
X12460539Y-13152293D01*
X12460539Y-13152293D02*
X12451015Y-13190388D01*
X12451015Y-13190388D02*
X12441491Y-13209436D01*
X12441491Y-13209436D02*
X12431967Y-13218960D01*
X12431967Y-13218960D02*
X12412920Y-13228484D01*
X12412920Y-13228484D02*
X12393872Y-13228484D01*
X12393872Y-13228484D02*
X12374824Y-13218960D01*
X12374824Y-13218960D02*
X12365301Y-13209436D01*
X12365301Y-13209436D02*
X12355777Y-13190388D01*
X12355777Y-13190388D02*
X12346253Y-13152293D01*
X12346253Y-13152293D02*
X12346253Y-13104674D01*
X12346253Y-13104674D02*
X12355777Y-13066579D01*
X12355777Y-13066579D02*
X12365301Y-13047531D01*
X12365301Y-13047531D02*
X12374824Y-13038008D01*
X12374824Y-13038008D02*
X12393872Y-13028484D01*
X12546253Y-13209436D02*
X12555777Y-13218960D01*
X12555777Y-13218960D02*
X12546253Y-13228484D01*
X12546253Y-13228484D02*
X12536729Y-13218960D01*
X12536729Y-13218960D02*
X12546253Y-13209436D01*
X12546253Y-13209436D02*
X12546253Y-13228484D01*
X12651015Y-13228484D02*
X12689110Y-13228484D01*
X12689110Y-13228484D02*
X12708158Y-13218960D01*
X12708158Y-13218960D02*
X12717682Y-13209436D01*
X12717682Y-13209436D02*
X12736729Y-13180865D01*
X12736729Y-13180865D02*
X12746253Y-13142769D01*
X12746253Y-13142769D02*
X12746253Y-13066579D01*
X12746253Y-13066579D02*
X12736729Y-13047531D01*
X12736729Y-13047531D02*
X12727205Y-13038008D01*
X12727205Y-13038008D02*
X12708158Y-13028484D01*
X12708158Y-13028484D02*
X12670062Y-13028484D01*
X12670062Y-13028484D02*
X12651015Y-13038008D01*
X12651015Y-13038008D02*
X12641491Y-13047531D01*
X12641491Y-13047531D02*
X12631967Y-13066579D01*
X12631967Y-13066579D02*
X12631967Y-13114198D01*
X12631967Y-13114198D02*
X12641491Y-13133246D01*
X12641491Y-13133246D02*
X12651015Y-13142769D01*
X12651015Y-13142769D02*
X12670062Y-13152293D01*
X12670062Y-13152293D02*
X12708158Y-13152293D01*
X12708158Y-13152293D02*
X12727205Y-13142769D01*
X12727205Y-13142769D02*
X12736729Y-13133246D01*
X12736729Y-13133246D02*
X12746253Y-13114198D01*
X12870062Y-13028484D02*
X12889110Y-13028484D01*
X12889110Y-13028484D02*
X12908158Y-13038008D01*
X12908158Y-13038008D02*
X12917682Y-13047531D01*
X12917682Y-13047531D02*
X12927205Y-13066579D01*
X12927205Y-13066579D02*
X12936729Y-13104674D01*
X12936729Y-13104674D02*
X12936729Y-13152293D01*
X12936729Y-13152293D02*
X12927205Y-13190388D01*
X12927205Y-13190388D02*
X12917682Y-13209436D01*
X12917682Y-13209436D02*
X12908158Y-13218960D01*
X12908158Y-13218960D02*
X12889110Y-13228484D01*
X12889110Y-13228484D02*
X12870062Y-13228484D01*
X12870062Y-13228484D02*
X12851015Y-13218960D01*
X12851015Y-13218960D02*
X12841491Y-13209436D01*
X12841491Y-13209436D02*
X12831967Y-13190388D01*
X12831967Y-13190388D02*
X12822443Y-13152293D01*
X12822443Y-13152293D02*
X12822443Y-13104674D01*
X12822443Y-13104674D02*
X12831967Y-13066579D01*
X12831967Y-13066579D02*
X12841491Y-13047531D01*
X12841491Y-13047531D02*
X12851015Y-13038008D01*
X12851015Y-13038008D02*
X12870062Y-13028484D01*
X13060539Y-13028484D02*
X13079586Y-13028484D01*
X13079586Y-13028484D02*
X13098634Y-13038008D01*
X13098634Y-13038008D02*
X13108158Y-13047531D01*
X13108158Y-13047531D02*
X13117682Y-13066579D01*
X13117682Y-13066579D02*
X13127205Y-13104674D01*
X13127205Y-13104674D02*
X13127205Y-13152293D01*
X13127205Y-13152293D02*
X13117682Y-13190388D01*
X13117682Y-13190388D02*
X13108158Y-13209436D01*
X13108158Y-13209436D02*
X13098634Y-13218960D01*
X13098634Y-13218960D02*
X13079586Y-13228484D01*
X13079586Y-13228484D02*
X13060539Y-13228484D01*
X13060539Y-13228484D02*
X13041491Y-13218960D01*
X13041491Y-13218960D02*
X13031967Y-13209436D01*
X13031967Y-13209436D02*
X13022443Y-13190388D01*
X13022443Y-13190388D02*
X13012920Y-13152293D01*
X13012920Y-13152293D02*
X13012920Y-13104674D01*
X13012920Y-13104674D02*
X13022443Y-13066579D01*
X13022443Y-13066579D02*
X13031967Y-13047531D01*
X13031967Y-13047531D02*
X13041491Y-13038008D01*
X13041491Y-13038008D02*
X13060539Y-13028484D01*
X13212920Y-13228484D02*
X13212920Y-13095150D01*
X13212920Y-13114198D02*
X13222443Y-13104674D01*
X13222443Y-13104674D02*
X13241491Y-13095150D01*
X13241491Y-13095150D02*
X13270063Y-13095150D01*
X13270063Y-13095150D02*
X13289110Y-13104674D01*
X13289110Y-13104674D02*
X13298634Y-13123722D01*
X13298634Y-13123722D02*
X13298634Y-13228484D01*
X13298634Y-13123722D02*
X13308158Y-13104674D01*
X13308158Y-13104674D02*
X13327205Y-13095150D01*
X13327205Y-13095150D02*
X13355777Y-13095150D01*
X13355777Y-13095150D02*
X13374824Y-13104674D01*
X13374824Y-13104674D02*
X13384348Y-13123722D01*
X13384348Y-13123722D02*
X13384348Y-13228484D01*
X13479586Y-13228484D02*
X13479586Y-13095150D01*
X13479586Y-13114198D02*
X13489110Y-13104674D01*
X13489110Y-13104674D02*
X13508158Y-13095150D01*
X13508158Y-13095150D02*
X13536729Y-13095150D01*
X13536729Y-13095150D02*
X13555777Y-13104674D01*
X13555777Y-13104674D02*
X13565301Y-13123722D01*
X13565301Y-13123722D02*
X13565301Y-13228484D01*
X13565301Y-13123722D02*
X13574824Y-13104674D01*
X13574824Y-13104674D02*
X13593872Y-13095150D01*
X13593872Y-13095150D02*
X13622443Y-13095150D01*
X13622443Y-13095150D02*
X13641491Y-13104674D01*
X13641491Y-13104674D02*
X13651015Y-13123722D01*
X13651015Y-13123722D02*
X13651015Y-13228484D01*
X14041491Y-13018960D02*
X13870063Y-13276103D01*
X14298634Y-13028484D02*
X14317682Y-13028484D01*
X14317682Y-13028484D02*
X14336729Y-13038008D01*
X14336729Y-13038008D02*
X14346253Y-13047531D01*
X14346253Y-13047531D02*
X14355777Y-13066579D01*
X14355777Y-13066579D02*
X14365301Y-13104674D01*
X14365301Y-13104674D02*
X14365301Y-13152293D01*
X14365301Y-13152293D02*
X14355777Y-13190388D01*
X14355777Y-13190388D02*
X14346253Y-13209436D01*
X14346253Y-13209436D02*
X14336729Y-13218960D01*
X14336729Y-13218960D02*
X14317682Y-13228484D01*
X14317682Y-13228484D02*
X14298634Y-13228484D01*
X14298634Y-13228484D02*
X14279586Y-13218960D01*
X14279586Y-13218960D02*
X14270063Y-13209436D01*
X14270063Y-13209436D02*
X14260539Y-13190388D01*
X14260539Y-13190388D02*
X14251015Y-13152293D01*
X14251015Y-13152293D02*
X14251015Y-13104674D01*
X14251015Y-13104674D02*
X14260539Y-13066579D01*
X14260539Y-13066579D02*
X14270063Y-13047531D01*
X14270063Y-13047531D02*
X14279586Y-13038008D01*
X14279586Y-13038008D02*
X14298634Y-13028484D01*
X14451015Y-13209436D02*
X14460539Y-13218960D01*
X14460539Y-13218960D02*
X14451015Y-13228484D01*
X14451015Y-13228484D02*
X14441491Y-13218960D01*
X14441491Y-13218960D02*
X14451015Y-13209436D01*
X14451015Y-13209436D02*
X14451015Y-13228484D01*
X14584348Y-13028484D02*
X14603396Y-13028484D01*
X14603396Y-13028484D02*
X14622444Y-13038008D01*
X14622444Y-13038008D02*
X14631967Y-13047531D01*
X14631967Y-13047531D02*
X14641491Y-13066579D01*
X14641491Y-13066579D02*
X14651015Y-13104674D01*
X14651015Y-13104674D02*
X14651015Y-13152293D01*
X14651015Y-13152293D02*
X14641491Y-13190388D01*
X14641491Y-13190388D02*
X14631967Y-13209436D01*
X14631967Y-13209436D02*
X14622444Y-13218960D01*
X14622444Y-13218960D02*
X14603396Y-13228484D01*
X14603396Y-13228484D02*
X14584348Y-13228484D01*
X14584348Y-13228484D02*
X14565301Y-13218960D01*
X14565301Y-13218960D02*
X14555777Y-13209436D01*
X14555777Y-13209436D02*
X14546253Y-13190388D01*
X14546253Y-13190388D02*
X14536729Y-13152293D01*
X14536729Y-13152293D02*
X14536729Y-13104674D01*
X14536729Y-13104674D02*
X14546253Y-13066579D01*
X14546253Y-13066579D02*
X14555777Y-13047531D01*
X14555777Y-13047531D02*
X14565301Y-13038008D01*
X14565301Y-13038008D02*
X14584348Y-13028484D01*
X14717682Y-13028484D02*
X14841491Y-13028484D01*
X14841491Y-13028484D02*
X14774825Y-13104674D01*
X14774825Y-13104674D02*
X14803396Y-13104674D01*
X14803396Y-13104674D02*
X14822444Y-13114198D01*
X14822444Y-13114198D02*
X14831967Y-13123722D01*
X14831967Y-13123722D02*
X14841491Y-13142769D01*
X14841491Y-13142769D02*
X14841491Y-13190388D01*
X14841491Y-13190388D02*
X14831967Y-13209436D01*
X14831967Y-13209436D02*
X14822444Y-13218960D01*
X14822444Y-13218960D02*
X14803396Y-13228484D01*
X14803396Y-13228484D02*
X14746253Y-13228484D01*
X14746253Y-13228484D02*
X14727206Y-13218960D01*
X14727206Y-13218960D02*
X14717682Y-13209436D01*
X15022444Y-13028484D02*
X14927206Y-13028484D01*
X14927206Y-13028484D02*
X14917682Y-13123722D01*
X14917682Y-13123722D02*
X14927206Y-13114198D01*
X14927206Y-13114198D02*
X14946253Y-13104674D01*
X14946253Y-13104674D02*
X14993872Y-13104674D01*
X14993872Y-13104674D02*
X15012920Y-13114198D01*
X15012920Y-13114198D02*
X15022444Y-13123722D01*
X15022444Y-13123722D02*
X15031967Y-13142769D01*
X15031967Y-13142769D02*
X15031967Y-13190388D01*
X15031967Y-13190388D02*
X15022444Y-13209436D01*
X15022444Y-13209436D02*
X15012920Y-13218960D01*
X15012920Y-13218960D02*
X14993872Y-13228484D01*
X14993872Y-13228484D02*
X14946253Y-13228484D01*
X14946253Y-13228484D02*
X14927206Y-13218960D01*
X14927206Y-13218960D02*
X14917682Y-13209436D01*
X15203396Y-13095150D02*
X15203396Y-13228484D01*
X15155777Y-13018960D02*
X15108158Y-13161817D01*
X15108158Y-13161817D02*
X15231967Y-13161817D01*
X15298634Y-13028484D02*
X15298634Y-13066579D01*
X15374825Y-13028484D02*
X15374825Y-13066579D01*
X15670063Y-13304674D02*
X15660539Y-13295150D01*
X15660539Y-13295150D02*
X15641491Y-13266579D01*
X15641491Y-13266579D02*
X15631968Y-13247531D01*
X15631968Y-13247531D02*
X15622444Y-13218960D01*
X15622444Y-13218960D02*
X15612920Y-13171341D01*
X15612920Y-13171341D02*
X15612920Y-13133246D01*
X15612920Y-13133246D02*
X15622444Y-13085627D01*
X15622444Y-13085627D02*
X15631968Y-13057055D01*
X15631968Y-13057055D02*
X15641491Y-13038008D01*
X15641491Y-13038008D02*
X15660539Y-13009436D01*
X15660539Y-13009436D02*
X15670063Y-12999912D01*
X15736729Y-13047531D02*
X15746253Y-13038008D01*
X15746253Y-13038008D02*
X15765301Y-13028484D01*
X15765301Y-13028484D02*
X15812920Y-13028484D01*
X15812920Y-13028484D02*
X15831968Y-13038008D01*
X15831968Y-13038008D02*
X15841491Y-13047531D01*
X15841491Y-13047531D02*
X15851015Y-13066579D01*
X15851015Y-13066579D02*
X15851015Y-13085627D01*
X15851015Y-13085627D02*
X15841491Y-13114198D01*
X15841491Y-13114198D02*
X15727206Y-13228484D01*
X15727206Y-13228484D02*
X15851015Y-13228484D01*
X16089110Y-13228484D02*
X16089110Y-13028484D01*
X16174825Y-13228484D02*
X16174825Y-13123722D01*
X16174825Y-13123722D02*
X16165301Y-13104674D01*
X16165301Y-13104674D02*
X16146253Y-13095150D01*
X16146253Y-13095150D02*
X16117682Y-13095150D01*
X16117682Y-13095150D02*
X16098634Y-13104674D01*
X16098634Y-13104674D02*
X16089110Y-13114198D01*
X16298634Y-13228484D02*
X16279587Y-13218960D01*
X16279587Y-13218960D02*
X16270063Y-13209436D01*
X16270063Y-13209436D02*
X16260539Y-13190388D01*
X16260539Y-13190388D02*
X16260539Y-13133246D01*
X16260539Y-13133246D02*
X16270063Y-13114198D01*
X16270063Y-13114198D02*
X16279587Y-13104674D01*
X16279587Y-13104674D02*
X16298634Y-13095150D01*
X16298634Y-13095150D02*
X16327206Y-13095150D01*
X16327206Y-13095150D02*
X16346253Y-13104674D01*
X16346253Y-13104674D02*
X16355777Y-13114198D01*
X16355777Y-13114198D02*
X16365301Y-13133246D01*
X16365301Y-13133246D02*
X16365301Y-13190388D01*
X16365301Y-13190388D02*
X16355777Y-13209436D01*
X16355777Y-13209436D02*
X16346253Y-13218960D01*
X16346253Y-13218960D02*
X16327206Y-13228484D01*
X16327206Y-13228484D02*
X16298634Y-13228484D01*
X16479587Y-13228484D02*
X16460539Y-13218960D01*
X16460539Y-13218960D02*
X16451015Y-13199912D01*
X16451015Y-13199912D02*
X16451015Y-13028484D01*
X16631968Y-13218960D02*
X16612920Y-13228484D01*
X16612920Y-13228484D02*
X16574825Y-13228484D01*
X16574825Y-13228484D02*
X16555777Y-13218960D01*
X16555777Y-13218960D02*
X16546253Y-13199912D01*
X16546253Y-13199912D02*
X16546253Y-13123722D01*
X16546253Y-13123722D02*
X16555777Y-13104674D01*
X16555777Y-13104674D02*
X16574825Y-13095150D01*
X16574825Y-13095150D02*
X16612920Y-13095150D01*
X16612920Y-13095150D02*
X16631968Y-13104674D01*
X16631968Y-13104674D02*
X16641491Y-13123722D01*
X16641491Y-13123722D02*
X16641491Y-13142769D01*
X16641491Y-13142769D02*
X16546253Y-13161817D01*
X16717682Y-13218960D02*
X16736730Y-13228484D01*
X16736730Y-13228484D02*
X16774825Y-13228484D01*
X16774825Y-13228484D02*
X16793873Y-13218960D01*
X16793873Y-13218960D02*
X16803396Y-13199912D01*
X16803396Y-13199912D02*
X16803396Y-13190388D01*
X16803396Y-13190388D02*
X16793873Y-13171341D01*
X16793873Y-13171341D02*
X16774825Y-13161817D01*
X16774825Y-13161817D02*
X16746253Y-13161817D01*
X16746253Y-13161817D02*
X16727206Y-13152293D01*
X16727206Y-13152293D02*
X16717682Y-13133246D01*
X16717682Y-13133246D02*
X16717682Y-13123722D01*
X16717682Y-13123722D02*
X16727206Y-13104674D01*
X16727206Y-13104674D02*
X16746253Y-13095150D01*
X16746253Y-13095150D02*
X16774825Y-13095150D01*
X16774825Y-13095150D02*
X16793873Y-13104674D01*
X16870063Y-13304674D02*
X16879587Y-13295150D01*
X16879587Y-13295150D02*
X16898634Y-13266579D01*
X16898634Y-13266579D02*
X16908158Y-13247531D01*
X16908158Y-13247531D02*
X16917682Y-13218960D01*
X16917682Y-13218960D02*
X16927206Y-13171341D01*
X16927206Y-13171341D02*
X16927206Y-13133246D01*
X16927206Y-13133246D02*
X16917682Y-13085627D01*
X16917682Y-13085627D02*
X16908158Y-13057055D01*
X16908158Y-13057055D02*
X16898634Y-13038008D01*
X16898634Y-13038008D02*
X16879587Y-13009436D01*
X16879587Y-13009436D02*
X16870063Y-12999912D01*
D10*
X12045000Y-13451000D02*
X12095000Y-13401000D01*
X12045000Y-13351000D01*
X11995000Y-13401000D01*
X12045000Y-13451000D01*
D11*
X12460539Y-13492484D02*
X12346253Y-13492484D01*
X12403396Y-13492484D02*
X12403396Y-13292484D01*
X12403396Y-13292484D02*
X12384348Y-13321055D01*
X12384348Y-13321055D02*
X12365301Y-13340103D01*
X12365301Y-13340103D02*
X12346253Y-13349627D01*
X12546253Y-13473436D02*
X12555777Y-13482960D01*
X12555777Y-13482960D02*
X12546253Y-13492484D01*
X12546253Y-13492484D02*
X12536729Y-13482960D01*
X12536729Y-13482960D02*
X12546253Y-13473436D01*
X12546253Y-13473436D02*
X12546253Y-13492484D01*
X12679586Y-13292484D02*
X12698634Y-13292484D01*
X12698634Y-13292484D02*
X12717682Y-13302008D01*
X12717682Y-13302008D02*
X12727205Y-13311531D01*
X12727205Y-13311531D02*
X12736729Y-13330579D01*
X12736729Y-13330579D02*
X12746253Y-13368674D01*
X12746253Y-13368674D02*
X12746253Y-13416293D01*
X12746253Y-13416293D02*
X12736729Y-13454388D01*
X12736729Y-13454388D02*
X12727205Y-13473436D01*
X12727205Y-13473436D02*
X12717682Y-13482960D01*
X12717682Y-13482960D02*
X12698634Y-13492484D01*
X12698634Y-13492484D02*
X12679586Y-13492484D01*
X12679586Y-13492484D02*
X12660539Y-13482960D01*
X12660539Y-13482960D02*
X12651015Y-13473436D01*
X12651015Y-13473436D02*
X12641491Y-13454388D01*
X12641491Y-13454388D02*
X12631967Y-13416293D01*
X12631967Y-13416293D02*
X12631967Y-13368674D01*
X12631967Y-13368674D02*
X12641491Y-13330579D01*
X12641491Y-13330579D02*
X12651015Y-13311531D01*
X12651015Y-13311531D02*
X12660539Y-13302008D01*
X12660539Y-13302008D02*
X12679586Y-13292484D01*
X12870062Y-13292484D02*
X12889110Y-13292484D01*
X12889110Y-13292484D02*
X12908158Y-13302008D01*
X12908158Y-13302008D02*
X12917682Y-13311531D01*
X12917682Y-13311531D02*
X12927205Y-13330579D01*
X12927205Y-13330579D02*
X12936729Y-13368674D01*
X12936729Y-13368674D02*
X12936729Y-13416293D01*
X12936729Y-13416293D02*
X12927205Y-13454388D01*
X12927205Y-13454388D02*
X12917682Y-13473436D01*
X12917682Y-13473436D02*
X12908158Y-13482960D01*
X12908158Y-13482960D02*
X12889110Y-13492484D01*
X12889110Y-13492484D02*
X12870062Y-13492484D01*
X12870062Y-13492484D02*
X12851015Y-13482960D01*
X12851015Y-13482960D02*
X12841491Y-13473436D01*
X12841491Y-13473436D02*
X12831967Y-13454388D01*
X12831967Y-13454388D02*
X12822443Y-13416293D01*
X12822443Y-13416293D02*
X12822443Y-13368674D01*
X12822443Y-13368674D02*
X12831967Y-13330579D01*
X12831967Y-13330579D02*
X12841491Y-13311531D01*
X12841491Y-13311531D02*
X12851015Y-13302008D01*
X12851015Y-13302008D02*
X12870062Y-13292484D01*
X13060539Y-13292484D02*
X13079586Y-13292484D01*
X13079586Y-13292484D02*
X13098634Y-13302008D01*
X13098634Y-13302008D02*
X13108158Y-13311531D01*
X13108158Y-13311531D02*
X13117682Y-13330579D01*
X13117682Y-13330579D02*
X13127205Y-13368674D01*
X13127205Y-13368674D02*
X13127205Y-13416293D01*
X13127205Y-13416293D02*
X13117682Y-13454388D01*
X13117682Y-13454388D02*
X13108158Y-13473436D01*
X13108158Y-13473436D02*
X13098634Y-13482960D01*
X13098634Y-13482960D02*
X13079586Y-13492484D01*
X13079586Y-13492484D02*
X13060539Y-13492484D01*
X13060539Y-13492484D02*
X13041491Y-13482960D01*
X13041491Y-13482960D02*
X13031967Y-13473436D01*
X13031967Y-13473436D02*
X13022443Y-13454388D01*
X13022443Y-13454388D02*
X13012920Y-13416293D01*
X13012920Y-13416293D02*
X13012920Y-13368674D01*
X13012920Y-13368674D02*
X13022443Y-13330579D01*
X13022443Y-13330579D02*
X13031967Y-13311531D01*
X13031967Y-13311531D02*
X13041491Y-13302008D01*
X13041491Y-13302008D02*
X13060539Y-13292484D01*
X13212920Y-13492484D02*
X13212920Y-13359150D01*
X13212920Y-13378198D02*
X13222443Y-13368674D01*
X13222443Y-13368674D02*
X13241491Y-13359150D01*
X13241491Y-13359150D02*
X13270063Y-13359150D01*
X13270063Y-13359150D02*
X13289110Y-13368674D01*
X13289110Y-13368674D02*
X13298634Y-13387722D01*
X13298634Y-13387722D02*
X13298634Y-13492484D01*
X13298634Y-13387722D02*
X13308158Y-13368674D01*
X13308158Y-13368674D02*
X13327205Y-13359150D01*
X13327205Y-13359150D02*
X13355777Y-13359150D01*
X13355777Y-13359150D02*
X13374824Y-13368674D01*
X13374824Y-13368674D02*
X13384348Y-13387722D01*
X13384348Y-13387722D02*
X13384348Y-13492484D01*
X13479586Y-13492484D02*
X13479586Y-13359150D01*
X13479586Y-13378198D02*
X13489110Y-13368674D01*
X13489110Y-13368674D02*
X13508158Y-13359150D01*
X13508158Y-13359150D02*
X13536729Y-13359150D01*
X13536729Y-13359150D02*
X13555777Y-13368674D01*
X13555777Y-13368674D02*
X13565301Y-13387722D01*
X13565301Y-13387722D02*
X13565301Y-13492484D01*
X13565301Y-13387722D02*
X13574824Y-13368674D01*
X13574824Y-13368674D02*
X13593872Y-13359150D01*
X13593872Y-13359150D02*
X13622443Y-13359150D01*
X13622443Y-13359150D02*
X13641491Y-13368674D01*
X13641491Y-13368674D02*
X13651015Y-13387722D01*
X13651015Y-13387722D02*
X13651015Y-13492484D01*
X14041491Y-13282960D02*
X13870063Y-13540103D01*
X14298634Y-13292484D02*
X14317682Y-13292484D01*
X14317682Y-13292484D02*
X14336729Y-13302008D01*
X14336729Y-13302008D02*
X14346253Y-13311531D01*
X14346253Y-13311531D02*
X14355777Y-13330579D01*
X14355777Y-13330579D02*
X14365301Y-13368674D01*
X14365301Y-13368674D02*
X14365301Y-13416293D01*
X14365301Y-13416293D02*
X14355777Y-13454388D01*
X14355777Y-13454388D02*
X14346253Y-13473436D01*
X14346253Y-13473436D02*
X14336729Y-13482960D01*
X14336729Y-13482960D02*
X14317682Y-13492484D01*
X14317682Y-13492484D02*
X14298634Y-13492484D01*
X14298634Y-13492484D02*
X14279586Y-13482960D01*
X14279586Y-13482960D02*
X14270063Y-13473436D01*
X14270063Y-13473436D02*
X14260539Y-13454388D01*
X14260539Y-13454388D02*
X14251015Y-13416293D01*
X14251015Y-13416293D02*
X14251015Y-13368674D01*
X14251015Y-13368674D02*
X14260539Y-13330579D01*
X14260539Y-13330579D02*
X14270063Y-13311531D01*
X14270063Y-13311531D02*
X14279586Y-13302008D01*
X14279586Y-13302008D02*
X14298634Y-13292484D01*
X14451015Y-13473436D02*
X14460539Y-13482960D01*
X14460539Y-13482960D02*
X14451015Y-13492484D01*
X14451015Y-13492484D02*
X14441491Y-13482960D01*
X14441491Y-13482960D02*
X14451015Y-13473436D01*
X14451015Y-13473436D02*
X14451015Y-13492484D01*
X14584348Y-13292484D02*
X14603396Y-13292484D01*
X14603396Y-13292484D02*
X14622444Y-13302008D01*
X14622444Y-13302008D02*
X14631967Y-13311531D01*
X14631967Y-13311531D02*
X14641491Y-13330579D01*
X14641491Y-13330579D02*
X14651015Y-13368674D01*
X14651015Y-13368674D02*
X14651015Y-13416293D01*
X14651015Y-13416293D02*
X14641491Y-13454388D01*
X14641491Y-13454388D02*
X14631967Y-13473436D01*
X14631967Y-13473436D02*
X14622444Y-13482960D01*
X14622444Y-13482960D02*
X14603396Y-13492484D01*
X14603396Y-13492484D02*
X14584348Y-13492484D01*
X14584348Y-13492484D02*
X14565301Y-13482960D01*
X14565301Y-13482960D02*
X14555777Y-13473436D01*
X14555777Y-13473436D02*
X14546253Y-13454388D01*
X14546253Y-13454388D02*
X14536729Y-13416293D01*
X14536729Y-13416293D02*
X14536729Y-13368674D01*
X14536729Y-13368674D02*
X14546253Y-13330579D01*
X14546253Y-13330579D02*
X14555777Y-13311531D01*
X14555777Y-13311531D02*
X14565301Y-13302008D01*
X14565301Y-13302008D02*
X14584348Y-13292484D01*
X14717682Y-13292484D02*
X14841491Y-13292484D01*
X14841491Y-13292484D02*
X14774825Y-13368674D01*
X14774825Y-13368674D02*
X14803396Y-13368674D01*
X14803396Y-13368674D02*
X14822444Y-13378198D01*
X14822444Y-13378198D02*
X14831967Y-13387722D01*
X14831967Y-13387722D02*
X14841491Y-13406769D01*
X14841491Y-13406769D02*
X14841491Y-13454388D01*
X14841491Y-13454388D02*
X14831967Y-13473436D01*
X14831967Y-13473436D02*
X14822444Y-13482960D01*
X14822444Y-13482960D02*
X14803396Y-13492484D01*
X14803396Y-13492484D02*
X14746253Y-13492484D01*
X14746253Y-13492484D02*
X14727206Y-13482960D01*
X14727206Y-13482960D02*
X14717682Y-13473436D01*
X14936729Y-13492484D02*
X14974825Y-13492484D01*
X14974825Y-13492484D02*
X14993872Y-13482960D01*
X14993872Y-13482960D02*
X15003396Y-13473436D01*
X15003396Y-13473436D02*
X15022444Y-13444865D01*
X15022444Y-13444865D02*
X15031967Y-13406769D01*
X15031967Y-13406769D02*
X15031967Y-13330579D01*
X15031967Y-13330579D02*
X15022444Y-13311531D01*
X15022444Y-13311531D02*
X15012920Y-13302008D01*
X15012920Y-13302008D02*
X14993872Y-13292484D01*
X14993872Y-13292484D02*
X14955777Y-13292484D01*
X14955777Y-13292484D02*
X14936729Y-13302008D01*
X14936729Y-13302008D02*
X14927206Y-13311531D01*
X14927206Y-13311531D02*
X14917682Y-13330579D01*
X14917682Y-13330579D02*
X14917682Y-13378198D01*
X14917682Y-13378198D02*
X14927206Y-13397246D01*
X14927206Y-13397246D02*
X14936729Y-13406769D01*
X14936729Y-13406769D02*
X14955777Y-13416293D01*
X14955777Y-13416293D02*
X14993872Y-13416293D01*
X14993872Y-13416293D02*
X15012920Y-13406769D01*
X15012920Y-13406769D02*
X15022444Y-13397246D01*
X15022444Y-13397246D02*
X15031967Y-13378198D01*
X15203396Y-13359150D02*
X15203396Y-13492484D01*
X15155777Y-13282960D02*
X15108158Y-13425817D01*
X15108158Y-13425817D02*
X15231967Y-13425817D01*
X15298634Y-13292484D02*
X15298634Y-13330579D01*
X15374825Y-13292484D02*
X15374825Y-13330579D01*
X15670063Y-13568674D02*
X15660539Y-13559150D01*
X15660539Y-13559150D02*
X15641491Y-13530579D01*
X15641491Y-13530579D02*
X15631968Y-13511531D01*
X15631968Y-13511531D02*
X15622444Y-13482960D01*
X15622444Y-13482960D02*
X15612920Y-13435341D01*
X15612920Y-13435341D02*
X15612920Y-13397246D01*
X15612920Y-13397246D02*
X15622444Y-13349627D01*
X15622444Y-13349627D02*
X15631968Y-13321055D01*
X15631968Y-13321055D02*
X15641491Y-13302008D01*
X15641491Y-13302008D02*
X15660539Y-13273436D01*
X15660539Y-13273436D02*
X15670063Y-13263912D01*
X15851015Y-13492484D02*
X15736729Y-13492484D01*
X15793872Y-13492484D02*
X15793872Y-13292484D01*
X15793872Y-13292484D02*
X15774825Y-13321055D01*
X15774825Y-13321055D02*
X15755777Y-13340103D01*
X15755777Y-13340103D02*
X15736729Y-13349627D01*
X15927206Y-13311531D02*
X15936729Y-13302008D01*
X15936729Y-13302008D02*
X15955777Y-13292484D01*
X15955777Y-13292484D02*
X16003396Y-13292484D01*
X16003396Y-13292484D02*
X16022444Y-13302008D01*
X16022444Y-13302008D02*
X16031968Y-13311531D01*
X16031968Y-13311531D02*
X16041491Y-13330579D01*
X16041491Y-13330579D02*
X16041491Y-13349627D01*
X16041491Y-13349627D02*
X16031968Y-13378198D01*
X16031968Y-13378198D02*
X15917682Y-13492484D01*
X15917682Y-13492484D02*
X16041491Y-13492484D01*
X16279587Y-13492484D02*
X16279587Y-13292484D01*
X16365301Y-13492484D02*
X16365301Y-13387722D01*
X16365301Y-13387722D02*
X16355777Y-13368674D01*
X16355777Y-13368674D02*
X16336730Y-13359150D01*
X16336730Y-13359150D02*
X16308158Y-13359150D01*
X16308158Y-13359150D02*
X16289110Y-13368674D01*
X16289110Y-13368674D02*
X16279587Y-13378198D01*
X16489110Y-13492484D02*
X16470063Y-13482960D01*
X16470063Y-13482960D02*
X16460539Y-13473436D01*
X16460539Y-13473436D02*
X16451015Y-13454388D01*
X16451015Y-13454388D02*
X16451015Y-13397246D01*
X16451015Y-13397246D02*
X16460539Y-13378198D01*
X16460539Y-13378198D02*
X16470063Y-13368674D01*
X16470063Y-13368674D02*
X16489110Y-13359150D01*
X16489110Y-13359150D02*
X16517682Y-13359150D01*
X16517682Y-13359150D02*
X16536730Y-13368674D01*
X16536730Y-13368674D02*
X16546253Y-13378198D01*
X16546253Y-13378198D02*
X16555777Y-13397246D01*
X16555777Y-13397246D02*
X16555777Y-13454388D01*
X16555777Y-13454388D02*
X16546253Y-13473436D01*
X16546253Y-13473436D02*
X16536730Y-13482960D01*
X16536730Y-13482960D02*
X16517682Y-13492484D01*
X16517682Y-13492484D02*
X16489110Y-13492484D01*
X16670063Y-13492484D02*
X16651015Y-13482960D01*
X16651015Y-13482960D02*
X16641491Y-13463912D01*
X16641491Y-13463912D02*
X16641491Y-13292484D01*
X16822444Y-13482960D02*
X16803396Y-13492484D01*
X16803396Y-13492484D02*
X16765301Y-13492484D01*
X16765301Y-13492484D02*
X16746253Y-13482960D01*
X16746253Y-13482960D02*
X16736730Y-13463912D01*
X16736730Y-13463912D02*
X16736730Y-13387722D01*
X16736730Y-13387722D02*
X16746253Y-13368674D01*
X16746253Y-13368674D02*
X16765301Y-13359150D01*
X16765301Y-13359150D02*
X16803396Y-13359150D01*
X16803396Y-13359150D02*
X16822444Y-13368674D01*
X16822444Y-13368674D02*
X16831968Y-13387722D01*
X16831968Y-13387722D02*
X16831968Y-13406769D01*
X16831968Y-13406769D02*
X16736730Y-13425817D01*
X16908158Y-13482960D02*
X16927206Y-13492484D01*
X16927206Y-13492484D02*
X16965301Y-13492484D01*
X16965301Y-13492484D02*
X16984349Y-13482960D01*
X16984349Y-13482960D02*
X16993873Y-13463912D01*
X16993873Y-13463912D02*
X16993873Y-13454388D01*
X16993873Y-13454388D02*
X16984349Y-13435341D01*
X16984349Y-13435341D02*
X16965301Y-13425817D01*
X16965301Y-13425817D02*
X16936730Y-13425817D01*
X16936730Y-13425817D02*
X16917682Y-13416293D01*
X16917682Y-13416293D02*
X16908158Y-13397246D01*
X16908158Y-13397246D02*
X16908158Y-13387722D01*
X16908158Y-13387722D02*
X16917682Y-13368674D01*
X16917682Y-13368674D02*
X16936730Y-13359150D01*
X16936730Y-13359150D02*
X16965301Y-13359150D01*
X16965301Y-13359150D02*
X16984349Y-13368674D01*
X17060539Y-13568674D02*
X17070063Y-13559150D01*
X17070063Y-13559150D02*
X17089111Y-13530579D01*
X17089111Y-13530579D02*
X17098634Y-13511531D01*
X17098634Y-13511531D02*
X17108158Y-13482960D01*
X17108158Y-13482960D02*
X17117682Y-13435341D01*
X17117682Y-13435341D02*
X17117682Y-13397246D01*
X17117682Y-13397246D02*
X17108158Y-13349627D01*
X17108158Y-13349627D02*
X17098634Y-13321055D01*
X17098634Y-13321055D02*
X17089111Y-13302008D01*
X17089111Y-13302008D02*
X17070063Y-13273436D01*
X17070063Y-13273436D02*
X17060539Y-13263912D01*
D12*
X11993400Y-13614200D02*
X12095000Y-13715800D01*
X12095000Y-13614200D02*
X11993400Y-13715800D01*
X12095000Y-13665000D02*
G75*
G02*
X11993400Y-13665000I-50800J0D01*
G01*
X11993400Y-13665000D02*
G75*
G02*
X12095000Y-13665000I50800J0D01*
G01*
D11*
X12460539Y-13756484D02*
X12346253Y-13756484D01*
X12403396Y-13756484D02*
X12403396Y-13556484D01*
X12403396Y-13556484D02*
X12384348Y-13585055D01*
X12384348Y-13585055D02*
X12365301Y-13604103D01*
X12365301Y-13604103D02*
X12346253Y-13613627D01*
X12546253Y-13737436D02*
X12555777Y-13746960D01*
X12555777Y-13746960D02*
X12546253Y-13756484D01*
X12546253Y-13756484D02*
X12536729Y-13746960D01*
X12536729Y-13746960D02*
X12546253Y-13737436D01*
X12546253Y-13737436D02*
X12546253Y-13756484D01*
X12679586Y-13556484D02*
X12698634Y-13556484D01*
X12698634Y-13556484D02*
X12717682Y-13566008D01*
X12717682Y-13566008D02*
X12727205Y-13575531D01*
X12727205Y-13575531D02*
X12736729Y-13594579D01*
X12736729Y-13594579D02*
X12746253Y-13632674D01*
X12746253Y-13632674D02*
X12746253Y-13680293D01*
X12746253Y-13680293D02*
X12736729Y-13718388D01*
X12736729Y-13718388D02*
X12727205Y-13737436D01*
X12727205Y-13737436D02*
X12717682Y-13746960D01*
X12717682Y-13746960D02*
X12698634Y-13756484D01*
X12698634Y-13756484D02*
X12679586Y-13756484D01*
X12679586Y-13756484D02*
X12660539Y-13746960D01*
X12660539Y-13746960D02*
X12651015Y-13737436D01*
X12651015Y-13737436D02*
X12641491Y-13718388D01*
X12641491Y-13718388D02*
X12631967Y-13680293D01*
X12631967Y-13680293D02*
X12631967Y-13632674D01*
X12631967Y-13632674D02*
X12641491Y-13594579D01*
X12641491Y-13594579D02*
X12651015Y-13575531D01*
X12651015Y-13575531D02*
X12660539Y-13566008D01*
X12660539Y-13566008D02*
X12679586Y-13556484D01*
X12936729Y-13756484D02*
X12822443Y-13756484D01*
X12879586Y-13756484D02*
X12879586Y-13556484D01*
X12879586Y-13556484D02*
X12860539Y-13585055D01*
X12860539Y-13585055D02*
X12841491Y-13604103D01*
X12841491Y-13604103D02*
X12822443Y-13613627D01*
X13108158Y-13556484D02*
X13070062Y-13556484D01*
X13070062Y-13556484D02*
X13051015Y-13566008D01*
X13051015Y-13566008D02*
X13041491Y-13575531D01*
X13041491Y-13575531D02*
X13022443Y-13604103D01*
X13022443Y-13604103D02*
X13012920Y-13642198D01*
X13012920Y-13642198D02*
X13012920Y-13718388D01*
X13012920Y-13718388D02*
X13022443Y-13737436D01*
X13022443Y-13737436D02*
X13031967Y-13746960D01*
X13031967Y-13746960D02*
X13051015Y-13756484D01*
X13051015Y-13756484D02*
X13089110Y-13756484D01*
X13089110Y-13756484D02*
X13108158Y-13746960D01*
X13108158Y-13746960D02*
X13117682Y-13737436D01*
X13117682Y-13737436D02*
X13127205Y-13718388D01*
X13127205Y-13718388D02*
X13127205Y-13670769D01*
X13127205Y-13670769D02*
X13117682Y-13651722D01*
X13117682Y-13651722D02*
X13108158Y-13642198D01*
X13108158Y-13642198D02*
X13089110Y-13632674D01*
X13089110Y-13632674D02*
X13051015Y-13632674D01*
X13051015Y-13632674D02*
X13031967Y-13642198D01*
X13031967Y-13642198D02*
X13022443Y-13651722D01*
X13022443Y-13651722D02*
X13012920Y-13670769D01*
X13212920Y-13756484D02*
X13212920Y-13623150D01*
X13212920Y-13642198D02*
X13222443Y-13632674D01*
X13222443Y-13632674D02*
X13241491Y-13623150D01*
X13241491Y-13623150D02*
X13270063Y-13623150D01*
X13270063Y-13623150D02*
X13289110Y-13632674D01*
X13289110Y-13632674D02*
X13298634Y-13651722D01*
X13298634Y-13651722D02*
X13298634Y-13756484D01*
X13298634Y-13651722D02*
X13308158Y-13632674D01*
X13308158Y-13632674D02*
X13327205Y-13623150D01*
X13327205Y-13623150D02*
X13355777Y-13623150D01*
X13355777Y-13623150D02*
X13374824Y-13632674D01*
X13374824Y-13632674D02*
X13384348Y-13651722D01*
X13384348Y-13651722D02*
X13384348Y-13756484D01*
X13479586Y-13756484D02*
X13479586Y-13623150D01*
X13479586Y-13642198D02*
X13489110Y-13632674D01*
X13489110Y-13632674D02*
X13508158Y-13623150D01*
X13508158Y-13623150D02*
X13536729Y-13623150D01*
X13536729Y-13623150D02*
X13555777Y-13632674D01*
X13555777Y-13632674D02*
X13565301Y-13651722D01*
X13565301Y-13651722D02*
X13565301Y-13756484D01*
X13565301Y-13651722D02*
X13574824Y-13632674D01*
X13574824Y-13632674D02*
X13593872Y-13623150D01*
X13593872Y-13623150D02*
X13622443Y-13623150D01*
X13622443Y-13623150D02*
X13641491Y-13632674D01*
X13641491Y-13632674D02*
X13651015Y-13651722D01*
X13651015Y-13651722D02*
X13651015Y-13756484D01*
X14041491Y-13546960D02*
X13870063Y-13804103D01*
X14298634Y-13556484D02*
X14317682Y-13556484D01*
X14317682Y-13556484D02*
X14336729Y-13566008D01*
X14336729Y-13566008D02*
X14346253Y-13575531D01*
X14346253Y-13575531D02*
X14355777Y-13594579D01*
X14355777Y-13594579D02*
X14365301Y-13632674D01*
X14365301Y-13632674D02*
X14365301Y-13680293D01*
X14365301Y-13680293D02*
X14355777Y-13718388D01*
X14355777Y-13718388D02*
X14346253Y-13737436D01*
X14346253Y-13737436D02*
X14336729Y-13746960D01*
X14336729Y-13746960D02*
X14317682Y-13756484D01*
X14317682Y-13756484D02*
X14298634Y-13756484D01*
X14298634Y-13756484D02*
X14279586Y-13746960D01*
X14279586Y-13746960D02*
X14270063Y-13737436D01*
X14270063Y-13737436D02*
X14260539Y-13718388D01*
X14260539Y-13718388D02*
X14251015Y-13680293D01*
X14251015Y-13680293D02*
X14251015Y-13632674D01*
X14251015Y-13632674D02*
X14260539Y-13594579D01*
X14260539Y-13594579D02*
X14270063Y-13575531D01*
X14270063Y-13575531D02*
X14279586Y-13566008D01*
X14279586Y-13566008D02*
X14298634Y-13556484D01*
X14451015Y-13737436D02*
X14460539Y-13746960D01*
X14460539Y-13746960D02*
X14451015Y-13756484D01*
X14451015Y-13756484D02*
X14441491Y-13746960D01*
X14441491Y-13746960D02*
X14451015Y-13737436D01*
X14451015Y-13737436D02*
X14451015Y-13756484D01*
X14584348Y-13556484D02*
X14603396Y-13556484D01*
X14603396Y-13556484D02*
X14622444Y-13566008D01*
X14622444Y-13566008D02*
X14631967Y-13575531D01*
X14631967Y-13575531D02*
X14641491Y-13594579D01*
X14641491Y-13594579D02*
X14651015Y-13632674D01*
X14651015Y-13632674D02*
X14651015Y-13680293D01*
X14651015Y-13680293D02*
X14641491Y-13718388D01*
X14641491Y-13718388D02*
X14631967Y-13737436D01*
X14631967Y-13737436D02*
X14622444Y-13746960D01*
X14622444Y-13746960D02*
X14603396Y-13756484D01*
X14603396Y-13756484D02*
X14584348Y-13756484D01*
X14584348Y-13756484D02*
X14565301Y-13746960D01*
X14565301Y-13746960D02*
X14555777Y-13737436D01*
X14555777Y-13737436D02*
X14546253Y-13718388D01*
X14546253Y-13718388D02*
X14536729Y-13680293D01*
X14536729Y-13680293D02*
X14536729Y-13632674D01*
X14536729Y-13632674D02*
X14546253Y-13594579D01*
X14546253Y-13594579D02*
X14555777Y-13575531D01*
X14555777Y-13575531D02*
X14565301Y-13566008D01*
X14565301Y-13566008D02*
X14584348Y-13556484D01*
X14822444Y-13623150D02*
X14822444Y-13756484D01*
X14774825Y-13546960D02*
X14727206Y-13689817D01*
X14727206Y-13689817D02*
X14851015Y-13689817D01*
X14965301Y-13556484D02*
X14984348Y-13556484D01*
X14984348Y-13556484D02*
X15003396Y-13566008D01*
X15003396Y-13566008D02*
X15012920Y-13575531D01*
X15012920Y-13575531D02*
X15022444Y-13594579D01*
X15022444Y-13594579D02*
X15031967Y-13632674D01*
X15031967Y-13632674D02*
X15031967Y-13680293D01*
X15031967Y-13680293D02*
X15022444Y-13718388D01*
X15022444Y-13718388D02*
X15012920Y-13737436D01*
X15012920Y-13737436D02*
X15003396Y-13746960D01*
X15003396Y-13746960D02*
X14984348Y-13756484D01*
X14984348Y-13756484D02*
X14965301Y-13756484D01*
X14965301Y-13756484D02*
X14946253Y-13746960D01*
X14946253Y-13746960D02*
X14936729Y-13737436D01*
X14936729Y-13737436D02*
X14927206Y-13718388D01*
X14927206Y-13718388D02*
X14917682Y-13680293D01*
X14917682Y-13680293D02*
X14917682Y-13632674D01*
X14917682Y-13632674D02*
X14927206Y-13594579D01*
X14927206Y-13594579D02*
X14936729Y-13575531D01*
X14936729Y-13575531D02*
X14946253Y-13566008D01*
X14946253Y-13566008D02*
X14965301Y-13556484D01*
X15155777Y-13556484D02*
X15174825Y-13556484D01*
X15174825Y-13556484D02*
X15193872Y-13566008D01*
X15193872Y-13566008D02*
X15203396Y-13575531D01*
X15203396Y-13575531D02*
X15212920Y-13594579D01*
X15212920Y-13594579D02*
X15222444Y-13632674D01*
X15222444Y-13632674D02*
X15222444Y-13680293D01*
X15222444Y-13680293D02*
X15212920Y-13718388D01*
X15212920Y-13718388D02*
X15203396Y-13737436D01*
X15203396Y-13737436D02*
X15193872Y-13746960D01*
X15193872Y-13746960D02*
X15174825Y-13756484D01*
X15174825Y-13756484D02*
X15155777Y-13756484D01*
X15155777Y-13756484D02*
X15136729Y-13746960D01*
X15136729Y-13746960D02*
X15127206Y-13737436D01*
X15127206Y-13737436D02*
X15117682Y-13718388D01*
X15117682Y-13718388D02*
X15108158Y-13680293D01*
X15108158Y-13680293D02*
X15108158Y-13632674D01*
X15108158Y-13632674D02*
X15117682Y-13594579D01*
X15117682Y-13594579D02*
X15127206Y-13575531D01*
X15127206Y-13575531D02*
X15136729Y-13566008D01*
X15136729Y-13566008D02*
X15155777Y-13556484D01*
X15298634Y-13556484D02*
X15298634Y-13594579D01*
X15374825Y-13556484D02*
X15374825Y-13594579D01*
X15670063Y-13832674D02*
X15660539Y-13823150D01*
X15660539Y-13823150D02*
X15641491Y-13794579D01*
X15641491Y-13794579D02*
X15631968Y-13775531D01*
X15631968Y-13775531D02*
X15622444Y-13746960D01*
X15622444Y-13746960D02*
X15612920Y-13699341D01*
X15612920Y-13699341D02*
X15612920Y-13661246D01*
X15612920Y-13661246D02*
X15622444Y-13613627D01*
X15622444Y-13613627D02*
X15631968Y-13585055D01*
X15631968Y-13585055D02*
X15641491Y-13566008D01*
X15641491Y-13566008D02*
X15660539Y-13537436D01*
X15660539Y-13537436D02*
X15670063Y-13527912D01*
X15851015Y-13756484D02*
X15736729Y-13756484D01*
X15793872Y-13756484D02*
X15793872Y-13556484D01*
X15793872Y-13556484D02*
X15774825Y-13585055D01*
X15774825Y-13585055D02*
X15755777Y-13604103D01*
X15755777Y-13604103D02*
X15736729Y-13613627D01*
X16022444Y-13556484D02*
X15984348Y-13556484D01*
X15984348Y-13556484D02*
X15965301Y-13566008D01*
X15965301Y-13566008D02*
X15955777Y-13575531D01*
X15955777Y-13575531D02*
X15936729Y-13604103D01*
X15936729Y-13604103D02*
X15927206Y-13642198D01*
X15927206Y-13642198D02*
X15927206Y-13718388D01*
X15927206Y-13718388D02*
X15936729Y-13737436D01*
X15936729Y-13737436D02*
X15946253Y-13746960D01*
X15946253Y-13746960D02*
X15965301Y-13756484D01*
X15965301Y-13756484D02*
X16003396Y-13756484D01*
X16003396Y-13756484D02*
X16022444Y-13746960D01*
X16022444Y-13746960D02*
X16031968Y-13737436D01*
X16031968Y-13737436D02*
X16041491Y-13718388D01*
X16041491Y-13718388D02*
X16041491Y-13670769D01*
X16041491Y-13670769D02*
X16031968Y-13651722D01*
X16031968Y-13651722D02*
X16022444Y-13642198D01*
X16022444Y-13642198D02*
X16003396Y-13632674D01*
X16003396Y-13632674D02*
X15965301Y-13632674D01*
X15965301Y-13632674D02*
X15946253Y-13642198D01*
X15946253Y-13642198D02*
X15936729Y-13651722D01*
X15936729Y-13651722D02*
X15927206Y-13670769D01*
X16279587Y-13756484D02*
X16279587Y-13556484D01*
X16365301Y-13756484D02*
X16365301Y-13651722D01*
X16365301Y-13651722D02*
X16355777Y-13632674D01*
X16355777Y-13632674D02*
X16336730Y-13623150D01*
X16336730Y-13623150D02*
X16308158Y-13623150D01*
X16308158Y-13623150D02*
X16289110Y-13632674D01*
X16289110Y-13632674D02*
X16279587Y-13642198D01*
X16489110Y-13756484D02*
X16470063Y-13746960D01*
X16470063Y-13746960D02*
X16460539Y-13737436D01*
X16460539Y-13737436D02*
X16451015Y-13718388D01*
X16451015Y-13718388D02*
X16451015Y-13661246D01*
X16451015Y-13661246D02*
X16460539Y-13642198D01*
X16460539Y-13642198D02*
X16470063Y-13632674D01*
X16470063Y-13632674D02*
X16489110Y-13623150D01*
X16489110Y-13623150D02*
X16517682Y-13623150D01*
X16517682Y-13623150D02*
X16536730Y-13632674D01*
X16536730Y-13632674D02*
X16546253Y-13642198D01*
X16546253Y-13642198D02*
X16555777Y-13661246D01*
X16555777Y-13661246D02*
X16555777Y-13718388D01*
X16555777Y-13718388D02*
X16546253Y-13737436D01*
X16546253Y-13737436D02*
X16536730Y-13746960D01*
X16536730Y-13746960D02*
X16517682Y-13756484D01*
X16517682Y-13756484D02*
X16489110Y-13756484D01*
X16670063Y-13756484D02*
X16651015Y-13746960D01*
X16651015Y-13746960D02*
X16641491Y-13727912D01*
X16641491Y-13727912D02*
X16641491Y-13556484D01*
X16822444Y-13746960D02*
X16803396Y-13756484D01*
X16803396Y-13756484D02*
X16765301Y-13756484D01*
X16765301Y-13756484D02*
X16746253Y-13746960D01*
X16746253Y-13746960D02*
X16736730Y-13727912D01*
X16736730Y-13727912D02*
X16736730Y-13651722D01*
X16736730Y-13651722D02*
X16746253Y-13632674D01*
X16746253Y-13632674D02*
X16765301Y-13623150D01*
X16765301Y-13623150D02*
X16803396Y-13623150D01*
X16803396Y-13623150D02*
X16822444Y-13632674D01*
X16822444Y-13632674D02*
X16831968Y-13651722D01*
X16831968Y-13651722D02*
X16831968Y-13670769D01*
X16831968Y-13670769D02*
X16736730Y-13689817D01*
X16908158Y-13746960D02*
X16927206Y-13756484D01*
X16927206Y-13756484D02*
X16965301Y-13756484D01*
X16965301Y-13756484D02*
X16984349Y-13746960D01*
X16984349Y-13746960D02*
X16993873Y-13727912D01*
X16993873Y-13727912D02*
X16993873Y-13718388D01*
X16993873Y-13718388D02*
X16984349Y-13699341D01*
X16984349Y-13699341D02*
X16965301Y-13689817D01*
X16965301Y-13689817D02*
X16936730Y-13689817D01*
X16936730Y-13689817D02*
X16917682Y-13680293D01*
X16917682Y-13680293D02*
X16908158Y-13661246D01*
X16908158Y-13661246D02*
X16908158Y-13651722D01*
X16908158Y-13651722D02*
X16917682Y-13632674D01*
X16917682Y-13632674D02*
X16936730Y-13623150D01*
X16936730Y-13623150D02*
X16965301Y-13623150D01*
X16965301Y-13623150D02*
X16984349Y-13632674D01*
X17060539Y-13832674D02*
X17070063Y-13823150D01*
X17070063Y-13823150D02*
X17089111Y-13794579D01*
X17089111Y-13794579D02*
X17098634Y-13775531D01*
X17098634Y-13775531D02*
X17108158Y-13746960D01*
X17108158Y-13746960D02*
X17117682Y-13699341D01*
X17117682Y-13699341D02*
X17117682Y-13661246D01*
X17117682Y-13661246D02*
X17108158Y-13613627D01*
X17108158Y-13613627D02*
X17098634Y-13585055D01*
X17098634Y-13585055D02*
X17089111Y-13566008D01*
X17089111Y-13566008D02*
X17070063Y-13537436D01*
X17070063Y-13537436D02*
X17060539Y-13527912D01*
D13*
X11945000Y-13854000D02*
X12095000Y-14004000D01*
X12095000Y-13854000D02*
X11945000Y-14004000D01*
X12020000Y-13854000D02*
X12020000Y-14004000D01*
X11945000Y-13929000D02*
X12095000Y-13929000D01*
D11*
X12460539Y-14020484D02*
X12346253Y-14020484D01*
X12403396Y-14020484D02*
X12403396Y-13820484D01*
X12403396Y-13820484D02*
X12384348Y-13849055D01*
X12384348Y-13849055D02*
X12365301Y-13868103D01*
X12365301Y-13868103D02*
X12346253Y-13877627D01*
X12546253Y-14001436D02*
X12555777Y-14010960D01*
X12555777Y-14010960D02*
X12546253Y-14020484D01*
X12546253Y-14020484D02*
X12536729Y-14010960D01*
X12536729Y-14010960D02*
X12546253Y-14001436D01*
X12546253Y-14001436D02*
X12546253Y-14020484D01*
X12736729Y-13820484D02*
X12641491Y-13820484D01*
X12641491Y-13820484D02*
X12631967Y-13915722D01*
X12631967Y-13915722D02*
X12641491Y-13906198D01*
X12641491Y-13906198D02*
X12660539Y-13896674D01*
X12660539Y-13896674D02*
X12708158Y-13896674D01*
X12708158Y-13896674D02*
X12727205Y-13906198D01*
X12727205Y-13906198D02*
X12736729Y-13915722D01*
X12736729Y-13915722D02*
X12746253Y-13934769D01*
X12746253Y-13934769D02*
X12746253Y-13982388D01*
X12746253Y-13982388D02*
X12736729Y-14001436D01*
X12736729Y-14001436D02*
X12727205Y-14010960D01*
X12727205Y-14010960D02*
X12708158Y-14020484D01*
X12708158Y-14020484D02*
X12660539Y-14020484D01*
X12660539Y-14020484D02*
X12641491Y-14010960D01*
X12641491Y-14010960D02*
X12631967Y-14001436D01*
X12870062Y-13820484D02*
X12889110Y-13820484D01*
X12889110Y-13820484D02*
X12908158Y-13830008D01*
X12908158Y-13830008D02*
X12917682Y-13839531D01*
X12917682Y-13839531D02*
X12927205Y-13858579D01*
X12927205Y-13858579D02*
X12936729Y-13896674D01*
X12936729Y-13896674D02*
X12936729Y-13944293D01*
X12936729Y-13944293D02*
X12927205Y-13982388D01*
X12927205Y-13982388D02*
X12917682Y-14001436D01*
X12917682Y-14001436D02*
X12908158Y-14010960D01*
X12908158Y-14010960D02*
X12889110Y-14020484D01*
X12889110Y-14020484D02*
X12870062Y-14020484D01*
X12870062Y-14020484D02*
X12851015Y-14010960D01*
X12851015Y-14010960D02*
X12841491Y-14001436D01*
X12841491Y-14001436D02*
X12831967Y-13982388D01*
X12831967Y-13982388D02*
X12822443Y-13944293D01*
X12822443Y-13944293D02*
X12822443Y-13896674D01*
X12822443Y-13896674D02*
X12831967Y-13858579D01*
X12831967Y-13858579D02*
X12841491Y-13839531D01*
X12841491Y-13839531D02*
X12851015Y-13830008D01*
X12851015Y-13830008D02*
X12870062Y-13820484D01*
X13060539Y-13820484D02*
X13079586Y-13820484D01*
X13079586Y-13820484D02*
X13098634Y-13830008D01*
X13098634Y-13830008D02*
X13108158Y-13839531D01*
X13108158Y-13839531D02*
X13117682Y-13858579D01*
X13117682Y-13858579D02*
X13127205Y-13896674D01*
X13127205Y-13896674D02*
X13127205Y-13944293D01*
X13127205Y-13944293D02*
X13117682Y-13982388D01*
X13117682Y-13982388D02*
X13108158Y-14001436D01*
X13108158Y-14001436D02*
X13098634Y-14010960D01*
X13098634Y-14010960D02*
X13079586Y-14020484D01*
X13079586Y-14020484D02*
X13060539Y-14020484D01*
X13060539Y-14020484D02*
X13041491Y-14010960D01*
X13041491Y-14010960D02*
X13031967Y-14001436D01*
X13031967Y-14001436D02*
X13022443Y-13982388D01*
X13022443Y-13982388D02*
X13012920Y-13944293D01*
X13012920Y-13944293D02*
X13012920Y-13896674D01*
X13012920Y-13896674D02*
X13022443Y-13858579D01*
X13022443Y-13858579D02*
X13031967Y-13839531D01*
X13031967Y-13839531D02*
X13041491Y-13830008D01*
X13041491Y-13830008D02*
X13060539Y-13820484D01*
X13212920Y-14020484D02*
X13212920Y-13887150D01*
X13212920Y-13906198D02*
X13222443Y-13896674D01*
X13222443Y-13896674D02*
X13241491Y-13887150D01*
X13241491Y-13887150D02*
X13270063Y-13887150D01*
X13270063Y-13887150D02*
X13289110Y-13896674D01*
X13289110Y-13896674D02*
X13298634Y-13915722D01*
X13298634Y-13915722D02*
X13298634Y-14020484D01*
X13298634Y-13915722D02*
X13308158Y-13896674D01*
X13308158Y-13896674D02*
X13327205Y-13887150D01*
X13327205Y-13887150D02*
X13355777Y-13887150D01*
X13355777Y-13887150D02*
X13374824Y-13896674D01*
X13374824Y-13896674D02*
X13384348Y-13915722D01*
X13384348Y-13915722D02*
X13384348Y-14020484D01*
X13479586Y-14020484D02*
X13479586Y-13887150D01*
X13479586Y-13906198D02*
X13489110Y-13896674D01*
X13489110Y-13896674D02*
X13508158Y-13887150D01*
X13508158Y-13887150D02*
X13536729Y-13887150D01*
X13536729Y-13887150D02*
X13555777Y-13896674D01*
X13555777Y-13896674D02*
X13565301Y-13915722D01*
X13565301Y-13915722D02*
X13565301Y-14020484D01*
X13565301Y-13915722D02*
X13574824Y-13896674D01*
X13574824Y-13896674D02*
X13593872Y-13887150D01*
X13593872Y-13887150D02*
X13622443Y-13887150D01*
X13622443Y-13887150D02*
X13641491Y-13896674D01*
X13641491Y-13896674D02*
X13651015Y-13915722D01*
X13651015Y-13915722D02*
X13651015Y-14020484D01*
X14041491Y-13810960D02*
X13870063Y-14068103D01*
X14298634Y-13820484D02*
X14317682Y-13820484D01*
X14317682Y-13820484D02*
X14336729Y-13830008D01*
X14336729Y-13830008D02*
X14346253Y-13839531D01*
X14346253Y-13839531D02*
X14355777Y-13858579D01*
X14355777Y-13858579D02*
X14365301Y-13896674D01*
X14365301Y-13896674D02*
X14365301Y-13944293D01*
X14365301Y-13944293D02*
X14355777Y-13982388D01*
X14355777Y-13982388D02*
X14346253Y-14001436D01*
X14346253Y-14001436D02*
X14336729Y-14010960D01*
X14336729Y-14010960D02*
X14317682Y-14020484D01*
X14317682Y-14020484D02*
X14298634Y-14020484D01*
X14298634Y-14020484D02*
X14279586Y-14010960D01*
X14279586Y-14010960D02*
X14270063Y-14001436D01*
X14270063Y-14001436D02*
X14260539Y-13982388D01*
X14260539Y-13982388D02*
X14251015Y-13944293D01*
X14251015Y-13944293D02*
X14251015Y-13896674D01*
X14251015Y-13896674D02*
X14260539Y-13858579D01*
X14260539Y-13858579D02*
X14270063Y-13839531D01*
X14270063Y-13839531D02*
X14279586Y-13830008D01*
X14279586Y-13830008D02*
X14298634Y-13820484D01*
X14451015Y-14001436D02*
X14460539Y-14010960D01*
X14460539Y-14010960D02*
X14451015Y-14020484D01*
X14451015Y-14020484D02*
X14441491Y-14010960D01*
X14441491Y-14010960D02*
X14451015Y-14001436D01*
X14451015Y-14001436D02*
X14451015Y-14020484D01*
X14584348Y-13820484D02*
X14603396Y-13820484D01*
X14603396Y-13820484D02*
X14622444Y-13830008D01*
X14622444Y-13830008D02*
X14631967Y-13839531D01*
X14631967Y-13839531D02*
X14641491Y-13858579D01*
X14641491Y-13858579D02*
X14651015Y-13896674D01*
X14651015Y-13896674D02*
X14651015Y-13944293D01*
X14651015Y-13944293D02*
X14641491Y-13982388D01*
X14641491Y-13982388D02*
X14631967Y-14001436D01*
X14631967Y-14001436D02*
X14622444Y-14010960D01*
X14622444Y-14010960D02*
X14603396Y-14020484D01*
X14603396Y-14020484D02*
X14584348Y-14020484D01*
X14584348Y-14020484D02*
X14565301Y-14010960D01*
X14565301Y-14010960D02*
X14555777Y-14001436D01*
X14555777Y-14001436D02*
X14546253Y-13982388D01*
X14546253Y-13982388D02*
X14536729Y-13944293D01*
X14536729Y-13944293D02*
X14536729Y-13896674D01*
X14536729Y-13896674D02*
X14546253Y-13858579D01*
X14546253Y-13858579D02*
X14555777Y-13839531D01*
X14555777Y-13839531D02*
X14565301Y-13830008D01*
X14565301Y-13830008D02*
X14584348Y-13820484D01*
X14831967Y-13820484D02*
X14736729Y-13820484D01*
X14736729Y-13820484D02*
X14727206Y-13915722D01*
X14727206Y-13915722D02*
X14736729Y-13906198D01*
X14736729Y-13906198D02*
X14755777Y-13896674D01*
X14755777Y-13896674D02*
X14803396Y-13896674D01*
X14803396Y-13896674D02*
X14822444Y-13906198D01*
X14822444Y-13906198D02*
X14831967Y-13915722D01*
X14831967Y-13915722D02*
X14841491Y-13934769D01*
X14841491Y-13934769D02*
X14841491Y-13982388D01*
X14841491Y-13982388D02*
X14831967Y-14001436D01*
X14831967Y-14001436D02*
X14822444Y-14010960D01*
X14822444Y-14010960D02*
X14803396Y-14020484D01*
X14803396Y-14020484D02*
X14755777Y-14020484D01*
X14755777Y-14020484D02*
X14736729Y-14010960D01*
X14736729Y-14010960D02*
X14727206Y-14001436D01*
X14936729Y-14020484D02*
X14974825Y-14020484D01*
X14974825Y-14020484D02*
X14993872Y-14010960D01*
X14993872Y-14010960D02*
X15003396Y-14001436D01*
X15003396Y-14001436D02*
X15022444Y-13972865D01*
X15022444Y-13972865D02*
X15031967Y-13934769D01*
X15031967Y-13934769D02*
X15031967Y-13858579D01*
X15031967Y-13858579D02*
X15022444Y-13839531D01*
X15022444Y-13839531D02*
X15012920Y-13830008D01*
X15012920Y-13830008D02*
X14993872Y-13820484D01*
X14993872Y-13820484D02*
X14955777Y-13820484D01*
X14955777Y-13820484D02*
X14936729Y-13830008D01*
X14936729Y-13830008D02*
X14927206Y-13839531D01*
X14927206Y-13839531D02*
X14917682Y-13858579D01*
X14917682Y-13858579D02*
X14917682Y-13906198D01*
X14917682Y-13906198D02*
X14927206Y-13925246D01*
X14927206Y-13925246D02*
X14936729Y-13934769D01*
X14936729Y-13934769D02*
X14955777Y-13944293D01*
X14955777Y-13944293D02*
X14993872Y-13944293D01*
X14993872Y-13944293D02*
X15012920Y-13934769D01*
X15012920Y-13934769D02*
X15022444Y-13925246D01*
X15022444Y-13925246D02*
X15031967Y-13906198D01*
X15222444Y-14020484D02*
X15108158Y-14020484D01*
X15165301Y-14020484D02*
X15165301Y-13820484D01*
X15165301Y-13820484D02*
X15146253Y-13849055D01*
X15146253Y-13849055D02*
X15127206Y-13868103D01*
X15127206Y-13868103D02*
X15108158Y-13877627D01*
X15298634Y-13820484D02*
X15298634Y-13858579D01*
X15374825Y-13820484D02*
X15374825Y-13858579D01*
X15670063Y-14096674D02*
X15660539Y-14087150D01*
X15660539Y-14087150D02*
X15641491Y-14058579D01*
X15641491Y-14058579D02*
X15631968Y-14039531D01*
X15631968Y-14039531D02*
X15622444Y-14010960D01*
X15622444Y-14010960D02*
X15612920Y-13963341D01*
X15612920Y-13963341D02*
X15612920Y-13925246D01*
X15612920Y-13925246D02*
X15622444Y-13877627D01*
X15622444Y-13877627D02*
X15631968Y-13849055D01*
X15631968Y-13849055D02*
X15641491Y-13830008D01*
X15641491Y-13830008D02*
X15660539Y-13801436D01*
X15660539Y-13801436D02*
X15670063Y-13791912D01*
X15851015Y-14020484D02*
X15736729Y-14020484D01*
X15793872Y-14020484D02*
X15793872Y-13820484D01*
X15793872Y-13820484D02*
X15774825Y-13849055D01*
X15774825Y-13849055D02*
X15755777Y-13868103D01*
X15755777Y-13868103D02*
X15736729Y-13877627D01*
X16089110Y-14020484D02*
X16089110Y-13820484D01*
X16174825Y-14020484D02*
X16174825Y-13915722D01*
X16174825Y-13915722D02*
X16165301Y-13896674D01*
X16165301Y-13896674D02*
X16146253Y-13887150D01*
X16146253Y-13887150D02*
X16117682Y-13887150D01*
X16117682Y-13887150D02*
X16098634Y-13896674D01*
X16098634Y-13896674D02*
X16089110Y-13906198D01*
X16298634Y-14020484D02*
X16279587Y-14010960D01*
X16279587Y-14010960D02*
X16270063Y-14001436D01*
X16270063Y-14001436D02*
X16260539Y-13982388D01*
X16260539Y-13982388D02*
X16260539Y-13925246D01*
X16260539Y-13925246D02*
X16270063Y-13906198D01*
X16270063Y-13906198D02*
X16279587Y-13896674D01*
X16279587Y-13896674D02*
X16298634Y-13887150D01*
X16298634Y-13887150D02*
X16327206Y-13887150D01*
X16327206Y-13887150D02*
X16346253Y-13896674D01*
X16346253Y-13896674D02*
X16355777Y-13906198D01*
X16355777Y-13906198D02*
X16365301Y-13925246D01*
X16365301Y-13925246D02*
X16365301Y-13982388D01*
X16365301Y-13982388D02*
X16355777Y-14001436D01*
X16355777Y-14001436D02*
X16346253Y-14010960D01*
X16346253Y-14010960D02*
X16327206Y-14020484D01*
X16327206Y-14020484D02*
X16298634Y-14020484D01*
X16479587Y-14020484D02*
X16460539Y-14010960D01*
X16460539Y-14010960D02*
X16451015Y-13991912D01*
X16451015Y-13991912D02*
X16451015Y-13820484D01*
X16631968Y-14010960D02*
X16612920Y-14020484D01*
X16612920Y-14020484D02*
X16574825Y-14020484D01*
X16574825Y-14020484D02*
X16555777Y-14010960D01*
X16555777Y-14010960D02*
X16546253Y-13991912D01*
X16546253Y-13991912D02*
X16546253Y-13915722D01*
X16546253Y-13915722D02*
X16555777Y-13896674D01*
X16555777Y-13896674D02*
X16574825Y-13887150D01*
X16574825Y-13887150D02*
X16612920Y-13887150D01*
X16612920Y-13887150D02*
X16631968Y-13896674D01*
X16631968Y-13896674D02*
X16641491Y-13915722D01*
X16641491Y-13915722D02*
X16641491Y-13934769D01*
X16641491Y-13934769D02*
X16546253Y-13953817D01*
X16708158Y-14096674D02*
X16717682Y-14087150D01*
X16717682Y-14087150D02*
X16736730Y-14058579D01*
X16736730Y-14058579D02*
X16746253Y-14039531D01*
X16746253Y-14039531D02*
X16755777Y-14010960D01*
X16755777Y-14010960D02*
X16765301Y-13963341D01*
X16765301Y-13963341D02*
X16765301Y-13925246D01*
X16765301Y-13925246D02*
X16755777Y-13877627D01*
X16755777Y-13877627D02*
X16746253Y-13849055D01*
X16746253Y-13849055D02*
X16736730Y-13830008D01*
X16736730Y-13830008D02*
X16717682Y-13801436D01*
X16717682Y-13801436D02*
X16708158Y-13791912D01*
D14*
X11925000Y-14114000D02*
X12095000Y-14284000D01*
X12095000Y-14114000D02*
X11925000Y-14284000D01*
X12070105Y-14259105D02*
X12070105Y-14138895D01*
X11949895Y-14138895D01*
X11949895Y-14259105D01*
X12070105Y-14259105D01*
D11*
X12460539Y-14290484D02*
X12346253Y-14290484D01*
X12403396Y-14290484D02*
X12403396Y-14090484D01*
X12403396Y-14090484D02*
X12384348Y-14119055D01*
X12384348Y-14119055D02*
X12365301Y-14138103D01*
X12365301Y-14138103D02*
X12346253Y-14147627D01*
X12546253Y-14271436D02*
X12555777Y-14280960D01*
X12555777Y-14280960D02*
X12546253Y-14290484D01*
X12546253Y-14290484D02*
X12536729Y-14280960D01*
X12536729Y-14280960D02*
X12546253Y-14271436D01*
X12546253Y-14271436D02*
X12546253Y-14290484D01*
X12622443Y-14090484D02*
X12755777Y-14090484D01*
X12755777Y-14090484D02*
X12670062Y-14290484D01*
X12870062Y-14090484D02*
X12889110Y-14090484D01*
X12889110Y-14090484D02*
X12908158Y-14100008D01*
X12908158Y-14100008D02*
X12917682Y-14109531D01*
X12917682Y-14109531D02*
X12927205Y-14128579D01*
X12927205Y-14128579D02*
X12936729Y-14166674D01*
X12936729Y-14166674D02*
X12936729Y-14214293D01*
X12936729Y-14214293D02*
X12927205Y-14252388D01*
X12927205Y-14252388D02*
X12917682Y-14271436D01*
X12917682Y-14271436D02*
X12908158Y-14280960D01*
X12908158Y-14280960D02*
X12889110Y-14290484D01*
X12889110Y-14290484D02*
X12870062Y-14290484D01*
X12870062Y-14290484D02*
X12851015Y-14280960D01*
X12851015Y-14280960D02*
X12841491Y-14271436D01*
X12841491Y-14271436D02*
X12831967Y-14252388D01*
X12831967Y-14252388D02*
X12822443Y-14214293D01*
X12822443Y-14214293D02*
X12822443Y-14166674D01*
X12822443Y-14166674D02*
X12831967Y-14128579D01*
X12831967Y-14128579D02*
X12841491Y-14109531D01*
X12841491Y-14109531D02*
X12851015Y-14100008D01*
X12851015Y-14100008D02*
X12870062Y-14090484D01*
X13060539Y-14090484D02*
X13079586Y-14090484D01*
X13079586Y-14090484D02*
X13098634Y-14100008D01*
X13098634Y-14100008D02*
X13108158Y-14109531D01*
X13108158Y-14109531D02*
X13117682Y-14128579D01*
X13117682Y-14128579D02*
X13127205Y-14166674D01*
X13127205Y-14166674D02*
X13127205Y-14214293D01*
X13127205Y-14214293D02*
X13117682Y-14252388D01*
X13117682Y-14252388D02*
X13108158Y-14271436D01*
X13108158Y-14271436D02*
X13098634Y-14280960D01*
X13098634Y-14280960D02*
X13079586Y-14290484D01*
X13079586Y-14290484D02*
X13060539Y-14290484D01*
X13060539Y-14290484D02*
X13041491Y-14280960D01*
X13041491Y-14280960D02*
X13031967Y-14271436D01*
X13031967Y-14271436D02*
X13022443Y-14252388D01*
X13022443Y-14252388D02*
X13012920Y-14214293D01*
X13012920Y-14214293D02*
X13012920Y-14166674D01*
X13012920Y-14166674D02*
X13022443Y-14128579D01*
X13022443Y-14128579D02*
X13031967Y-14109531D01*
X13031967Y-14109531D02*
X13041491Y-14100008D01*
X13041491Y-14100008D02*
X13060539Y-14090484D01*
X13212920Y-14290484D02*
X13212920Y-14157150D01*
X13212920Y-14176198D02*
X13222443Y-14166674D01*
X13222443Y-14166674D02*
X13241491Y-14157150D01*
X13241491Y-14157150D02*
X13270063Y-14157150D01*
X13270063Y-14157150D02*
X13289110Y-14166674D01*
X13289110Y-14166674D02*
X13298634Y-14185722D01*
X13298634Y-14185722D02*
X13298634Y-14290484D01*
X13298634Y-14185722D02*
X13308158Y-14166674D01*
X13308158Y-14166674D02*
X13327205Y-14157150D01*
X13327205Y-14157150D02*
X13355777Y-14157150D01*
X13355777Y-14157150D02*
X13374824Y-14166674D01*
X13374824Y-14166674D02*
X13384348Y-14185722D01*
X13384348Y-14185722D02*
X13384348Y-14290484D01*
X13479586Y-14290484D02*
X13479586Y-14157150D01*
X13479586Y-14176198D02*
X13489110Y-14166674D01*
X13489110Y-14166674D02*
X13508158Y-14157150D01*
X13508158Y-14157150D02*
X13536729Y-14157150D01*
X13536729Y-14157150D02*
X13555777Y-14166674D01*
X13555777Y-14166674D02*
X13565301Y-14185722D01*
X13565301Y-14185722D02*
X13565301Y-14290484D01*
X13565301Y-14185722D02*
X13574824Y-14166674D01*
X13574824Y-14166674D02*
X13593872Y-14157150D01*
X13593872Y-14157150D02*
X13622443Y-14157150D01*
X13622443Y-14157150D02*
X13641491Y-14166674D01*
X13641491Y-14166674D02*
X13651015Y-14185722D01*
X13651015Y-14185722D02*
X13651015Y-14290484D01*
X14041491Y-14080960D02*
X13870063Y-14338103D01*
X14298634Y-14090484D02*
X14317682Y-14090484D01*
X14317682Y-14090484D02*
X14336729Y-14100008D01*
X14336729Y-14100008D02*
X14346253Y-14109531D01*
X14346253Y-14109531D02*
X14355777Y-14128579D01*
X14355777Y-14128579D02*
X14365301Y-14166674D01*
X14365301Y-14166674D02*
X14365301Y-14214293D01*
X14365301Y-14214293D02*
X14355777Y-14252388D01*
X14355777Y-14252388D02*
X14346253Y-14271436D01*
X14346253Y-14271436D02*
X14336729Y-14280960D01*
X14336729Y-14280960D02*
X14317682Y-14290484D01*
X14317682Y-14290484D02*
X14298634Y-14290484D01*
X14298634Y-14290484D02*
X14279586Y-14280960D01*
X14279586Y-14280960D02*
X14270063Y-14271436D01*
X14270063Y-14271436D02*
X14260539Y-14252388D01*
X14260539Y-14252388D02*
X14251015Y-14214293D01*
X14251015Y-14214293D02*
X14251015Y-14166674D01*
X14251015Y-14166674D02*
X14260539Y-14128579D01*
X14260539Y-14128579D02*
X14270063Y-14109531D01*
X14270063Y-14109531D02*
X14279586Y-14100008D01*
X14279586Y-14100008D02*
X14298634Y-14090484D01*
X14451015Y-14271436D02*
X14460539Y-14280960D01*
X14460539Y-14280960D02*
X14451015Y-14290484D01*
X14451015Y-14290484D02*
X14441491Y-14280960D01*
X14441491Y-14280960D02*
X14451015Y-14271436D01*
X14451015Y-14271436D02*
X14451015Y-14290484D01*
X14584348Y-14090484D02*
X14603396Y-14090484D01*
X14603396Y-14090484D02*
X14622444Y-14100008D01*
X14622444Y-14100008D02*
X14631967Y-14109531D01*
X14631967Y-14109531D02*
X14641491Y-14128579D01*
X14641491Y-14128579D02*
X14651015Y-14166674D01*
X14651015Y-14166674D02*
X14651015Y-14214293D01*
X14651015Y-14214293D02*
X14641491Y-14252388D01*
X14641491Y-14252388D02*
X14631967Y-14271436D01*
X14631967Y-14271436D02*
X14622444Y-14280960D01*
X14622444Y-14280960D02*
X14603396Y-14290484D01*
X14603396Y-14290484D02*
X14584348Y-14290484D01*
X14584348Y-14290484D02*
X14565301Y-14280960D01*
X14565301Y-14280960D02*
X14555777Y-14271436D01*
X14555777Y-14271436D02*
X14546253Y-14252388D01*
X14546253Y-14252388D02*
X14536729Y-14214293D01*
X14536729Y-14214293D02*
X14536729Y-14166674D01*
X14536729Y-14166674D02*
X14546253Y-14128579D01*
X14546253Y-14128579D02*
X14555777Y-14109531D01*
X14555777Y-14109531D02*
X14565301Y-14100008D01*
X14565301Y-14100008D02*
X14584348Y-14090484D01*
X14822444Y-14090484D02*
X14784348Y-14090484D01*
X14784348Y-14090484D02*
X14765301Y-14100008D01*
X14765301Y-14100008D02*
X14755777Y-14109531D01*
X14755777Y-14109531D02*
X14736729Y-14138103D01*
X14736729Y-14138103D02*
X14727206Y-14176198D01*
X14727206Y-14176198D02*
X14727206Y-14252388D01*
X14727206Y-14252388D02*
X14736729Y-14271436D01*
X14736729Y-14271436D02*
X14746253Y-14280960D01*
X14746253Y-14280960D02*
X14765301Y-14290484D01*
X14765301Y-14290484D02*
X14803396Y-14290484D01*
X14803396Y-14290484D02*
X14822444Y-14280960D01*
X14822444Y-14280960D02*
X14831967Y-14271436D01*
X14831967Y-14271436D02*
X14841491Y-14252388D01*
X14841491Y-14252388D02*
X14841491Y-14204769D01*
X14841491Y-14204769D02*
X14831967Y-14185722D01*
X14831967Y-14185722D02*
X14822444Y-14176198D01*
X14822444Y-14176198D02*
X14803396Y-14166674D01*
X14803396Y-14166674D02*
X14765301Y-14166674D01*
X14765301Y-14166674D02*
X14746253Y-14176198D01*
X14746253Y-14176198D02*
X14736729Y-14185722D01*
X14736729Y-14185722D02*
X14727206Y-14204769D01*
X15012920Y-14090484D02*
X14974825Y-14090484D01*
X14974825Y-14090484D02*
X14955777Y-14100008D01*
X14955777Y-14100008D02*
X14946253Y-14109531D01*
X14946253Y-14109531D02*
X14927206Y-14138103D01*
X14927206Y-14138103D02*
X14917682Y-14176198D01*
X14917682Y-14176198D02*
X14917682Y-14252388D01*
X14917682Y-14252388D02*
X14927206Y-14271436D01*
X14927206Y-14271436D02*
X14936729Y-14280960D01*
X14936729Y-14280960D02*
X14955777Y-14290484D01*
X14955777Y-14290484D02*
X14993872Y-14290484D01*
X14993872Y-14290484D02*
X15012920Y-14280960D01*
X15012920Y-14280960D02*
X15022444Y-14271436D01*
X15022444Y-14271436D02*
X15031967Y-14252388D01*
X15031967Y-14252388D02*
X15031967Y-14204769D01*
X15031967Y-14204769D02*
X15022444Y-14185722D01*
X15022444Y-14185722D02*
X15012920Y-14176198D01*
X15012920Y-14176198D02*
X14993872Y-14166674D01*
X14993872Y-14166674D02*
X14955777Y-14166674D01*
X14955777Y-14166674D02*
X14936729Y-14176198D01*
X14936729Y-14176198D02*
X14927206Y-14185722D01*
X14927206Y-14185722D02*
X14917682Y-14204769D01*
X15127206Y-14290484D02*
X15165301Y-14290484D01*
X15165301Y-14290484D02*
X15184348Y-14280960D01*
X15184348Y-14280960D02*
X15193872Y-14271436D01*
X15193872Y-14271436D02*
X15212920Y-14242865D01*
X15212920Y-14242865D02*
X15222444Y-14204769D01*
X15222444Y-14204769D02*
X15222444Y-14128579D01*
X15222444Y-14128579D02*
X15212920Y-14109531D01*
X15212920Y-14109531D02*
X15203396Y-14100008D01*
X15203396Y-14100008D02*
X15184348Y-14090484D01*
X15184348Y-14090484D02*
X15146253Y-14090484D01*
X15146253Y-14090484D02*
X15127206Y-14100008D01*
X15127206Y-14100008D02*
X15117682Y-14109531D01*
X15117682Y-14109531D02*
X15108158Y-14128579D01*
X15108158Y-14128579D02*
X15108158Y-14176198D01*
X15108158Y-14176198D02*
X15117682Y-14195246D01*
X15117682Y-14195246D02*
X15127206Y-14204769D01*
X15127206Y-14204769D02*
X15146253Y-14214293D01*
X15146253Y-14214293D02*
X15184348Y-14214293D01*
X15184348Y-14214293D02*
X15203396Y-14204769D01*
X15203396Y-14204769D02*
X15212920Y-14195246D01*
X15212920Y-14195246D02*
X15222444Y-14176198D01*
X15298634Y-14090484D02*
X15298634Y-14128579D01*
X15374825Y-14090484D02*
X15374825Y-14128579D01*
X15670063Y-14366674D02*
X15660539Y-14357150D01*
X15660539Y-14357150D02*
X15641491Y-14328579D01*
X15641491Y-14328579D02*
X15631968Y-14309531D01*
X15631968Y-14309531D02*
X15622444Y-14280960D01*
X15622444Y-14280960D02*
X15612920Y-14233341D01*
X15612920Y-14233341D02*
X15612920Y-14195246D01*
X15612920Y-14195246D02*
X15622444Y-14147627D01*
X15622444Y-14147627D02*
X15631968Y-14119055D01*
X15631968Y-14119055D02*
X15641491Y-14100008D01*
X15641491Y-14100008D02*
X15660539Y-14071436D01*
X15660539Y-14071436D02*
X15670063Y-14061912D01*
X15831968Y-14157150D02*
X15831968Y-14290484D01*
X15784348Y-14080960D02*
X15736729Y-14223817D01*
X15736729Y-14223817D02*
X15860539Y-14223817D01*
X16089110Y-14290484D02*
X16089110Y-14090484D01*
X16174825Y-14290484D02*
X16174825Y-14185722D01*
X16174825Y-14185722D02*
X16165301Y-14166674D01*
X16165301Y-14166674D02*
X16146253Y-14157150D01*
X16146253Y-14157150D02*
X16117682Y-14157150D01*
X16117682Y-14157150D02*
X16098634Y-14166674D01*
X16098634Y-14166674D02*
X16089110Y-14176198D01*
X16298634Y-14290484D02*
X16279587Y-14280960D01*
X16279587Y-14280960D02*
X16270063Y-14271436D01*
X16270063Y-14271436D02*
X16260539Y-14252388D01*
X16260539Y-14252388D02*
X16260539Y-14195246D01*
X16260539Y-14195246D02*
X16270063Y-14176198D01*
X16270063Y-14176198D02*
X16279587Y-14166674D01*
X16279587Y-14166674D02*
X16298634Y-14157150D01*
X16298634Y-14157150D02*
X16327206Y-14157150D01*
X16327206Y-14157150D02*
X16346253Y-14166674D01*
X16346253Y-14166674D02*
X16355777Y-14176198D01*
X16355777Y-14176198D02*
X16365301Y-14195246D01*
X16365301Y-14195246D02*
X16365301Y-14252388D01*
X16365301Y-14252388D02*
X16355777Y-14271436D01*
X16355777Y-14271436D02*
X16346253Y-14280960D01*
X16346253Y-14280960D02*
X16327206Y-14290484D01*
X16327206Y-14290484D02*
X16298634Y-14290484D01*
X16479587Y-14290484D02*
X16460539Y-14280960D01*
X16460539Y-14280960D02*
X16451015Y-14261912D01*
X16451015Y-14261912D02*
X16451015Y-14090484D01*
X16631968Y-14280960D02*
X16612920Y-14290484D01*
X16612920Y-14290484D02*
X16574825Y-14290484D01*
X16574825Y-14290484D02*
X16555777Y-14280960D01*
X16555777Y-14280960D02*
X16546253Y-14261912D01*
X16546253Y-14261912D02*
X16546253Y-14185722D01*
X16546253Y-14185722D02*
X16555777Y-14166674D01*
X16555777Y-14166674D02*
X16574825Y-14157150D01*
X16574825Y-14157150D02*
X16612920Y-14157150D01*
X16612920Y-14157150D02*
X16631968Y-14166674D01*
X16631968Y-14166674D02*
X16641491Y-14185722D01*
X16641491Y-14185722D02*
X16641491Y-14204769D01*
X16641491Y-14204769D02*
X16546253Y-14223817D01*
X16717682Y-14280960D02*
X16736730Y-14290484D01*
X16736730Y-14290484D02*
X16774825Y-14290484D01*
X16774825Y-14290484D02*
X16793873Y-14280960D01*
X16793873Y-14280960D02*
X16803396Y-14261912D01*
X16803396Y-14261912D02*
X16803396Y-14252388D01*
X16803396Y-14252388D02*
X16793873Y-14233341D01*
X16793873Y-14233341D02*
X16774825Y-14223817D01*
X16774825Y-14223817D02*
X16746253Y-14223817D01*
X16746253Y-14223817D02*
X16727206Y-14214293D01*
X16727206Y-14214293D02*
X16717682Y-14195246D01*
X16717682Y-14195246D02*
X16717682Y-14185722D01*
X16717682Y-14185722D02*
X16727206Y-14166674D01*
X16727206Y-14166674D02*
X16746253Y-14157150D01*
X16746253Y-14157150D02*
X16774825Y-14157150D01*
X16774825Y-14157150D02*
X16793873Y-14166674D01*
X16870063Y-14366674D02*
X16879587Y-14357150D01*
X16879587Y-14357150D02*
X16898634Y-14328579D01*
X16898634Y-14328579D02*
X16908158Y-14309531D01*
X16908158Y-14309531D02*
X16917682Y-14280960D01*
X16917682Y-14280960D02*
X16927206Y-14233341D01*
X16927206Y-14233341D02*
X16927206Y-14195246D01*
X16927206Y-14195246D02*
X16917682Y-14147627D01*
X16917682Y-14147627D02*
X16908158Y-14119055D01*
X16908158Y-14119055D02*
X16898634Y-14100008D01*
X16898634Y-14100008D02*
X16879587Y-14071436D01*
X16879587Y-14071436D02*
X16870063Y-14061912D01*
X11895000Y-14389000D02*
X12095000Y-14589000D01*
X12095000Y-14389000D02*
X11895000Y-14589000D01*
X11995000Y-14589000D02*
X12095000Y-14489000D01*
X11995000Y-14389000D01*
X11895000Y-14489000D01*
X11995000Y-14589000D01*
X12336729Y-14380484D02*
X12460539Y-14380484D01*
X12460539Y-14380484D02*
X12393872Y-14456674D01*
X12393872Y-14456674D02*
X12422443Y-14456674D01*
X12422443Y-14456674D02*
X12441491Y-14466198D01*
X12441491Y-14466198D02*
X12451015Y-14475722D01*
X12451015Y-14475722D02*
X12460539Y-14494769D01*
X12460539Y-14494769D02*
X12460539Y-14542388D01*
X12460539Y-14542388D02*
X12451015Y-14561436D01*
X12451015Y-14561436D02*
X12441491Y-14570960D01*
X12441491Y-14570960D02*
X12422443Y-14580484D01*
X12422443Y-14580484D02*
X12365301Y-14580484D01*
X12365301Y-14580484D02*
X12346253Y-14570960D01*
X12346253Y-14570960D02*
X12336729Y-14561436D01*
X12546253Y-14561436D02*
X12555777Y-14570960D01*
X12555777Y-14570960D02*
X12546253Y-14580484D01*
X12546253Y-14580484D02*
X12536729Y-14570960D01*
X12536729Y-14570960D02*
X12546253Y-14561436D01*
X12546253Y-14561436D02*
X12546253Y-14580484D01*
X12631967Y-14399531D02*
X12641491Y-14390008D01*
X12641491Y-14390008D02*
X12660539Y-14380484D01*
X12660539Y-14380484D02*
X12708158Y-14380484D01*
X12708158Y-14380484D02*
X12727205Y-14390008D01*
X12727205Y-14390008D02*
X12736729Y-14399531D01*
X12736729Y-14399531D02*
X12746253Y-14418579D01*
X12746253Y-14418579D02*
X12746253Y-14437627D01*
X12746253Y-14437627D02*
X12736729Y-14466198D01*
X12736729Y-14466198D02*
X12622443Y-14580484D01*
X12622443Y-14580484D02*
X12746253Y-14580484D01*
X12870062Y-14380484D02*
X12889110Y-14380484D01*
X12889110Y-14380484D02*
X12908158Y-14390008D01*
X12908158Y-14390008D02*
X12917682Y-14399531D01*
X12917682Y-14399531D02*
X12927205Y-14418579D01*
X12927205Y-14418579D02*
X12936729Y-14456674D01*
X12936729Y-14456674D02*
X12936729Y-14504293D01*
X12936729Y-14504293D02*
X12927205Y-14542388D01*
X12927205Y-14542388D02*
X12917682Y-14561436D01*
X12917682Y-14561436D02*
X12908158Y-14570960D01*
X12908158Y-14570960D02*
X12889110Y-14580484D01*
X12889110Y-14580484D02*
X12870062Y-14580484D01*
X12870062Y-14580484D02*
X12851015Y-14570960D01*
X12851015Y-14570960D02*
X12841491Y-14561436D01*
X12841491Y-14561436D02*
X12831967Y-14542388D01*
X12831967Y-14542388D02*
X12822443Y-14504293D01*
X12822443Y-14504293D02*
X12822443Y-14456674D01*
X12822443Y-14456674D02*
X12831967Y-14418579D01*
X12831967Y-14418579D02*
X12841491Y-14399531D01*
X12841491Y-14399531D02*
X12851015Y-14390008D01*
X12851015Y-14390008D02*
X12870062Y-14380484D01*
X13060539Y-14380484D02*
X13079586Y-14380484D01*
X13079586Y-14380484D02*
X13098634Y-14390008D01*
X13098634Y-14390008D02*
X13108158Y-14399531D01*
X13108158Y-14399531D02*
X13117682Y-14418579D01*
X13117682Y-14418579D02*
X13127205Y-14456674D01*
X13127205Y-14456674D02*
X13127205Y-14504293D01*
X13127205Y-14504293D02*
X13117682Y-14542388D01*
X13117682Y-14542388D02*
X13108158Y-14561436D01*
X13108158Y-14561436D02*
X13098634Y-14570960D01*
X13098634Y-14570960D02*
X13079586Y-14580484D01*
X13079586Y-14580484D02*
X13060539Y-14580484D01*
X13060539Y-14580484D02*
X13041491Y-14570960D01*
X13041491Y-14570960D02*
X13031967Y-14561436D01*
X13031967Y-14561436D02*
X13022443Y-14542388D01*
X13022443Y-14542388D02*
X13012920Y-14504293D01*
X13012920Y-14504293D02*
X13012920Y-14456674D01*
X13012920Y-14456674D02*
X13022443Y-14418579D01*
X13022443Y-14418579D02*
X13031967Y-14399531D01*
X13031967Y-14399531D02*
X13041491Y-14390008D01*
X13041491Y-14390008D02*
X13060539Y-14380484D01*
X13212920Y-14580484D02*
X13212920Y-14447150D01*
X13212920Y-14466198D02*
X13222443Y-14456674D01*
X13222443Y-14456674D02*
X13241491Y-14447150D01*
X13241491Y-14447150D02*
X13270063Y-14447150D01*
X13270063Y-14447150D02*
X13289110Y-14456674D01*
X13289110Y-14456674D02*
X13298634Y-14475722D01*
X13298634Y-14475722D02*
X13298634Y-14580484D01*
X13298634Y-14475722D02*
X13308158Y-14456674D01*
X13308158Y-14456674D02*
X13327205Y-14447150D01*
X13327205Y-14447150D02*
X13355777Y-14447150D01*
X13355777Y-14447150D02*
X13374824Y-14456674D01*
X13374824Y-14456674D02*
X13384348Y-14475722D01*
X13384348Y-14475722D02*
X13384348Y-14580484D01*
X13479586Y-14580484D02*
X13479586Y-14447150D01*
X13479586Y-14466198D02*
X13489110Y-14456674D01*
X13489110Y-14456674D02*
X13508158Y-14447150D01*
X13508158Y-14447150D02*
X13536729Y-14447150D01*
X13536729Y-14447150D02*
X13555777Y-14456674D01*
X13555777Y-14456674D02*
X13565301Y-14475722D01*
X13565301Y-14475722D02*
X13565301Y-14580484D01*
X13565301Y-14475722D02*
X13574824Y-14456674D01*
X13574824Y-14456674D02*
X13593872Y-14447150D01*
X13593872Y-14447150D02*
X13622443Y-14447150D01*
X13622443Y-14447150D02*
X13641491Y-14456674D01*
X13641491Y-14456674D02*
X13651015Y-14475722D01*
X13651015Y-14475722D02*
X13651015Y-14580484D01*
X14041491Y-14370960D02*
X13870063Y-14628103D01*
X14298634Y-14380484D02*
X14317682Y-14380484D01*
X14317682Y-14380484D02*
X14336729Y-14390008D01*
X14336729Y-14390008D02*
X14346253Y-14399531D01*
X14346253Y-14399531D02*
X14355777Y-14418579D01*
X14355777Y-14418579D02*
X14365301Y-14456674D01*
X14365301Y-14456674D02*
X14365301Y-14504293D01*
X14365301Y-14504293D02*
X14355777Y-14542388D01*
X14355777Y-14542388D02*
X14346253Y-14561436D01*
X14346253Y-14561436D02*
X14336729Y-14570960D01*
X14336729Y-14570960D02*
X14317682Y-14580484D01*
X14317682Y-14580484D02*
X14298634Y-14580484D01*
X14298634Y-14580484D02*
X14279586Y-14570960D01*
X14279586Y-14570960D02*
X14270063Y-14561436D01*
X14270063Y-14561436D02*
X14260539Y-14542388D01*
X14260539Y-14542388D02*
X14251015Y-14504293D01*
X14251015Y-14504293D02*
X14251015Y-14456674D01*
X14251015Y-14456674D02*
X14260539Y-14418579D01*
X14260539Y-14418579D02*
X14270063Y-14399531D01*
X14270063Y-14399531D02*
X14279586Y-14390008D01*
X14279586Y-14390008D02*
X14298634Y-14380484D01*
X14451015Y-14561436D02*
X14460539Y-14570960D01*
X14460539Y-14570960D02*
X14451015Y-14580484D01*
X14451015Y-14580484D02*
X14441491Y-14570960D01*
X14441491Y-14570960D02*
X14451015Y-14561436D01*
X14451015Y-14561436D02*
X14451015Y-14580484D01*
X14651015Y-14580484D02*
X14536729Y-14580484D01*
X14593872Y-14580484D02*
X14593872Y-14380484D01*
X14593872Y-14380484D02*
X14574825Y-14409055D01*
X14574825Y-14409055D02*
X14555777Y-14428103D01*
X14555777Y-14428103D02*
X14536729Y-14437627D01*
X14727206Y-14399531D02*
X14736729Y-14390008D01*
X14736729Y-14390008D02*
X14755777Y-14380484D01*
X14755777Y-14380484D02*
X14803396Y-14380484D01*
X14803396Y-14380484D02*
X14822444Y-14390008D01*
X14822444Y-14390008D02*
X14831967Y-14399531D01*
X14831967Y-14399531D02*
X14841491Y-14418579D01*
X14841491Y-14418579D02*
X14841491Y-14437627D01*
X14841491Y-14437627D02*
X14831967Y-14466198D01*
X14831967Y-14466198D02*
X14717682Y-14580484D01*
X14717682Y-14580484D02*
X14841491Y-14580484D01*
X15012920Y-14380484D02*
X14974825Y-14380484D01*
X14974825Y-14380484D02*
X14955777Y-14390008D01*
X14955777Y-14390008D02*
X14946253Y-14399531D01*
X14946253Y-14399531D02*
X14927206Y-14428103D01*
X14927206Y-14428103D02*
X14917682Y-14466198D01*
X14917682Y-14466198D02*
X14917682Y-14542388D01*
X14917682Y-14542388D02*
X14927206Y-14561436D01*
X14927206Y-14561436D02*
X14936729Y-14570960D01*
X14936729Y-14570960D02*
X14955777Y-14580484D01*
X14955777Y-14580484D02*
X14993872Y-14580484D01*
X14993872Y-14580484D02*
X15012920Y-14570960D01*
X15012920Y-14570960D02*
X15022444Y-14561436D01*
X15022444Y-14561436D02*
X15031967Y-14542388D01*
X15031967Y-14542388D02*
X15031967Y-14494769D01*
X15031967Y-14494769D02*
X15022444Y-14475722D01*
X15022444Y-14475722D02*
X15012920Y-14466198D01*
X15012920Y-14466198D02*
X14993872Y-14456674D01*
X14993872Y-14456674D02*
X14955777Y-14456674D01*
X14955777Y-14456674D02*
X14936729Y-14466198D01*
X14936729Y-14466198D02*
X14927206Y-14475722D01*
X14927206Y-14475722D02*
X14917682Y-14494769D01*
X15155777Y-14380484D02*
X15174825Y-14380484D01*
X15174825Y-14380484D02*
X15193872Y-14390008D01*
X15193872Y-14390008D02*
X15203396Y-14399531D01*
X15203396Y-14399531D02*
X15212920Y-14418579D01*
X15212920Y-14418579D02*
X15222444Y-14456674D01*
X15222444Y-14456674D02*
X15222444Y-14504293D01*
X15222444Y-14504293D02*
X15212920Y-14542388D01*
X15212920Y-14542388D02*
X15203396Y-14561436D01*
X15203396Y-14561436D02*
X15193872Y-14570960D01*
X15193872Y-14570960D02*
X15174825Y-14580484D01*
X15174825Y-14580484D02*
X15155777Y-14580484D01*
X15155777Y-14580484D02*
X15136729Y-14570960D01*
X15136729Y-14570960D02*
X15127206Y-14561436D01*
X15127206Y-14561436D02*
X15117682Y-14542388D01*
X15117682Y-14542388D02*
X15108158Y-14504293D01*
X15108158Y-14504293D02*
X15108158Y-14456674D01*
X15108158Y-14456674D02*
X15117682Y-14418579D01*
X15117682Y-14418579D02*
X15127206Y-14399531D01*
X15127206Y-14399531D02*
X15136729Y-14390008D01*
X15136729Y-14390008D02*
X15155777Y-14380484D01*
X15298634Y-14380484D02*
X15298634Y-14418579D01*
X15374825Y-14380484D02*
X15374825Y-14418579D01*
X15670063Y-14656674D02*
X15660539Y-14647150D01*
X15660539Y-14647150D02*
X15641491Y-14618579D01*
X15641491Y-14618579D02*
X15631968Y-14599531D01*
X15631968Y-14599531D02*
X15622444Y-14570960D01*
X15622444Y-14570960D02*
X15612920Y-14523341D01*
X15612920Y-14523341D02*
X15612920Y-14485246D01*
X15612920Y-14485246D02*
X15622444Y-14437627D01*
X15622444Y-14437627D02*
X15631968Y-14409055D01*
X15631968Y-14409055D02*
X15641491Y-14390008D01*
X15641491Y-14390008D02*
X15660539Y-14361436D01*
X15660539Y-14361436D02*
X15670063Y-14351912D01*
X15831968Y-14447150D02*
X15831968Y-14580484D01*
X15784348Y-14370960D02*
X15736729Y-14513817D01*
X15736729Y-14513817D02*
X15860539Y-14513817D01*
X16089110Y-14580484D02*
X16089110Y-14380484D01*
X16174825Y-14580484D02*
X16174825Y-14475722D01*
X16174825Y-14475722D02*
X16165301Y-14456674D01*
X16165301Y-14456674D02*
X16146253Y-14447150D01*
X16146253Y-14447150D02*
X16117682Y-14447150D01*
X16117682Y-14447150D02*
X16098634Y-14456674D01*
X16098634Y-14456674D02*
X16089110Y-14466198D01*
X16298634Y-14580484D02*
X16279587Y-14570960D01*
X16279587Y-14570960D02*
X16270063Y-14561436D01*
X16270063Y-14561436D02*
X16260539Y-14542388D01*
X16260539Y-14542388D02*
X16260539Y-14485246D01*
X16260539Y-14485246D02*
X16270063Y-14466198D01*
X16270063Y-14466198D02*
X16279587Y-14456674D01*
X16279587Y-14456674D02*
X16298634Y-14447150D01*
X16298634Y-14447150D02*
X16327206Y-14447150D01*
X16327206Y-14447150D02*
X16346253Y-14456674D01*
X16346253Y-14456674D02*
X16355777Y-14466198D01*
X16355777Y-14466198D02*
X16365301Y-14485246D01*
X16365301Y-14485246D02*
X16365301Y-14542388D01*
X16365301Y-14542388D02*
X16355777Y-14561436D01*
X16355777Y-14561436D02*
X16346253Y-14570960D01*
X16346253Y-14570960D02*
X16327206Y-14580484D01*
X16327206Y-14580484D02*
X16298634Y-14580484D01*
X16479587Y-14580484D02*
X16460539Y-14570960D01*
X16460539Y-14570960D02*
X16451015Y-14551912D01*
X16451015Y-14551912D02*
X16451015Y-14380484D01*
X16631968Y-14570960D02*
X16612920Y-14580484D01*
X16612920Y-14580484D02*
X16574825Y-14580484D01*
X16574825Y-14580484D02*
X16555777Y-14570960D01*
X16555777Y-14570960D02*
X16546253Y-14551912D01*
X16546253Y-14551912D02*
X16546253Y-14475722D01*
X16546253Y-14475722D02*
X16555777Y-14456674D01*
X16555777Y-14456674D02*
X16574825Y-14447150D01*
X16574825Y-14447150D02*
X16612920Y-14447150D01*
X16612920Y-14447150D02*
X16631968Y-14456674D01*
X16631968Y-14456674D02*
X16641491Y-14475722D01*
X16641491Y-14475722D02*
X16641491Y-14494769D01*
X16641491Y-14494769D02*
X16546253Y-14513817D01*
X16717682Y-14570960D02*
X16736730Y-14580484D01*
X16736730Y-14580484D02*
X16774825Y-14580484D01*
X16774825Y-14580484D02*
X16793873Y-14570960D01*
X16793873Y-14570960D02*
X16803396Y-14551912D01*
X16803396Y-14551912D02*
X16803396Y-14542388D01*
X16803396Y-14542388D02*
X16793873Y-14523341D01*
X16793873Y-14523341D02*
X16774825Y-14513817D01*
X16774825Y-14513817D02*
X16746253Y-14513817D01*
X16746253Y-14513817D02*
X16727206Y-14504293D01*
X16727206Y-14504293D02*
X16717682Y-14485246D01*
X16717682Y-14485246D02*
X16717682Y-14475722D01*
X16717682Y-14475722D02*
X16727206Y-14456674D01*
X16727206Y-14456674D02*
X16746253Y-14447150D01*
X16746253Y-14447150D02*
X16774825Y-14447150D01*
X16774825Y-14447150D02*
X16793873Y-14456674D01*
X16870063Y-14656674D02*
X16879587Y-14647150D01*
X16879587Y-14647150D02*
X16898634Y-14618579D01*
X16898634Y-14618579D02*
X16908158Y-14599531D01*
X16908158Y-14599531D02*
X16917682Y-14570960D01*
X16917682Y-14570960D02*
X16927206Y-14523341D01*
X16927206Y-14523341D02*
X16927206Y-14485246D01*
X16927206Y-14485246D02*
X16917682Y-14437627D01*
X16917682Y-14437627D02*
X16908158Y-14409055D01*
X16908158Y-14409055D02*
X16898634Y-14390008D01*
X16898634Y-14390008D02*
X16879587Y-14361436D01*
X16879587Y-14361436D02*
X16870063Y-14351912D01*
X17231968Y-14656674D02*
X17222444Y-14647150D01*
X17222444Y-14647150D02*
X17203396Y-14618579D01*
X17203396Y-14618579D02*
X17193873Y-14599531D01*
X17193873Y-14599531D02*
X17184349Y-14570960D01*
X17184349Y-14570960D02*
X17174825Y-14523341D01*
X17174825Y-14523341D02*
X17174825Y-14485246D01*
X17174825Y-14485246D02*
X17184349Y-14437627D01*
X17184349Y-14437627D02*
X17193873Y-14409055D01*
X17193873Y-14409055D02*
X17203396Y-14390008D01*
X17203396Y-14390008D02*
X17222444Y-14361436D01*
X17222444Y-14361436D02*
X17231968Y-14351912D01*
X17308158Y-14447150D02*
X17308158Y-14580484D01*
X17308158Y-14466198D02*
X17317682Y-14456674D01*
X17317682Y-14456674D02*
X17336730Y-14447150D01*
X17336730Y-14447150D02*
X17365301Y-14447150D01*
X17365301Y-14447150D02*
X17384349Y-14456674D01*
X17384349Y-14456674D02*
X17393873Y-14475722D01*
X17393873Y-14475722D02*
X17393873Y-14580484D01*
X17517682Y-14580484D02*
X17498634Y-14570960D01*
X17498634Y-14570960D02*
X17489111Y-14561436D01*
X17489111Y-14561436D02*
X17479587Y-14542388D01*
X17479587Y-14542388D02*
X17479587Y-14485246D01*
X17479587Y-14485246D02*
X17489111Y-14466198D01*
X17489111Y-14466198D02*
X17498634Y-14456674D01*
X17498634Y-14456674D02*
X17517682Y-14447150D01*
X17517682Y-14447150D02*
X17546254Y-14447150D01*
X17546254Y-14447150D02*
X17565301Y-14456674D01*
X17565301Y-14456674D02*
X17574825Y-14466198D01*
X17574825Y-14466198D02*
X17584349Y-14485246D01*
X17584349Y-14485246D02*
X17584349Y-14542388D01*
X17584349Y-14542388D02*
X17574825Y-14561436D01*
X17574825Y-14561436D02*
X17565301Y-14570960D01*
X17565301Y-14570960D02*
X17546254Y-14580484D01*
X17546254Y-14580484D02*
X17517682Y-14580484D01*
X17641492Y-14447150D02*
X17717682Y-14447150D01*
X17670063Y-14380484D02*
X17670063Y-14551912D01*
X17670063Y-14551912D02*
X17679587Y-14570960D01*
X17679587Y-14570960D02*
X17698634Y-14580484D01*
X17698634Y-14580484D02*
X17717682Y-14580484D01*
X17936730Y-14447150D02*
X17936730Y-14647150D01*
X17936730Y-14456674D02*
X17955777Y-14447150D01*
X17955777Y-14447150D02*
X17993873Y-14447150D01*
X17993873Y-14447150D02*
X18012920Y-14456674D01*
X18012920Y-14456674D02*
X18022444Y-14466198D01*
X18022444Y-14466198D02*
X18031968Y-14485246D01*
X18031968Y-14485246D02*
X18031968Y-14542388D01*
X18031968Y-14542388D02*
X18022444Y-14561436D01*
X18022444Y-14561436D02*
X18012920Y-14570960D01*
X18012920Y-14570960D02*
X17993873Y-14580484D01*
X17993873Y-14580484D02*
X17955777Y-14580484D01*
X17955777Y-14580484D02*
X17936730Y-14570960D01*
X18146254Y-14580484D02*
X18127206Y-14570960D01*
X18127206Y-14570960D02*
X18117682Y-14551912D01*
X18117682Y-14551912D02*
X18117682Y-14380484D01*
X18308158Y-14580484D02*
X18308158Y-14475722D01*
X18308158Y-14475722D02*
X18298635Y-14456674D01*
X18298635Y-14456674D02*
X18279587Y-14447150D01*
X18279587Y-14447150D02*
X18241492Y-14447150D01*
X18241492Y-14447150D02*
X18222444Y-14456674D01*
X18308158Y-14570960D02*
X18289111Y-14580484D01*
X18289111Y-14580484D02*
X18241492Y-14580484D01*
X18241492Y-14580484D02*
X18222444Y-14570960D01*
X18222444Y-14570960D02*
X18212920Y-14551912D01*
X18212920Y-14551912D02*
X18212920Y-14532865D01*
X18212920Y-14532865D02*
X18222444Y-14513817D01*
X18222444Y-14513817D02*
X18241492Y-14504293D01*
X18241492Y-14504293D02*
X18289111Y-14504293D01*
X18289111Y-14504293D02*
X18308158Y-14494769D01*
X18374825Y-14447150D02*
X18451015Y-14447150D01*
X18403396Y-14380484D02*
X18403396Y-14551912D01*
X18403396Y-14551912D02*
X18412920Y-14570960D01*
X18412920Y-14570960D02*
X18431968Y-14580484D01*
X18431968Y-14580484D02*
X18451015Y-14580484D01*
X18593873Y-14570960D02*
X18574825Y-14580484D01*
X18574825Y-14580484D02*
X18536730Y-14580484D01*
X18536730Y-14580484D02*
X18517682Y-14570960D01*
X18517682Y-14570960D02*
X18508158Y-14551912D01*
X18508158Y-14551912D02*
X18508158Y-14475722D01*
X18508158Y-14475722D02*
X18517682Y-14456674D01*
X18517682Y-14456674D02*
X18536730Y-14447150D01*
X18536730Y-14447150D02*
X18574825Y-14447150D01*
X18574825Y-14447150D02*
X18593873Y-14456674D01*
X18593873Y-14456674D02*
X18603396Y-14475722D01*
X18603396Y-14475722D02*
X18603396Y-14494769D01*
X18603396Y-14494769D02*
X18508158Y-14513817D01*
X18774825Y-14580484D02*
X18774825Y-14380484D01*
X18774825Y-14570960D02*
X18755777Y-14580484D01*
X18755777Y-14580484D02*
X18717682Y-14580484D01*
X18717682Y-14580484D02*
X18698635Y-14570960D01*
X18698635Y-14570960D02*
X18689111Y-14561436D01*
X18689111Y-14561436D02*
X18679587Y-14542388D01*
X18679587Y-14542388D02*
X18679587Y-14485246D01*
X18679587Y-14485246D02*
X18689111Y-14466198D01*
X18689111Y-14466198D02*
X18698635Y-14456674D01*
X18698635Y-14456674D02*
X18717682Y-14447150D01*
X18717682Y-14447150D02*
X18755777Y-14447150D01*
X18755777Y-14447150D02*
X18774825Y-14456674D01*
X18851016Y-14656674D02*
X18860539Y-14647150D01*
X18860539Y-14647150D02*
X18879587Y-14618579D01*
X18879587Y-14618579D02*
X18889111Y-14599531D01*
X18889111Y-14599531D02*
X18898635Y-14570960D01*
X18898635Y-14570960D02*
X18908158Y-14523341D01*
X18908158Y-14523341D02*
X18908158Y-14485246D01*
X18908158Y-14485246D02*
X18898635Y-14437627D01*
X18898635Y-14437627D02*
X18889111Y-14409055D01*
X18889111Y-14409055D02*
X18879587Y-14390008D01*
X18879587Y-14390008D02*
X18860539Y-14361436D01*
X18860539Y-14361436D02*
X18851016Y-14351912D01*
M02*
