M48
; DRILL file {KiCad 7.0.9} date Sat Jan 13 21:16:53 2024
; FORMAT={-:-/ absolute / inch / decimal}
; #@! TF.CreationDate,2024-01-13T21:16:53+01:00
; #@! TF.GenerationSoftware,Kicad,Pcbnew,7.0.9
; #@! TF.FileFunction,MixedPlating,1,2
FMAT,2
INCH
; #@! TA.AperFunction,Plated,PTH,ComponentDrill
T1C0.0276
; #@! TA.AperFunction,Plated,PTH,ComponentDrill
T2C0.0300
; #@! TA.AperFunction,Plated,PTH,ComponentDrill
T3C0.0315
; #@! TA.AperFunction,Plated,PTH,ComponentDrill
T4C0.0354
; #@! TA.AperFunction,Plated,PTH,ComponentDrill
T5C0.0394
; #@! TA.AperFunction,Plated,PTH,ComponentDrill
T6C0.0400
; #@! TA.AperFunction,Plated,PTH,ComponentDrill
T7C0.0512
; #@! TA.AperFunction,Plated,PTH,ComponentDrill
T8C0.0591
; #@! TA.AperFunction,Plated,PTH,ComponentDrill
T9C0.0669
; #@! TA.AperFunction,NonPlated,NPTH,ComponentDrill
T10C0.1260
%
G90
G05
T1
X5.5906Y-2.9921
X5.5906Y-3.1921
T2
X4.3793Y-2.7694
X4.3793Y-2.9694
X4.3795Y-3.9699
X4.4912Y-4.0996
X4.4941Y-4.5186
X4.5842Y-2.8124
X4.7321Y-4.0996
X4.7331Y-4.5225
X4.7811Y-2.8124
X4.9858Y-3.9699
X5.0793Y-3.7694
X5.0793Y-3.9694
X5.6102Y-4.5276
X5.7087Y-4.5276
X5.8071Y-4.5276
X6.2598Y-4.1732
T3
X4.0551Y-4.2126
X4.1535Y-4.2126
X5.4724Y-3.8189
X5.5512Y-3.8189
X5.6299Y-3.8189
X5.7087Y-3.8189
X5.7874Y-3.8189
X5.8661Y-3.8189
X5.9449Y-3.8189
X6.0236Y-3.8189
T4
X5.4724Y-2.874
X5.5724Y-2.874
T5
X4.0945Y-3.7976
X4.0945Y-3.8976
X4.3701Y-4.2197
X4.3701Y-4.3197
X4.3701Y-4.4197
X4.3701Y-4.5197
X4.6063Y-4.2197
X4.6063Y-4.3197
X4.6063Y-4.4197
X4.6063Y-4.5197
X4.8425Y-4.2197
X4.8425Y-4.3197
X4.8425Y-4.4197
X4.8425Y-4.5197
T6
X5.315Y-3.0315
X5.315Y-3.1315
X5.315Y-3.2315
X5.315Y-3.3315
X5.315Y-3.4315
X5.315Y-3.5315
X5.315Y-3.6315
X5.315Y-3.7315
X6.215Y-3.0315
X6.215Y-3.1315
X6.215Y-3.2315
X6.215Y-3.3315
X6.215Y-3.4315
X6.215Y-3.5315
X6.215Y-3.6315
X6.215Y-3.7315
T7
X4.0551Y-3.0646
X4.0551Y-3.4646
T8
X5.1394Y-4.3126
T9
X5.0394Y-4.2126
X5.0394Y-4.4126
X5.2394Y-4.2126
X5.2394Y-4.4126
T10
X4.0748Y-2.7362
X4.0748Y-4.5079
X6.2402Y-2.7362
X6.2402Y-4.5079
T0
M30
