M48
; DRILL file {KiCad (6.0.9)} date Fri Feb 17 13:21:24 2023
; FORMAT={-:-/ absolute / inch / decimal}
; #@! TF.CreationDate,2023-02-17T13:21:24+01:00
; #@! TF.GenerationSoftware,Kicad,Pcbnew,(6.0.9)
; #@! TF.FileFunction,MixedPlating,1,2
FMAT,2
INCH
; #@! TA.AperFunction,Plated,PTH,ComponentDrill
T1C0.0300
; #@! TA.AperFunction,Plated,PTH,ComponentDrill
T2C0.0315
; #@! TA.AperFunction,Plated,PTH,ComponentDrill
T3C0.0394
; #@! TA.AperFunction,Plated,PTH,ComponentDrill
T4C0.0400
; #@! TA.AperFunction,NonPlated,NPTH,ComponentDrill
T5C0.1260
%
G90
G05
T1
X4.3823Y-2.7682
X4.3823Y-2.9682
X4.3823Y-3.9682
X5.0823Y-3.7682
X5.0823Y-3.9682
T2
X4.0551Y-4.2126
X4.1535Y-4.2126
T3
X4.0551Y-3.2437
X4.0551Y-3.3437
X4.0551Y-3.4437
X4.0945Y-3.7976
X4.0945Y-3.8976
X4.4325Y-4.2197
X4.4325Y-4.3197
X4.4325Y-4.4197
X4.4325Y-4.5197
X4.6977Y-4.2197
X4.6977Y-4.3197
X4.6977Y-4.4197
X4.6977Y-4.5197
X4.9629Y-4.2197
X4.9629Y-4.3197
X4.9629Y-4.4197
X4.9629Y-4.5197
X5.2281Y-4.2197
X5.2281Y-4.3197
X5.2281Y-4.4197
X5.2281Y-4.5197
X5.4933Y-4.2197
X5.4933Y-4.3197
X5.4933Y-4.4197
X5.4933Y-4.5197
X5.7584Y-4.2197
X5.7584Y-4.3197
X5.7584Y-4.4197
X5.7584Y-4.5197
X6.0236Y-4.2197
X6.0236Y-4.3197
X6.0236Y-4.4197
X6.0236Y-4.5197
T4
X5.3543Y-3.0449
X5.3543Y-3.1449
X5.3543Y-3.2449
X5.3543Y-3.3449
X5.3543Y-3.4449
X5.3543Y-3.5449
X5.3543Y-3.6449
X5.3543Y-3.7449
X6.2543Y-3.0449
X6.2543Y-3.1449
X6.2543Y-3.2449
X6.2543Y-3.3449
X6.2543Y-3.4449
X6.2543Y-3.5449
X6.2543Y-3.6449
X6.2543Y-3.7449
T5
X4.0748Y-2.7362
X4.0748Y-4.5079
X6.2402Y-2.7362
X6.2402Y-4.5079
T0
M30
