%TF.GenerationSoftware,KiCad,Pcbnew,7.0.9*%
%TF.CreationDate,2024-01-13T21:16:48+01:00*%
%TF.ProjectId,Peerhof-Uni-cc1101,50656572-686f-4662-9d55-6e692d636331,rev?*%
%TF.SameCoordinates,Original*%
%TF.FileFunction,Legend,Top*%
%TF.FilePolarity,Positive*%
%FSLAX46Y46*%
G04 Gerber Fmt 4.6, Leading zero omitted, Abs format (unit mm)*
G04 Created by KiCad (PCBNEW 7.0.9) date 2024-01-13 21:16:48*
%MOMM*%
%LPD*%
G01*
G04 APERTURE LIST*
%ADD10C,0.150000*%
%ADD11C,0.120000*%
G04 APERTURE END LIST*
D10*
X158452380Y-108454819D02*
X158119047Y-107978628D01*
X157880952Y-108454819D02*
X157880952Y-107454819D01*
X157880952Y-107454819D02*
X158261904Y-107454819D01*
X158261904Y-107454819D02*
X158357142Y-107502438D01*
X158357142Y-107502438D02*
X158404761Y-107550057D01*
X158404761Y-107550057D02*
X158452380Y-107645295D01*
X158452380Y-107645295D02*
X158452380Y-107788152D01*
X158452380Y-107788152D02*
X158404761Y-107883390D01*
X158404761Y-107883390D02*
X158357142Y-107931009D01*
X158357142Y-107931009D02*
X158261904Y-107978628D01*
X158261904Y-107978628D02*
X157880952Y-107978628D01*
X158833333Y-108407200D02*
X158976190Y-108454819D01*
X158976190Y-108454819D02*
X159214285Y-108454819D01*
X159214285Y-108454819D02*
X159309523Y-108407200D01*
X159309523Y-108407200D02*
X159357142Y-108359580D01*
X159357142Y-108359580D02*
X159404761Y-108264342D01*
X159404761Y-108264342D02*
X159404761Y-108169104D01*
X159404761Y-108169104D02*
X159357142Y-108073866D01*
X159357142Y-108073866D02*
X159309523Y-108026247D01*
X159309523Y-108026247D02*
X159214285Y-107978628D01*
X159214285Y-107978628D02*
X159023809Y-107931009D01*
X159023809Y-107931009D02*
X158928571Y-107883390D01*
X158928571Y-107883390D02*
X158880952Y-107835771D01*
X158880952Y-107835771D02*
X158833333Y-107740533D01*
X158833333Y-107740533D02*
X158833333Y-107645295D01*
X158833333Y-107645295D02*
X158880952Y-107550057D01*
X158880952Y-107550057D02*
X158928571Y-107502438D01*
X158928571Y-107502438D02*
X159023809Y-107454819D01*
X159023809Y-107454819D02*
X159261904Y-107454819D01*
X159261904Y-107454819D02*
X159404761Y-107502438D01*
X159690476Y-107454819D02*
X160261904Y-107454819D01*
X159976190Y-108454819D02*
X159976190Y-107454819D01*
X124309524Y-109049570D02*
X124880952Y-109049570D01*
X124595238Y-110049570D02*
X124595238Y-109049570D01*
X125119048Y-110049570D02*
X125642857Y-109382903D01*
X125119048Y-109382903D02*
X125642857Y-110049570D01*
X124357143Y-114123464D02*
X124976190Y-114123464D01*
X124976190Y-114123464D02*
X124642857Y-114504416D01*
X124642857Y-114504416D02*
X124785714Y-114504416D01*
X124785714Y-114504416D02*
X124880952Y-114552035D01*
X124880952Y-114552035D02*
X124928571Y-114599654D01*
X124928571Y-114599654D02*
X124976190Y-114694892D01*
X124976190Y-114694892D02*
X124976190Y-114932987D01*
X124976190Y-114932987D02*
X124928571Y-115028225D01*
X124928571Y-115028225D02*
X124880952Y-115075845D01*
X124880952Y-115075845D02*
X124785714Y-115123464D01*
X124785714Y-115123464D02*
X124500000Y-115123464D01*
X124500000Y-115123464D02*
X124404762Y-115075845D01*
X124404762Y-115075845D02*
X124357143Y-115028225D01*
X125452381Y-115075845D02*
X125452381Y-115123464D01*
X125452381Y-115123464D02*
X125404762Y-115218702D01*
X125404762Y-115218702D02*
X125357143Y-115266321D01*
X125785714Y-114123464D02*
X126404761Y-114123464D01*
X126404761Y-114123464D02*
X126071428Y-114504416D01*
X126071428Y-114504416D02*
X126214285Y-114504416D01*
X126214285Y-114504416D02*
X126309523Y-114552035D01*
X126309523Y-114552035D02*
X126357142Y-114599654D01*
X126357142Y-114599654D02*
X126404761Y-114694892D01*
X126404761Y-114694892D02*
X126404761Y-114932987D01*
X126404761Y-114932987D02*
X126357142Y-115028225D01*
X126357142Y-115028225D02*
X126309523Y-115075845D01*
X126309523Y-115075845D02*
X126214285Y-115123464D01*
X126214285Y-115123464D02*
X125928571Y-115123464D01*
X125928571Y-115123464D02*
X125833333Y-115075845D01*
X125833333Y-115075845D02*
X125785714Y-115028225D01*
X126690476Y-114123464D02*
X127023809Y-115123464D01*
X127023809Y-115123464D02*
X127357142Y-114123464D01*
X119363625Y-111801138D02*
X119268387Y-111753519D01*
X119268387Y-111753519D02*
X119125530Y-111753519D01*
X119125530Y-111753519D02*
X118982673Y-111801138D01*
X118982673Y-111801138D02*
X118887435Y-111896376D01*
X118887435Y-111896376D02*
X118839816Y-111991614D01*
X118839816Y-111991614D02*
X118792197Y-112182090D01*
X118792197Y-112182090D02*
X118792197Y-112324947D01*
X118792197Y-112324947D02*
X118839816Y-112515423D01*
X118839816Y-112515423D02*
X118887435Y-112610661D01*
X118887435Y-112610661D02*
X118982673Y-112705900D01*
X118982673Y-112705900D02*
X119125530Y-112753519D01*
X119125530Y-112753519D02*
X119220768Y-112753519D01*
X119220768Y-112753519D02*
X119363625Y-112705900D01*
X119363625Y-112705900D02*
X119411244Y-112658280D01*
X119411244Y-112658280D02*
X119411244Y-112324947D01*
X119411244Y-112324947D02*
X119220768Y-112324947D01*
X119839816Y-112753519D02*
X119839816Y-111753519D01*
X119839816Y-111753519D02*
X120411244Y-112753519D01*
X120411244Y-112753519D02*
X120411244Y-111753519D01*
X120887435Y-112753519D02*
X120887435Y-111753519D01*
X120887435Y-111753519D02*
X121125530Y-111753519D01*
X121125530Y-111753519D02*
X121268387Y-111801138D01*
X121268387Y-111801138D02*
X121363625Y-111896376D01*
X121363625Y-111896376D02*
X121411244Y-111991614D01*
X121411244Y-111991614D02*
X121458863Y-112182090D01*
X121458863Y-112182090D02*
X121458863Y-112324947D01*
X121458863Y-112324947D02*
X121411244Y-112515423D01*
X121411244Y-112515423D02*
X121363625Y-112610661D01*
X121363625Y-112610661D02*
X121268387Y-112705900D01*
X121268387Y-112705900D02*
X121125530Y-112753519D01*
X121125530Y-112753519D02*
X120887435Y-112753519D01*
X113429780Y-111868164D02*
X113334542Y-111820545D01*
X113334542Y-111820545D02*
X113191685Y-111820545D01*
X113191685Y-111820545D02*
X113048828Y-111868164D01*
X113048828Y-111868164D02*
X112953590Y-111963402D01*
X112953590Y-111963402D02*
X112905971Y-112058640D01*
X112905971Y-112058640D02*
X112858352Y-112249116D01*
X112858352Y-112249116D02*
X112858352Y-112391973D01*
X112858352Y-112391973D02*
X112905971Y-112582449D01*
X112905971Y-112582449D02*
X112953590Y-112677687D01*
X112953590Y-112677687D02*
X113048828Y-112772926D01*
X113048828Y-112772926D02*
X113191685Y-112820545D01*
X113191685Y-112820545D02*
X113286923Y-112820545D01*
X113286923Y-112820545D02*
X113429780Y-112772926D01*
X113429780Y-112772926D02*
X113477399Y-112725306D01*
X113477399Y-112725306D02*
X113477399Y-112391973D01*
X113477399Y-112391973D02*
X113286923Y-112391973D01*
X113905971Y-112820545D02*
X113905971Y-111820545D01*
X113905971Y-111820545D02*
X114477399Y-112820545D01*
X114477399Y-112820545D02*
X114477399Y-111820545D01*
X114953590Y-112820545D02*
X114953590Y-111820545D01*
X114953590Y-111820545D02*
X115191685Y-111820545D01*
X115191685Y-111820545D02*
X115334542Y-111868164D01*
X115334542Y-111868164D02*
X115429780Y-111963402D01*
X115429780Y-111963402D02*
X115477399Y-112058640D01*
X115477399Y-112058640D02*
X115525018Y-112249116D01*
X115525018Y-112249116D02*
X115525018Y-112391973D01*
X115525018Y-112391973D02*
X115477399Y-112582449D01*
X115477399Y-112582449D02*
X115429780Y-112677687D01*
X115429780Y-112677687D02*
X115334542Y-112772926D01*
X115334542Y-112772926D02*
X115191685Y-112820545D01*
X115191685Y-112820545D02*
X114953590Y-112820545D01*
X118839816Y-110233217D02*
X118839816Y-109233217D01*
X118839816Y-109233217D02*
X119077911Y-109233217D01*
X119077911Y-109233217D02*
X119220768Y-109280836D01*
X119220768Y-109280836D02*
X119316006Y-109376074D01*
X119316006Y-109376074D02*
X119363625Y-109471312D01*
X119363625Y-109471312D02*
X119411244Y-109661788D01*
X119411244Y-109661788D02*
X119411244Y-109804645D01*
X119411244Y-109804645D02*
X119363625Y-109995121D01*
X119363625Y-109995121D02*
X119316006Y-110090359D01*
X119316006Y-110090359D02*
X119220768Y-110185598D01*
X119220768Y-110185598D02*
X119077911Y-110233217D01*
X119077911Y-110233217D02*
X118839816Y-110233217D01*
X120363625Y-110233217D02*
X119792197Y-110233217D01*
X120077911Y-110233217D02*
X120077911Y-109233217D01*
X120077911Y-109233217D02*
X119982673Y-109376074D01*
X119982673Y-109376074D02*
X119887435Y-109471312D01*
X119887435Y-109471312D02*
X119792197Y-109518931D01*
X119316006Y-114307111D02*
X118839816Y-114307111D01*
X118839816Y-114307111D02*
X118792197Y-114783301D01*
X118792197Y-114783301D02*
X118839816Y-114735682D01*
X118839816Y-114735682D02*
X118935054Y-114688063D01*
X118935054Y-114688063D02*
X119173149Y-114688063D01*
X119173149Y-114688063D02*
X119268387Y-114735682D01*
X119268387Y-114735682D02*
X119316006Y-114783301D01*
X119316006Y-114783301D02*
X119363625Y-114878539D01*
X119363625Y-114878539D02*
X119363625Y-115116634D01*
X119363625Y-115116634D02*
X119316006Y-115211872D01*
X119316006Y-115211872D02*
X119268387Y-115259492D01*
X119268387Y-115259492D02*
X119173149Y-115307111D01*
X119173149Y-115307111D02*
X118935054Y-115307111D01*
X118935054Y-115307111D02*
X118839816Y-115259492D01*
X118839816Y-115259492D02*
X118792197Y-115211872D01*
X119649340Y-114307111D02*
X119982673Y-115307111D01*
X119982673Y-115307111D02*
X120316006Y-114307111D01*
X112905971Y-107725152D02*
X112905971Y-106725152D01*
X112905971Y-106725152D02*
X113144066Y-106725152D01*
X113144066Y-106725152D02*
X113286923Y-106772771D01*
X113286923Y-106772771D02*
X113382161Y-106868009D01*
X113382161Y-106868009D02*
X113429780Y-106963247D01*
X113429780Y-106963247D02*
X113477399Y-107153723D01*
X113477399Y-107153723D02*
X113477399Y-107296580D01*
X113477399Y-107296580D02*
X113429780Y-107487056D01*
X113429780Y-107487056D02*
X113382161Y-107582294D01*
X113382161Y-107582294D02*
X113286923Y-107677533D01*
X113286923Y-107677533D02*
X113144066Y-107725152D01*
X113144066Y-107725152D02*
X112905971Y-107725152D01*
X114334542Y-107058485D02*
X114334542Y-107725152D01*
X114096447Y-106677533D02*
X113858352Y-107391818D01*
X113858352Y-107391818D02*
X114477399Y-107391818D01*
X125023809Y-107474479D02*
X124690476Y-106998288D01*
X124452381Y-107474479D02*
X124452381Y-106474479D01*
X124452381Y-106474479D02*
X124833333Y-106474479D01*
X124833333Y-106474479D02*
X124928571Y-106522098D01*
X124928571Y-106522098D02*
X124976190Y-106569717D01*
X124976190Y-106569717D02*
X125023809Y-106664955D01*
X125023809Y-106664955D02*
X125023809Y-106807812D01*
X125023809Y-106807812D02*
X124976190Y-106903050D01*
X124976190Y-106903050D02*
X124928571Y-106950669D01*
X124928571Y-106950669D02*
X124833333Y-106998288D01*
X124833333Y-106998288D02*
X124452381Y-106998288D01*
X125357143Y-107474479D02*
X125880952Y-106807812D01*
X125357143Y-106807812D02*
X125880952Y-107474479D01*
X113382161Y-114374137D02*
X112905971Y-114374137D01*
X112905971Y-114374137D02*
X112858352Y-114850327D01*
X112858352Y-114850327D02*
X112905971Y-114802708D01*
X112905971Y-114802708D02*
X113001209Y-114755089D01*
X113001209Y-114755089D02*
X113239304Y-114755089D01*
X113239304Y-114755089D02*
X113334542Y-114802708D01*
X113334542Y-114802708D02*
X113382161Y-114850327D01*
X113382161Y-114850327D02*
X113429780Y-114945565D01*
X113429780Y-114945565D02*
X113429780Y-115183660D01*
X113429780Y-115183660D02*
X113382161Y-115278898D01*
X113382161Y-115278898D02*
X113334542Y-115326518D01*
X113334542Y-115326518D02*
X113239304Y-115374137D01*
X113239304Y-115374137D02*
X113001209Y-115374137D01*
X113001209Y-115374137D02*
X112905971Y-115326518D01*
X112905971Y-115326518D02*
X112858352Y-115278898D01*
X113715495Y-114374137D02*
X114048828Y-115374137D01*
X114048828Y-115374137D02*
X114382161Y-114374137D01*
X124976190Y-111617491D02*
X124880952Y-111569872D01*
X124880952Y-111569872D02*
X124738095Y-111569872D01*
X124738095Y-111569872D02*
X124595238Y-111617491D01*
X124595238Y-111617491D02*
X124500000Y-111712729D01*
X124500000Y-111712729D02*
X124452381Y-111807967D01*
X124452381Y-111807967D02*
X124404762Y-111998443D01*
X124404762Y-111998443D02*
X124404762Y-112141300D01*
X124404762Y-112141300D02*
X124452381Y-112331776D01*
X124452381Y-112331776D02*
X124500000Y-112427014D01*
X124500000Y-112427014D02*
X124595238Y-112522253D01*
X124595238Y-112522253D02*
X124738095Y-112569872D01*
X124738095Y-112569872D02*
X124833333Y-112569872D01*
X124833333Y-112569872D02*
X124976190Y-112522253D01*
X124976190Y-112522253D02*
X125023809Y-112474633D01*
X125023809Y-112474633D02*
X125023809Y-112141300D01*
X125023809Y-112141300D02*
X124833333Y-112141300D01*
X125452381Y-112569872D02*
X125452381Y-111569872D01*
X125452381Y-111569872D02*
X126023809Y-112569872D01*
X126023809Y-112569872D02*
X126023809Y-111569872D01*
X126500000Y-112569872D02*
X126500000Y-111569872D01*
X126500000Y-111569872D02*
X126738095Y-111569872D01*
X126738095Y-111569872D02*
X126880952Y-111617491D01*
X126880952Y-111617491D02*
X126976190Y-111712729D01*
X126976190Y-111712729D02*
X127023809Y-111807967D01*
X127023809Y-111807967D02*
X127071428Y-111998443D01*
X127071428Y-111998443D02*
X127071428Y-112141300D01*
X127071428Y-112141300D02*
X127023809Y-112331776D01*
X127023809Y-112331776D02*
X126976190Y-112427014D01*
X126976190Y-112427014D02*
X126880952Y-112522253D01*
X126880952Y-112522253D02*
X126738095Y-112569872D01*
X126738095Y-112569872D02*
X126500000Y-112569872D01*
X112905971Y-110300243D02*
X112905971Y-109300243D01*
X112905971Y-109300243D02*
X113144066Y-109300243D01*
X113144066Y-109300243D02*
X113286923Y-109347862D01*
X113286923Y-109347862D02*
X113382161Y-109443100D01*
X113382161Y-109443100D02*
X113429780Y-109538338D01*
X113429780Y-109538338D02*
X113477399Y-109728814D01*
X113477399Y-109728814D02*
X113477399Y-109871671D01*
X113477399Y-109871671D02*
X113429780Y-110062147D01*
X113429780Y-110062147D02*
X113382161Y-110157385D01*
X113382161Y-110157385D02*
X113286923Y-110252624D01*
X113286923Y-110252624D02*
X113144066Y-110300243D01*
X113144066Y-110300243D02*
X112905971Y-110300243D01*
X113810733Y-109300243D02*
X114429780Y-109300243D01*
X114429780Y-109300243D02*
X114096447Y-109681195D01*
X114096447Y-109681195D02*
X114239304Y-109681195D01*
X114239304Y-109681195D02*
X114334542Y-109728814D01*
X114334542Y-109728814D02*
X114382161Y-109776433D01*
X114382161Y-109776433D02*
X114429780Y-109871671D01*
X114429780Y-109871671D02*
X114429780Y-110109766D01*
X114429780Y-110109766D02*
X114382161Y-110205004D01*
X114382161Y-110205004D02*
X114334542Y-110252624D01*
X114334542Y-110252624D02*
X114239304Y-110300243D01*
X114239304Y-110300243D02*
X113953590Y-110300243D01*
X113953590Y-110300243D02*
X113858352Y-110252624D01*
X113858352Y-110252624D02*
X113810733Y-110205004D01*
X118839816Y-107658126D02*
X118839816Y-106658126D01*
X118839816Y-106658126D02*
X119077911Y-106658126D01*
X119077911Y-106658126D02*
X119220768Y-106705745D01*
X119220768Y-106705745D02*
X119316006Y-106800983D01*
X119316006Y-106800983D02*
X119363625Y-106896221D01*
X119363625Y-106896221D02*
X119411244Y-107086697D01*
X119411244Y-107086697D02*
X119411244Y-107229554D01*
X119411244Y-107229554D02*
X119363625Y-107420030D01*
X119363625Y-107420030D02*
X119316006Y-107515268D01*
X119316006Y-107515268D02*
X119220768Y-107610507D01*
X119220768Y-107610507D02*
X119077911Y-107658126D01*
X119077911Y-107658126D02*
X118839816Y-107658126D01*
X119792197Y-106753364D02*
X119839816Y-106705745D01*
X119839816Y-106705745D02*
X119935054Y-106658126D01*
X119935054Y-106658126D02*
X120173149Y-106658126D01*
X120173149Y-106658126D02*
X120268387Y-106705745D01*
X120268387Y-106705745D02*
X120316006Y-106753364D01*
X120316006Y-106753364D02*
X120363625Y-106848602D01*
X120363625Y-106848602D02*
X120363625Y-106943840D01*
X120363625Y-106943840D02*
X120316006Y-107086697D01*
X120316006Y-107086697D02*
X119744578Y-107658126D01*
X119744578Y-107658126D02*
X120363625Y-107658126D01*
X129373333Y-104959104D02*
X129849523Y-104959104D01*
X129278095Y-105244819D02*
X129611428Y-104244819D01*
X129611428Y-104244819D02*
X129944761Y-105244819D01*
X130278095Y-104721009D02*
X130611428Y-104721009D01*
X130754285Y-105244819D02*
X130278095Y-105244819D01*
X130278095Y-105244819D02*
X130278095Y-104244819D01*
X130278095Y-104244819D02*
X130754285Y-104244819D01*
X131706666Y-105244819D02*
X131135238Y-105244819D01*
X131420952Y-105244819D02*
X131420952Y-104244819D01*
X131420952Y-104244819D02*
X131325714Y-104387676D01*
X131325714Y-104387676D02*
X131230476Y-104482914D01*
X131230476Y-104482914D02*
X131135238Y-104530533D01*
X151954819Y-101761904D02*
X152764342Y-101761904D01*
X152764342Y-101761904D02*
X152859580Y-101714285D01*
X152859580Y-101714285D02*
X152907200Y-101666666D01*
X152907200Y-101666666D02*
X152954819Y-101571428D01*
X152954819Y-101571428D02*
X152954819Y-101380952D01*
X152954819Y-101380952D02*
X152907200Y-101285714D01*
X152907200Y-101285714D02*
X152859580Y-101238095D01*
X152859580Y-101238095D02*
X152764342Y-101190476D01*
X152764342Y-101190476D02*
X151954819Y-101190476D01*
X152050057Y-100761904D02*
X152002438Y-100714285D01*
X152002438Y-100714285D02*
X151954819Y-100619047D01*
X151954819Y-100619047D02*
X151954819Y-100380952D01*
X151954819Y-100380952D02*
X152002438Y-100285714D01*
X152002438Y-100285714D02*
X152050057Y-100238095D01*
X152050057Y-100238095D02*
X152145295Y-100190476D01*
X152145295Y-100190476D02*
X152240533Y-100190476D01*
X152240533Y-100190476D02*
X152383390Y-100238095D01*
X152383390Y-100238095D02*
X152954819Y-100809523D01*
X152954819Y-100809523D02*
X152954819Y-100190476D01*
X147725419Y-102955826D02*
X147677800Y-102908207D01*
X147677800Y-102908207D02*
X147630180Y-102765350D01*
X147630180Y-102765350D02*
X147630180Y-102670112D01*
X147630180Y-102670112D02*
X147677800Y-102527255D01*
X147677800Y-102527255D02*
X147773038Y-102432017D01*
X147773038Y-102432017D02*
X147868276Y-102384398D01*
X147868276Y-102384398D02*
X148058752Y-102336779D01*
X148058752Y-102336779D02*
X148201609Y-102336779D01*
X148201609Y-102336779D02*
X148392085Y-102384398D01*
X148392085Y-102384398D02*
X148487323Y-102432017D01*
X148487323Y-102432017D02*
X148582561Y-102527255D01*
X148582561Y-102527255D02*
X148630180Y-102670112D01*
X148630180Y-102670112D02*
X148630180Y-102765350D01*
X148630180Y-102765350D02*
X148582561Y-102908207D01*
X148582561Y-102908207D02*
X148534942Y-102955826D01*
X147725419Y-103955826D02*
X147677800Y-103908207D01*
X147677800Y-103908207D02*
X147630180Y-103765350D01*
X147630180Y-103765350D02*
X147630180Y-103670112D01*
X147630180Y-103670112D02*
X147677800Y-103527255D01*
X147677800Y-103527255D02*
X147773038Y-103432017D01*
X147773038Y-103432017D02*
X147868276Y-103384398D01*
X147868276Y-103384398D02*
X148058752Y-103336779D01*
X148058752Y-103336779D02*
X148201609Y-103336779D01*
X148201609Y-103336779D02*
X148392085Y-103384398D01*
X148392085Y-103384398D02*
X148487323Y-103432017D01*
X148487323Y-103432017D02*
X148582561Y-103527255D01*
X148582561Y-103527255D02*
X148630180Y-103670112D01*
X148630180Y-103670112D02*
X148630180Y-103765350D01*
X148630180Y-103765350D02*
X148582561Y-103908207D01*
X148582561Y-103908207D02*
X148534942Y-103955826D01*
X147630180Y-104908207D02*
X147630180Y-104336779D01*
X147630180Y-104622493D02*
X148630180Y-104622493D01*
X148630180Y-104622493D02*
X148487323Y-104527255D01*
X148487323Y-104527255D02*
X148392085Y-104432017D01*
X148392085Y-104432017D02*
X148344466Y-104336779D01*
X147630180Y-105860588D02*
X147630180Y-105289160D01*
X147630180Y-105574874D02*
X148630180Y-105574874D01*
X148630180Y-105574874D02*
X148487323Y-105479636D01*
X148487323Y-105479636D02*
X148392085Y-105384398D01*
X148392085Y-105384398D02*
X148344466Y-105289160D01*
X148630180Y-106479636D02*
X148630180Y-106574874D01*
X148630180Y-106574874D02*
X148582561Y-106670112D01*
X148582561Y-106670112D02*
X148534942Y-106717731D01*
X148534942Y-106717731D02*
X148439704Y-106765350D01*
X148439704Y-106765350D02*
X148249228Y-106812969D01*
X148249228Y-106812969D02*
X148011133Y-106812969D01*
X148011133Y-106812969D02*
X147820657Y-106765350D01*
X147820657Y-106765350D02*
X147725419Y-106717731D01*
X147725419Y-106717731D02*
X147677800Y-106670112D01*
X147677800Y-106670112D02*
X147630180Y-106574874D01*
X147630180Y-106574874D02*
X147630180Y-106479636D01*
X147630180Y-106479636D02*
X147677800Y-106384398D01*
X147677800Y-106384398D02*
X147725419Y-106336779D01*
X147725419Y-106336779D02*
X147820657Y-106289160D01*
X147820657Y-106289160D02*
X148011133Y-106241541D01*
X148011133Y-106241541D02*
X148249228Y-106241541D01*
X148249228Y-106241541D02*
X148439704Y-106289160D01*
X148439704Y-106289160D02*
X148534942Y-106336779D01*
X148534942Y-106336779D02*
X148582561Y-106384398D01*
X148582561Y-106384398D02*
X148630180Y-106479636D01*
X147630180Y-107765350D02*
X147630180Y-107193922D01*
X147630180Y-107479636D02*
X148630180Y-107479636D01*
X148630180Y-107479636D02*
X148487323Y-107384398D01*
X148487323Y-107384398D02*
X148392085Y-107289160D01*
X148392085Y-107289160D02*
X148344466Y-107193922D01*
X146630180Y-103146303D02*
X145630180Y-103479636D01*
X145630180Y-103479636D02*
X146630180Y-103812969D01*
X145630180Y-105432017D02*
X145630180Y-104860589D01*
X145630180Y-105146303D02*
X146630180Y-105146303D01*
X146630180Y-105146303D02*
X146487323Y-105051065D01*
X146487323Y-105051065D02*
X146392085Y-104955827D01*
X146392085Y-104955827D02*
X146344466Y-104860589D01*
X145725419Y-105860589D02*
X145677800Y-105908208D01*
X145677800Y-105908208D02*
X145630180Y-105860589D01*
X145630180Y-105860589D02*
X145677800Y-105812970D01*
X145677800Y-105812970D02*
X145725419Y-105860589D01*
X145725419Y-105860589D02*
X145630180Y-105860589D01*
X146630180Y-106527255D02*
X146630180Y-106622493D01*
X146630180Y-106622493D02*
X146582561Y-106717731D01*
X146582561Y-106717731D02*
X146534942Y-106765350D01*
X146534942Y-106765350D02*
X146439704Y-106812969D01*
X146439704Y-106812969D02*
X146249228Y-106860588D01*
X146249228Y-106860588D02*
X146011133Y-106860588D01*
X146011133Y-106860588D02*
X145820657Y-106812969D01*
X145820657Y-106812969D02*
X145725419Y-106765350D01*
X145725419Y-106765350D02*
X145677800Y-106717731D01*
X145677800Y-106717731D02*
X145630180Y-106622493D01*
X145630180Y-106622493D02*
X145630180Y-106527255D01*
X145630180Y-106527255D02*
X145677800Y-106432017D01*
X145677800Y-106432017D02*
X145725419Y-106384398D01*
X145725419Y-106384398D02*
X145820657Y-106336779D01*
X145820657Y-106336779D02*
X146011133Y-106289160D01*
X146011133Y-106289160D02*
X146249228Y-106289160D01*
X146249228Y-106289160D02*
X146439704Y-106336779D01*
X146439704Y-106336779D02*
X146534942Y-106384398D01*
X146534942Y-106384398D02*
X146582561Y-106432017D01*
X146582561Y-106432017D02*
X146630180Y-106527255D01*
X145668095Y-72344819D02*
X145668095Y-73154342D01*
X145668095Y-73154342D02*
X145715714Y-73249580D01*
X145715714Y-73249580D02*
X145763333Y-73297200D01*
X145763333Y-73297200D02*
X145858571Y-73344819D01*
X145858571Y-73344819D02*
X146049047Y-73344819D01*
X146049047Y-73344819D02*
X146144285Y-73297200D01*
X146144285Y-73297200D02*
X146191904Y-73249580D01*
X146191904Y-73249580D02*
X146239523Y-73154342D01*
X146239523Y-73154342D02*
X146239523Y-72344819D01*
X146620476Y-72344819D02*
X147239523Y-72344819D01*
X147239523Y-72344819D02*
X146906190Y-72725771D01*
X146906190Y-72725771D02*
X147049047Y-72725771D01*
X147049047Y-72725771D02*
X147144285Y-72773390D01*
X147144285Y-72773390D02*
X147191904Y-72821009D01*
X147191904Y-72821009D02*
X147239523Y-72916247D01*
X147239523Y-72916247D02*
X147239523Y-73154342D01*
X147239523Y-73154342D02*
X147191904Y-73249580D01*
X147191904Y-73249580D02*
X147144285Y-73297200D01*
X147144285Y-73297200D02*
X147049047Y-73344819D01*
X147049047Y-73344819D02*
X146763333Y-73344819D01*
X146763333Y-73344819D02*
X146668095Y-73297200D01*
X146668095Y-73297200D02*
X146620476Y-73249580D01*
X97644819Y-83253333D02*
X98359104Y-83253333D01*
X98359104Y-83253333D02*
X98501961Y-83300952D01*
X98501961Y-83300952D02*
X98597200Y-83396190D01*
X98597200Y-83396190D02*
X98644819Y-83539047D01*
X98644819Y-83539047D02*
X98644819Y-83634285D01*
X98644819Y-82253333D02*
X98644819Y-82824761D01*
X98644819Y-82539047D02*
X97644819Y-82539047D01*
X97644819Y-82539047D02*
X97787676Y-82634285D01*
X97787676Y-82634285D02*
X97882914Y-82729523D01*
X97882914Y-82729523D02*
X97930533Y-82824761D01*
X118177540Y-80509061D02*
X118177540Y-81318584D01*
X118177540Y-81318584D02*
X118225159Y-81413822D01*
X118225159Y-81413822D02*
X118272778Y-81461442D01*
X118272778Y-81461442D02*
X118368016Y-81509061D01*
X118368016Y-81509061D02*
X118558492Y-81509061D01*
X118558492Y-81509061D02*
X118653730Y-81461442D01*
X118653730Y-81461442D02*
X118701349Y-81413822D01*
X118701349Y-81413822D02*
X118748968Y-81318584D01*
X118748968Y-81318584D02*
X118748968Y-80509061D01*
X119748968Y-81509061D02*
X119177540Y-81509061D01*
X119463254Y-81509061D02*
X119463254Y-80509061D01*
X119463254Y-80509061D02*
X119368016Y-80651918D01*
X119368016Y-80651918D02*
X119272778Y-80747156D01*
X119272778Y-80747156D02*
X119177540Y-80794775D01*
X126098493Y-95828108D02*
X126860398Y-95828108D01*
X126479445Y-96209061D02*
X126479445Y-95447156D01*
X126333933Y-98978297D02*
X127095838Y-98978297D01*
X110851006Y-98908108D02*
X111612911Y-98908108D01*
X111231958Y-99289061D02*
X111231958Y-98527156D01*
X117034683Y-72904299D02*
X117082302Y-72856680D01*
X117082302Y-72856680D02*
X117177540Y-72809061D01*
X117177540Y-72809061D02*
X117415635Y-72809061D01*
X117415635Y-72809061D02*
X117510873Y-72856680D01*
X117510873Y-72856680D02*
X117558492Y-72904299D01*
X117558492Y-72904299D02*
X117606111Y-72999537D01*
X117606111Y-72999537D02*
X117606111Y-73094775D01*
X117606111Y-73094775D02*
X117558492Y-73237632D01*
X117558492Y-73237632D02*
X116987064Y-73809061D01*
X116987064Y-73809061D02*
X117606111Y-73809061D01*
X117939445Y-72809061D02*
X118558492Y-72809061D01*
X118558492Y-72809061D02*
X118225159Y-73190013D01*
X118225159Y-73190013D02*
X118368016Y-73190013D01*
X118368016Y-73190013D02*
X118463254Y-73237632D01*
X118463254Y-73237632D02*
X118510873Y-73285251D01*
X118510873Y-73285251D02*
X118558492Y-73380489D01*
X118558492Y-73380489D02*
X118558492Y-73618584D01*
X118558492Y-73618584D02*
X118510873Y-73713822D01*
X118510873Y-73713822D02*
X118463254Y-73761442D01*
X118463254Y-73761442D02*
X118368016Y-73809061D01*
X118368016Y-73809061D02*
X118082302Y-73809061D01*
X118082302Y-73809061D02*
X117987064Y-73761442D01*
X117987064Y-73761442D02*
X117939445Y-73713822D01*
X119177540Y-72809061D02*
X119272778Y-72809061D01*
X119272778Y-72809061D02*
X119368016Y-72856680D01*
X119368016Y-72856680D02*
X119415635Y-72904299D01*
X119415635Y-72904299D02*
X119463254Y-72999537D01*
X119463254Y-72999537D02*
X119510873Y-73190013D01*
X119510873Y-73190013D02*
X119510873Y-73428108D01*
X119510873Y-73428108D02*
X119463254Y-73618584D01*
X119463254Y-73618584D02*
X119415635Y-73713822D01*
X119415635Y-73713822D02*
X119368016Y-73761442D01*
X119368016Y-73761442D02*
X119272778Y-73809061D01*
X119272778Y-73809061D02*
X119177540Y-73809061D01*
X119177540Y-73809061D02*
X119082302Y-73761442D01*
X119082302Y-73761442D02*
X119034683Y-73713822D01*
X119034683Y-73713822D02*
X118987064Y-73618584D01*
X118987064Y-73618584D02*
X118939445Y-73428108D01*
X118939445Y-73428108D02*
X118939445Y-73190013D01*
X118939445Y-73190013D02*
X118987064Y-72999537D01*
X118987064Y-72999537D02*
X119034683Y-72904299D01*
X119034683Y-72904299D02*
X119082302Y-72856680D01*
X119082302Y-72856680D02*
X119177540Y-72809061D01*
X120558493Y-72809061D02*
X120891826Y-73809061D01*
X120891826Y-73809061D02*
X121225159Y-72809061D01*
X121415636Y-73428108D02*
X121463255Y-73380489D01*
X121463255Y-73380489D02*
X121558493Y-73332870D01*
X121558493Y-73332870D02*
X121748969Y-73428108D01*
X121748969Y-73428108D02*
X121844207Y-73380489D01*
X121844207Y-73380489D02*
X121891826Y-73332870D01*
X142454819Y-78166666D02*
X141978628Y-78499999D01*
X142454819Y-78738094D02*
X141454819Y-78738094D01*
X141454819Y-78738094D02*
X141454819Y-78357142D01*
X141454819Y-78357142D02*
X141502438Y-78261904D01*
X141502438Y-78261904D02*
X141550057Y-78214285D01*
X141550057Y-78214285D02*
X141645295Y-78166666D01*
X141645295Y-78166666D02*
X141788152Y-78166666D01*
X141788152Y-78166666D02*
X141883390Y-78214285D01*
X141883390Y-78214285D02*
X141931009Y-78261904D01*
X141931009Y-78261904D02*
X141978628Y-78357142D01*
X141978628Y-78357142D02*
X141978628Y-78738094D01*
X142454819Y-77214285D02*
X142454819Y-77785713D01*
X142454819Y-77499999D02*
X141454819Y-77499999D01*
X141454819Y-77499999D02*
X141597676Y-77595237D01*
X141597676Y-77595237D02*
X141692914Y-77690475D01*
X141692914Y-77690475D02*
X141740533Y-77785713D01*
X116201022Y-103959854D02*
X116201022Y-104674139D01*
X116201022Y-104674139D02*
X116153403Y-104816996D01*
X116153403Y-104816996D02*
X116058165Y-104912235D01*
X116058165Y-104912235D02*
X115915308Y-104959854D01*
X115915308Y-104959854D02*
X115820070Y-104959854D01*
X116629594Y-104055092D02*
X116677213Y-104007473D01*
X116677213Y-104007473D02*
X116772451Y-103959854D01*
X116772451Y-103959854D02*
X117010546Y-103959854D01*
X117010546Y-103959854D02*
X117105784Y-104007473D01*
X117105784Y-104007473D02*
X117153403Y-104055092D01*
X117153403Y-104055092D02*
X117201022Y-104150330D01*
X117201022Y-104150330D02*
X117201022Y-104245568D01*
X117201022Y-104245568D02*
X117153403Y-104388425D01*
X117153403Y-104388425D02*
X116581975Y-104959854D01*
X116581975Y-104959854D02*
X117201022Y-104959854D01*
X110090079Y-103959854D02*
X110090079Y-104674139D01*
X110090079Y-104674139D02*
X110042460Y-104816996D01*
X110042460Y-104816996D02*
X109947222Y-104912235D01*
X109947222Y-104912235D02*
X109804365Y-104959854D01*
X109804365Y-104959854D02*
X109709127Y-104959854D01*
X110471032Y-103959854D02*
X111137698Y-103959854D01*
X111137698Y-103959854D02*
X110709127Y-104959854D01*
X122617908Y-103959854D02*
X122617908Y-104674139D01*
X122617908Y-104674139D02*
X122570289Y-104816996D01*
X122570289Y-104816996D02*
X122475051Y-104912235D01*
X122475051Y-104912235D02*
X122332194Y-104959854D01*
X122332194Y-104959854D02*
X122236956Y-104959854D01*
X123522670Y-104293187D02*
X123522670Y-104959854D01*
X123284575Y-103912235D02*
X123046480Y-104626520D01*
X123046480Y-104626520D02*
X123665527Y-104626520D01*
X103666666Y-100784819D02*
X103666666Y-101499104D01*
X103666666Y-101499104D02*
X103619047Y-101641961D01*
X103619047Y-101641961D02*
X103523809Y-101737200D01*
X103523809Y-101737200D02*
X103380952Y-101784819D01*
X103380952Y-101784819D02*
X103285714Y-101784819D01*
X104047619Y-100784819D02*
X104666666Y-100784819D01*
X104666666Y-100784819D02*
X104333333Y-101165771D01*
X104333333Y-101165771D02*
X104476190Y-101165771D01*
X104476190Y-101165771D02*
X104571428Y-101213390D01*
X104571428Y-101213390D02*
X104619047Y-101261009D01*
X104619047Y-101261009D02*
X104666666Y-101356247D01*
X104666666Y-101356247D02*
X104666666Y-101594342D01*
X104666666Y-101594342D02*
X104619047Y-101689580D01*
X104619047Y-101689580D02*
X104571428Y-101737200D01*
X104571428Y-101737200D02*
X104476190Y-101784819D01*
X104476190Y-101784819D02*
X104190476Y-101784819D01*
X104190476Y-101784819D02*
X104095238Y-101737200D01*
X104095238Y-101737200D02*
X104047619Y-101689580D01*
X104083333Y-102959580D02*
X104035714Y-103007200D01*
X104035714Y-103007200D02*
X103892857Y-103054819D01*
X103892857Y-103054819D02*
X103797619Y-103054819D01*
X103797619Y-103054819D02*
X103654762Y-103007200D01*
X103654762Y-103007200D02*
X103559524Y-102911961D01*
X103559524Y-102911961D02*
X103511905Y-102816723D01*
X103511905Y-102816723D02*
X103464286Y-102626247D01*
X103464286Y-102626247D02*
X103464286Y-102483390D01*
X103464286Y-102483390D02*
X103511905Y-102292914D01*
X103511905Y-102292914D02*
X103559524Y-102197676D01*
X103559524Y-102197676D02*
X103654762Y-102102438D01*
X103654762Y-102102438D02*
X103797619Y-102054819D01*
X103797619Y-102054819D02*
X103892857Y-102054819D01*
X103892857Y-102054819D02*
X104035714Y-102102438D01*
X104035714Y-102102438D02*
X104083333Y-102150057D01*
X105035714Y-103054819D02*
X104464286Y-103054819D01*
X104750000Y-103054819D02*
X104750000Y-102054819D01*
X104750000Y-102054819D02*
X104654762Y-102197676D01*
X104654762Y-102197676D02*
X104559524Y-102292914D01*
X104559524Y-102292914D02*
X104464286Y-102340533D01*
X139261905Y-71454819D02*
X139261905Y-70454819D01*
X139261905Y-70454819D02*
X139500000Y-70454819D01*
X139500000Y-70454819D02*
X139642857Y-70502438D01*
X139642857Y-70502438D02*
X139738095Y-70597676D01*
X139738095Y-70597676D02*
X139785714Y-70692914D01*
X139785714Y-70692914D02*
X139833333Y-70883390D01*
X139833333Y-70883390D02*
X139833333Y-71026247D01*
X139833333Y-71026247D02*
X139785714Y-71216723D01*
X139785714Y-71216723D02*
X139738095Y-71311961D01*
X139738095Y-71311961D02*
X139642857Y-71407200D01*
X139642857Y-71407200D02*
X139500000Y-71454819D01*
X139500000Y-71454819D02*
X139261905Y-71454819D01*
X140785714Y-71454819D02*
X140214286Y-71454819D01*
X140500000Y-71454819D02*
X140500000Y-70454819D01*
X140500000Y-70454819D02*
X140404762Y-70597676D01*
X140404762Y-70597676D02*
X140309524Y-70692914D01*
X140309524Y-70692914D02*
X140214286Y-70740533D01*
D11*
%TO.C,AE1*%
X126860000Y-107740000D02*
X126860000Y-111340000D01*
X128740000Y-105860000D02*
X132340000Y-105860000D01*
X128740000Y-113220000D02*
X132340000Y-113220000D01*
X134220000Y-107740000D02*
X134220000Y-111340000D01*
D10*
%TO.C,U2*%
X154500000Y-96000000D02*
X154000000Y-96000000D01*
X154500000Y-96000000D02*
X154500000Y-116000000D01*
X137500000Y-96000000D02*
X138000000Y-96000000D01*
X154500000Y-116000000D02*
X137500000Y-116000000D01*
X137500000Y-116000000D02*
X137500000Y-96000000D01*
%TO.C,U3*%
X157610000Y-67590000D02*
X149750000Y-67590000D01*
X157610000Y-67590000D02*
X157610000Y-73590000D01*
X149750000Y-67590000D02*
X149750000Y-68590000D01*
X141530000Y-67590000D02*
X133100001Y-67590000D01*
X133100000Y-67590000D02*
X133100000Y-100670000D01*
X149750000Y-68590000D02*
X141530000Y-68590000D01*
X141530000Y-68590000D02*
X141530000Y-67590000D01*
X159760000Y-74590000D02*
X159760000Y-74590000D01*
X158600000Y-74590000D02*
X159760000Y-74590000D01*
X159760000Y-100670000D02*
X159760000Y-74590000D01*
X135100000Y-102670000D02*
X157760000Y-102670000D01*
X157610000Y-73590000D02*
G75*
G03*
X158610000Y-74590000I999999J-1D01*
G01*
X157760000Y-102670000D02*
G75*
G03*
X159760000Y-100670000I0J2000000D01*
G01*
X133100000Y-100670000D02*
G75*
G03*
X135100000Y-102670000I2000000J0D01*
G01*
D11*
%TO.C,J1*%
X107010000Y-90840000D02*
X107850000Y-90840000D01*
X107850000Y-90840000D02*
X107850000Y-90240000D01*
X99189000Y-90600000D02*
X107610000Y-90600000D01*
X99189000Y-90600000D02*
X99189000Y-75240000D01*
X100749000Y-90600000D02*
X100749000Y-75240000D01*
X106350000Y-90600000D02*
X106350000Y-75240000D01*
X106950000Y-90600000D02*
X106950000Y-75240000D01*
X107610000Y-90600000D02*
X107610000Y-75240000D01*
X99249000Y-89250000D02*
X100249000Y-89250000D01*
X99249000Y-89250000D02*
X99249000Y-86750000D01*
X100249000Y-89250000D02*
X100249000Y-86750000D01*
X99249000Y-86750000D02*
X100249000Y-86750000D01*
X99249000Y-84170000D02*
X100249000Y-84170000D01*
X99249000Y-84170000D02*
X99249000Y-81670000D01*
X100249000Y-84170000D02*
X100249000Y-81670000D01*
X99249000Y-81670000D02*
X100249000Y-81670000D01*
X99249000Y-79090000D02*
X100249000Y-79090000D01*
X99249000Y-79090000D02*
X99249000Y-76590000D01*
X100249000Y-79090000D02*
X100249000Y-76590000D01*
X103976000Y-79020000D02*
X104069000Y-79114000D01*
X104216000Y-78850000D02*
X104274000Y-78909000D01*
X101725000Y-76770000D02*
X101784000Y-76829000D01*
X99249000Y-76590000D02*
X100249000Y-76590000D01*
X101931000Y-76565000D02*
X102024000Y-76659000D01*
X99189000Y-75240000D02*
X107610000Y-75240000D01*
X102211000Y-89484000D02*
G75*
G03*
X103789089Y-89483953I789000J1483995D01*
G01*
X101516000Y-87211000D02*
G75*
G03*
X101516047Y-88789089I1483995J-789000D01*
G01*
X104483999Y-88789000D02*
G75*
G03*
X104680449Y-87970617I-1483994J788998D01*
G01*
X104679999Y-88000000D02*
G75*
G03*
X104483351Y-87211288I-1679999J0D01*
G01*
X103789000Y-86516000D02*
G75*
G03*
X102210911Y-86516048I-789000J-1484000D01*
G01*
X104500000Y-82920000D02*
G75*
G03*
X104500000Y-82920000I-1500000J0D01*
G01*
X104680000Y-77840000D02*
G75*
G03*
X104680000Y-77840000I-1680000J0D01*
G01*
%TO.C,U1*%
X106924580Y-66802087D02*
X132784580Y-66802087D01*
X132784580Y-66802087D02*
X132784580Y-103362087D01*
X132784580Y-103362087D02*
X106924580Y-103362087D01*
X106924580Y-103362087D02*
X106924580Y-66802087D01*
X108839445Y-69134242D02*
X129039445Y-69134242D01*
X129039445Y-69134242D02*
X129039445Y-103134242D01*
X129039445Y-103134242D02*
X108839445Y-103134242D01*
X108839445Y-103134242D02*
X108839445Y-69134242D01*
%TO.C,R1*%
X142920000Y-76620000D02*
X142920000Y-80460000D01*
X141080000Y-76620000D02*
X141080000Y-80460000D01*
%TO.C,J2*%
X118330000Y-116130000D02*
X117000000Y-116130000D01*
X118330000Y-114800000D02*
X118330000Y-116130000D01*
X118330000Y-113530000D02*
X118330000Y-105850000D01*
X118330000Y-113530000D02*
X115670000Y-113530000D01*
X118330000Y-105850000D02*
X115670000Y-105850000D01*
X115670000Y-113530000D02*
X115670000Y-105850000D01*
%TO.C,J7*%
X112330000Y-116130000D02*
X111000000Y-116130000D01*
X112330000Y-114800000D02*
X112330000Y-116130000D01*
X112330000Y-113530000D02*
X112330000Y-105850000D01*
X112330000Y-113530000D02*
X109670000Y-113530000D01*
X112330000Y-105850000D02*
X109670000Y-105850000D01*
X109670000Y-113530000D02*
X109670000Y-105850000D01*
%TO.C,J4*%
X124330000Y-116130000D02*
X123000000Y-116130000D01*
X124330000Y-114800000D02*
X124330000Y-116130000D01*
X124330000Y-113530000D02*
X124330000Y-105850000D01*
X124330000Y-113530000D02*
X121670000Y-113530000D01*
X124330000Y-105850000D02*
X121670000Y-105850000D01*
X121670000Y-113530000D02*
X121670000Y-105850000D01*
%TO.C,J3*%
X105330000Y-100330000D02*
X104000000Y-100330000D01*
X105330000Y-99000000D02*
X105330000Y-100330000D01*
X105330000Y-97730000D02*
X105330000Y-95130000D01*
X105330000Y-97730000D02*
X102670000Y-97730000D01*
X105330000Y-95130000D02*
X102670000Y-95130000D01*
X102670000Y-97730000D02*
X102670000Y-95130000D01*
%TO.C,C1*%
X100749759Y-105161000D02*
X101379759Y-105161000D01*
X101064759Y-104846000D02*
X101064759Y-105476000D01*
X104250000Y-103770000D02*
X104250000Y-110230000D01*
X104290000Y-103770000D02*
X104290000Y-110230000D01*
X104330000Y-103770000D02*
X104330000Y-110230000D01*
X104370000Y-103772000D02*
X104370000Y-110228000D01*
X104410000Y-103773000D02*
X104410000Y-110227000D01*
X104450000Y-103776000D02*
X104450000Y-110224000D01*
X104490000Y-103778000D02*
X104490000Y-105960000D01*
X104490000Y-108040000D02*
X104490000Y-110222000D01*
X104530000Y-103782000D02*
X104530000Y-105960000D01*
X104530000Y-108040000D02*
X104530000Y-110218000D01*
X104570000Y-103785000D02*
X104570000Y-105960000D01*
X104570000Y-108040000D02*
X104570000Y-110215000D01*
X104610000Y-103789000D02*
X104610000Y-105960000D01*
X104610000Y-108040000D02*
X104610000Y-110211000D01*
X104650000Y-103794000D02*
X104650000Y-105960000D01*
X104650000Y-108040000D02*
X104650000Y-110206000D01*
X104690000Y-103799000D02*
X104690000Y-105960000D01*
X104690000Y-108040000D02*
X104690000Y-110201000D01*
X104730000Y-103805000D02*
X104730000Y-105960000D01*
X104730000Y-108040000D02*
X104730000Y-110195000D01*
X104770000Y-103811000D02*
X104770000Y-105960000D01*
X104770000Y-108040000D02*
X104770000Y-110189000D01*
X104810000Y-103818000D02*
X104810000Y-105960000D01*
X104810000Y-108040000D02*
X104810000Y-110182000D01*
X104850000Y-103825000D02*
X104850000Y-105960000D01*
X104850000Y-108040000D02*
X104850000Y-110175000D01*
X104890000Y-103833000D02*
X104890000Y-105960000D01*
X104890000Y-108040000D02*
X104890000Y-110167000D01*
X104930000Y-103841000D02*
X104930000Y-105960000D01*
X104930000Y-108040000D02*
X104930000Y-110159000D01*
X104971000Y-103850000D02*
X104971000Y-105960000D01*
X104971000Y-108040000D02*
X104971000Y-110150000D01*
X105011000Y-103859000D02*
X105011000Y-105960000D01*
X105011000Y-108040000D02*
X105011000Y-110141000D01*
X105051000Y-103869000D02*
X105051000Y-105960000D01*
X105051000Y-108040000D02*
X105051000Y-110131000D01*
X105091000Y-103879000D02*
X105091000Y-105960000D01*
X105091000Y-108040000D02*
X105091000Y-110121000D01*
X105131000Y-103890000D02*
X105131000Y-105960000D01*
X105131000Y-108040000D02*
X105131000Y-110110000D01*
X105171000Y-103902000D02*
X105171000Y-105960000D01*
X105171000Y-108040000D02*
X105171000Y-110098000D01*
X105211000Y-103914000D02*
X105211000Y-105960000D01*
X105211000Y-108040000D02*
X105211000Y-110086000D01*
X105251000Y-103926000D02*
X105251000Y-105960000D01*
X105251000Y-108040000D02*
X105251000Y-110074000D01*
X105291000Y-103939000D02*
X105291000Y-105960000D01*
X105291000Y-108040000D02*
X105291000Y-110061000D01*
X105331000Y-103953000D02*
X105331000Y-105960000D01*
X105331000Y-108040000D02*
X105331000Y-110047000D01*
X105371000Y-103967000D02*
X105371000Y-105960000D01*
X105371000Y-108040000D02*
X105371000Y-110033000D01*
X105411000Y-103982000D02*
X105411000Y-105960000D01*
X105411000Y-108040000D02*
X105411000Y-110018000D01*
X105451000Y-103998000D02*
X105451000Y-105960000D01*
X105451000Y-108040000D02*
X105451000Y-110002000D01*
X105491000Y-104014000D02*
X105491000Y-105960000D01*
X105491000Y-108040000D02*
X105491000Y-109986000D01*
X105531000Y-104030000D02*
X105531000Y-105960000D01*
X105531000Y-108040000D02*
X105531000Y-109970000D01*
X105571000Y-104048000D02*
X105571000Y-105960000D01*
X105571000Y-108040000D02*
X105571000Y-109952000D01*
X105611000Y-104066000D02*
X105611000Y-105960000D01*
X105611000Y-108040000D02*
X105611000Y-109934000D01*
X105651000Y-104084000D02*
X105651000Y-105960000D01*
X105651000Y-108040000D02*
X105651000Y-109916000D01*
X105691000Y-104104000D02*
X105691000Y-105960000D01*
X105691000Y-108040000D02*
X105691000Y-109896000D01*
X105731000Y-104124000D02*
X105731000Y-105960000D01*
X105731000Y-108040000D02*
X105731000Y-109876000D01*
X105771000Y-104144000D02*
X105771000Y-105960000D01*
X105771000Y-108040000D02*
X105771000Y-109856000D01*
X105811000Y-104166000D02*
X105811000Y-105960000D01*
X105811000Y-108040000D02*
X105811000Y-109834000D01*
X105851000Y-104188000D02*
X105851000Y-105960000D01*
X105851000Y-108040000D02*
X105851000Y-109812000D01*
X105891000Y-104210000D02*
X105891000Y-105960000D01*
X105891000Y-108040000D02*
X105891000Y-109790000D01*
X105931000Y-104234000D02*
X105931000Y-105960000D01*
X105931000Y-108040000D02*
X105931000Y-109766000D01*
X105971000Y-104258000D02*
X105971000Y-105960000D01*
X105971000Y-108040000D02*
X105971000Y-109742000D01*
X106011000Y-104284000D02*
X106011000Y-105960000D01*
X106011000Y-108040000D02*
X106011000Y-109716000D01*
X106051000Y-104310000D02*
X106051000Y-105960000D01*
X106051000Y-108040000D02*
X106051000Y-109690000D01*
X106091000Y-104336000D02*
X106091000Y-105960000D01*
X106091000Y-108040000D02*
X106091000Y-109664000D01*
X106131000Y-104364000D02*
X106131000Y-105960000D01*
X106131000Y-108040000D02*
X106131000Y-109636000D01*
X106171000Y-104393000D02*
X106171000Y-105960000D01*
X106171000Y-108040000D02*
X106171000Y-109607000D01*
X106211000Y-104422000D02*
X106211000Y-105960000D01*
X106211000Y-108040000D02*
X106211000Y-109578000D01*
X106251000Y-104452000D02*
X106251000Y-105960000D01*
X106251000Y-108040000D02*
X106251000Y-109548000D01*
X106291000Y-104484000D02*
X106291000Y-105960000D01*
X106291000Y-108040000D02*
X106291000Y-109516000D01*
X106331000Y-104516000D02*
X106331000Y-105960000D01*
X106331000Y-108040000D02*
X106331000Y-109484000D01*
X106371000Y-104550000D02*
X106371000Y-105960000D01*
X106371000Y-108040000D02*
X106371000Y-109450000D01*
X106411000Y-104584000D02*
X106411000Y-105960000D01*
X106411000Y-108040000D02*
X106411000Y-109416000D01*
X106451000Y-104620000D02*
X106451000Y-105960000D01*
X106451000Y-108040000D02*
X106451000Y-109380000D01*
X106491000Y-104657000D02*
X106491000Y-105960000D01*
X106491000Y-108040000D02*
X106491000Y-109343000D01*
X106531000Y-104695000D02*
X106531000Y-105960000D01*
X106531000Y-108040000D02*
X106531000Y-109305000D01*
X106571000Y-104735000D02*
X106571000Y-109265000D01*
X106611000Y-104776000D02*
X106611000Y-109224000D01*
X106651000Y-104818000D02*
X106651000Y-109182000D01*
X106691000Y-104863000D02*
X106691000Y-109137000D01*
X106731000Y-104908000D02*
X106731000Y-109092000D01*
X106771000Y-104956000D02*
X106771000Y-109044000D01*
X106811000Y-105005000D02*
X106811000Y-108995000D01*
X106851000Y-105056000D02*
X106851000Y-108944000D01*
X106891000Y-105110000D02*
X106891000Y-108890000D01*
X106931000Y-105166000D02*
X106931000Y-108834000D01*
X106971000Y-105224000D02*
X106971000Y-108776000D01*
X107011000Y-105286000D02*
X107011000Y-108714000D01*
X107051000Y-105350000D02*
X107051000Y-108650000D01*
X107091000Y-105419000D02*
X107091000Y-108581000D01*
X107131000Y-105491000D02*
X107131000Y-108509000D01*
X107171000Y-105568000D02*
X107171000Y-108432000D01*
X107211000Y-105650000D02*
X107211000Y-108350000D01*
X107251000Y-105738000D02*
X107251000Y-108262000D01*
X107291000Y-105835000D02*
X107291000Y-108165000D01*
X107331000Y-105941000D02*
X107331000Y-108059000D01*
X107371000Y-106060000D02*
X107371000Y-107940000D01*
X107411000Y-106198000D02*
X107411000Y-107802000D01*
X107451000Y-106367000D02*
X107451000Y-107633000D01*
X107491000Y-106598000D02*
X107491000Y-107402000D01*
X107520000Y-107000000D02*
G75*
G03*
X107520000Y-107000000I-3270000J0D01*
G01*
%TD*%
M02*
